# Blender v2.80 (sub 75) OBJ File: ''
# www.blender.org
mtllib physics_simple.mtl
o Neue_Welt_(10)__2547_58_-1089_to_2595_255_-1061.001
v -0.500000 0.500000 0.500000
v -0.500000 -0.500000 -0.500000
v -0.500000 -0.500000 0.500000
v -0.500000 0.500000 -0.500000
v 0.500000 -0.500000 -0.500000
v 0.500000 0.500000 0.500000
v 0.500000 -0.500000 0.500000
v 0.500000 0.500000 -0.500000
vt 0.997317 0.997813
vt 0.001706 0.001707
vt 0.997317 0.001707
vt 0.997317 0.997813
vt 0.001706 0.001707
vt 0.997317 0.001707
vt 0.997317 0.001707
vt 0.001706 0.997813
vt 0.001706 0.001707
vt 0.001706 0.001707
vt 0.997317 0.001707
vt 0.997317 0.001707
vt 0.001706 0.997813
vt 0.001706 0.001707
vt 0.001706 0.997813
vt 0.001706 0.997813
vt 0.001706 0.997813
vt 0.997317 0.997813
vt 0.997317 0.997813
vt 0.997317 0.997813
vn -1.0000 -0.0000 0.0000
vn 0.0000 0.0000 -1.0000
vn 1.0000 0.0000 0.0000
vn 0.0000 1.0000 0.0000
vn 0.0000 -0.0000 1.0000
vn 0.0000 -1.0000 -0.0000
usemtl Stone
s 1
f 1/1/1 2/2/1 3/3/1
f 4/4/2 5/5/2 2/6/2
f 5/7/3 6/8/3 7/9/3
f 6/10/4 4/4/4 1/11/4
f 7/12/5 1/13/5 3/14/5
f 3/3/6 5/15/6 7/9/6
f 1/1/1 4/16/1 2/2/1
f 4/4/2 8/17/2 5/5/2
f 5/7/3 8/18/3 6/8/3
f 6/10/4 8/17/4 4/4/4
f 7/12/5 6/19/5 1/13/5
f 3/3/6 2/20/6 5/15/6
