# Blender v2.91.0 OBJ File: 'snowballs.blend'
# www.blender.org
mtllib egg_round.mtl
o Sphere.001
v 0.000000 -0.032047 -0.121373
v 0.000000 -0.149906 -0.060687
v 0.030343 0.125407 -0.052556
v 0.052556 0.044604 -0.091030
v 0.060687 -0.032047 -0.105112
v 0.052556 -0.108827 -0.091030
v 0.030343 -0.149906 -0.052556
v -0.000000 0.174076 -0.000000
v 0.052556 0.125407 -0.030343
v 0.091030 0.044604 -0.052556
v 0.105112 -0.032047 -0.060687
v 0.091030 -0.108827 -0.052556
v 0.052556 -0.149906 -0.030343
v 0.060687 0.125407 -0.000000
v 0.105112 0.044604 -0.000000
v 0.121373 -0.032047 -0.000000
v 0.105112 -0.108827 -0.000000
v 0.060687 -0.149906 -0.000000
v 0.052556 0.125407 0.030343
v 0.091030 0.044604 0.052556
v 0.105112 -0.032047 0.060687
v 0.091030 -0.108827 0.052556
v 0.052556 -0.149906 0.030343
v 0.030343 0.125407 0.052556
v 0.052556 0.044604 0.091030
v 0.060687 -0.032047 0.105112
v 0.052556 -0.108827 0.091030
v 0.030343 -0.149906 0.052556
v -0.000000 0.125407 0.060687
v -0.000000 0.044604 0.105112
v -0.000000 -0.032047 0.121373
v -0.000000 -0.108827 0.105112
v 0.000000 -0.149906 0.060687
v 0.000000 -0.171235 -0.000000
v -0.030343 0.125407 0.052556
v -0.052556 0.044604 0.091030
v -0.060687 -0.032047 0.105112
v -0.052556 -0.108827 0.091030
v -0.030343 -0.149906 0.052556
v -0.052556 0.125407 0.030343
v -0.091030 0.044604 0.052556
v -0.105112 -0.032047 0.060687
v -0.091030 -0.108827 0.052556
v -0.052556 -0.149906 0.030343
v -0.060687 0.125407 -0.000000
v -0.105112 0.044604 -0.000000
v -0.121373 -0.032047 -0.000000
v -0.105112 -0.108827 -0.000000
v -0.060687 -0.149906 -0.000000
v -0.052556 0.125407 -0.030343
v -0.091030 0.044604 -0.052556
v -0.105112 -0.032047 -0.060687
v -0.091030 -0.108827 -0.052556
v -0.052556 -0.149906 -0.030343
v -0.030343 0.125407 -0.052556
v -0.052556 0.044604 -0.091030
v -0.060687 -0.032047 -0.105112
v -0.052556 -0.108827 -0.091030
v -0.030343 -0.149906 -0.052556
v 0.000000 0.125407 -0.060687
v 0.000000 0.044604 -0.105112
v 0.000000 -0.108827 -0.105112
vt 0.481354 0.400273
vt 0.481354 0.494947
vt 0.431792 0.494947
vt 0.431792 0.400273
vt 0.481354 0.116249
vt 0.481354 0.210924
vt 0.431792 0.210924
vt 0.431792 0.116249
vt 0.481354 0.305598
vt 0.431792 0.305598
vt 0.382229 0.210924
vt 0.382229 0.116249
vt 0.382229 0.400273
vt 0.382229 0.305598
vt 0.382229 0.494947
vt 0.332667 0.210924
vt 0.332667 0.116249
vt 0.332667 0.400273
vt 0.332667 0.305598
vt 0.332667 0.494947
vt 0.283104 0.400273
vt 0.283104 0.305598
vt 0.283104 0.210924
vt 0.283104 0.494947
vt 0.283104 0.116249
vt 0.233542 0.305598
vt 0.233542 0.210924
vt 0.233542 0.494947
vt 0.233542 0.400273
vt 0.233542 0.116249
vt 0.183979 0.305598
vt 0.183979 0.210924
vt 0.183979 0.494947
vt 0.183979 0.400273
vt 0.183979 0.116249
vt 0.334666 0.022147
vt 0.134417 0.305598
vt 0.134417 0.210924
vt 0.134417 0.494947
vt 0.134417 0.400273
vt 0.134417 0.116249
vt 0.369117 0.546294
vt 0.084854 0.494947
vt 0.084854 0.305598
vt 0.084854 0.210924
vt 0.084854 0.400273
vt 0.084854 0.116249
vt 0.630042 0.494947
vt 0.580479 0.494947
vt 0.035292 0.305598
vt 0.035292 0.210924
vt 0.035292 0.494947
vt 0.035292 0.400273
vt 0.035292 0.116249
vt 0.630042 0.400273
vt 0.580479 0.400273
vt 0.630042 0.116249
vt 0.630042 0.210924
vt 0.580479 0.210924
vt 0.580479 0.116249
vt 0.630042 0.305598
vt 0.580479 0.305598
vt 0.530917 0.210924
vt 0.530917 0.116249
vt 0.530917 0.400273
vt 0.530917 0.305598
vt 0.530917 0.494947
vn 0.0000 0.3407 -0.9401
vn 0.0000 0.6482 -0.7615
vn 0.3901 0.6255 -0.6756
vn 0.4700 0.3407 -0.8142
vn 0.0000 -0.8509 -0.5253
vn 0.0000 -0.4736 -0.8807
vn 0.4404 -0.4736 -0.7627
vn 0.2702 -0.8413 -0.4681
vn 0.0000 0.0002 -1.0000
vn 0.5000 0.0002 -0.8660
vn 0.7627 -0.4736 -0.4404
vn 0.4550 -0.8509 -0.2627
vn 0.8142 0.3407 -0.4700
vn 0.8660 0.0002 -0.5000
vn 0.6594 0.6482 -0.3807
vn 0.8807 -0.4736 0.0000
vn 0.5405 -0.8413 0.0000
vn 0.9401 0.3407 0.0000
vn 1.0000 0.0002 0.0000
vn 0.7802 0.6255 0.0000
vn 0.8142 0.3407 0.4700
vn 0.8660 0.0002 0.5000
vn 0.7627 -0.4736 0.4404
vn 0.6594 0.6482 0.3807
vn 0.4550 -0.8509 0.2627
vn 0.5000 0.0002 0.8660
vn 0.4404 -0.4736 0.7627
vn 0.3901 0.6255 0.6756
vn 0.4700 0.3407 0.8142
vn 0.2702 -0.8413 0.4681
vn 0.0000 0.0002 1.0000
vn 0.0000 -0.4736 0.8807
vn 0.0000 0.6482 0.7615
vn 0.0000 0.3407 0.9401
vn 0.0000 -0.8509 0.5253
vn 0.0000 -1.0000 0.0000
vn -0.5000 0.0002 0.8660
vn -0.4404 -0.4736 0.7627
vn -0.3901 0.6255 0.6756
vn -0.4700 0.3407 0.8142
vn -0.2702 -0.8413 0.4681
vn 0.0000 1.0000 0.0000
vn -0.6594 0.6482 0.3807
vn -0.8660 0.0002 0.5000
vn -0.7627 -0.4736 0.4404
vn -0.8142 0.3407 0.4700
vn -0.4550 -0.8509 0.2627
vn -0.7802 0.6255 0.0000
vn -0.6594 0.6482 -0.3807
vn -1.0000 0.0002 0.0000
vn -0.8807 -0.4736 0.0000
vn -0.9401 0.3407 0.0000
vn -0.5405 -0.8413 0.0000
vn -0.8142 0.3407 -0.4700
vn -0.7627 -0.4736 -0.4404
vn -0.4550 -0.8509 -0.2627
vn -0.8660 0.0002 -0.5000
vn -0.4404 -0.4736 -0.7627
vn -0.2702 -0.8413 -0.4681
vn -0.4700 0.3407 -0.8142
vn -0.5000 0.0002 -0.8660
vn -0.3901 0.6255 -0.6756
usemtl Egg
s 1
f 61/1/1 60/2/2 3/3/3 4/4/4
f 2/5/5 62/6/6 6/7/7 7/8/8
f 1/9/9 61/1/1 4/4/4 5/10/10
f 62/6/6 1/9/9 5/10/10 6/7/7
f 7/8/8 6/7/7 12/11/11 13/12/12
f 5/10/10 4/4/4 10/13/13 11/14/14
f 6/7/7 5/10/10 11/14/14 12/11/11
f 4/4/4 3/3/3 9/15/15 10/13/13
f 13/12/12 12/11/11 17/16/16 18/17/17
f 11/14/14 10/13/13 15/18/18 16/19/19
f 12/11/11 11/14/14 16/19/19 17/16/16
f 10/13/13 9/15/15 14/20/20 15/18/18
f 16/19/19 15/18/18 20/21/21 21/22/22
f 17/16/16 16/19/19 21/22/22 22/23/23
f 15/18/18 14/20/20 19/24/24 20/21/21
f 18/17/17 17/16/16 22/23/23 23/25/25
f 22/23/23 21/22/22 26/26/26 27/27/27
f 20/21/21 19/24/24 24/28/28 25/29/29
f 23/25/25 22/23/23 27/27/27 28/30/30
f 21/22/22 20/21/21 25/29/29 26/26/26
f 27/27/27 26/26/26 31/31/31 32/32/32
f 25/29/29 24/28/28 29/33/33 30/34/34
f 28/30/30 27/27/27 32/32/32 33/35/35
f 26/26/26 25/29/29 30/34/34 31/31/31
f 13/12/12 18/17/17 23/25/25 34/36/36
f 32/32/32 31/31/31 37/37/37 38/38/38
f 30/34/34 29/33/33 35/39/39 36/40/40
f 33/35/35 32/32/32 38/38/38 39/41/41
f 31/31/31 30/34/34 36/40/40 37/37/37
f 35/39/39 29/33/33 8/42/42 40/43/43
f 38/38/38 37/37/37 42/44/44 43/45/45
f 36/40/40 35/39/39 40/43/43 41/46/46
f 39/41/41 38/38/38 43/45/45 44/47/47
f 37/37/37 36/40/40 41/46/46 42/44/44
f 45/48/48 40/43/43 8/42/42 50/49/49
f 43/45/45 42/44/44 47/50/50 48/51/51
f 41/46/46 40/43/43 45/52/48 46/53/52
f 44/47/47 43/45/45 48/51/51 49/54/53
f 42/44/44 41/46/46 46/53/52 47/50/50
f 9/15/15 8/42/42 19/24/24 14/20/20
f 34/36/36 33/35/35 39/41/41 44/47/47
f 46/55/52 45/48/48 50/49/49 51/56/54
f 49/57/53 48/58/51 53/59/55 54/60/56
f 47/61/50 46/55/52 51/56/54 52/62/57
f 24/28/28 19/24/24 8/42/42 29/33/33
f 23/25/25 28/30/30 33/35/35 34/36/36
f 48/58/51 47/61/50 52/62/57 53/59/55
f 54/60/56 53/59/55 58/63/58 59/64/59
f 52/62/57 51/56/54 56/65/60 57/66/61
f 55/67/62 50/49/49 8/42/42 60/2/2
f 54/60/56 59/64/59 2/5/5 34/36/36
f 53/59/55 52/62/57 57/66/61 58/63/58
f 51/56/54 50/49/49 55/67/62 56/65/60
f 59/64/59 58/63/58 62/6/6 2/5/5
f 57/66/61 56/65/60 61/1/1 1/9/9
f 9/15/15 3/3/3 60/2/2 8/42/42
f 44/47/47 49/57/53 54/60/56 34/36/36
f 58/63/58 57/66/61 1/9/9 62/6/6
f 56/65/60 55/67/62 60/2/2 61/1/1
f 2/5/5 7/8/8 13/12/12 34/36/36
