# Blender v2.91.0 OBJ File: 'snowballs.blend'
# www.blender.org
mtllib egg_voxel.mtl
o Sphere.003_Sphere.005
v -0.134084 -0.132593 0.026817
v -0.134084 -0.078959 0.080450
v -0.134084 -0.025326 0.080450
v -0.134084 -0.078959 0.026817
v -0.134084 -0.025326 0.026817
v -0.026817 -0.132593 0.134084
v -0.080450 -0.078959 0.134084
v -0.080450 -0.025326 0.134084
v -0.026817 -0.078959 0.134084
v -0.026817 -0.025326 0.134084
v -0.080450 -0.132593 0.080450
v -0.080450 -0.132593 0.026817
v -0.026817 -0.186226 0.080450
v -0.026817 -0.132593 0.080450
v -0.026817 -0.186226 0.026817
v -0.026817 -0.132593 0.026817
v -0.080450 -0.078959 0.080450
v -0.080450 -0.025326 0.080450
v -0.080450 -0.078959 0.026817
v -0.080450 -0.025326 0.026817
v -0.026817 -0.078959 0.080450
v -0.026817 -0.025326 0.080450
v -0.134084 0.028308 0.026817
v -0.026817 0.028308 0.134084
v -0.080450 0.028308 0.080450
v -0.080450 0.081941 0.080450
v -0.080450 0.028308 0.026817
v -0.080450 0.081941 0.026817
v -0.026817 0.028308 0.080450
v -0.026817 0.081941 0.080450
v -0.026817 0.081941 0.026817
v -0.080450 0.135575 0.026817
v -0.026817 0.135575 0.080450
v -0.026817 0.135575 0.026817
v -0.026817 0.189208 0.026817
v -0.134084 -0.132593 -0.026817
v -0.134084 -0.078959 -0.026817
v -0.134084 -0.025326 -0.026817
v -0.134084 -0.078959 -0.080450
v -0.134084 -0.025326 -0.080450
v -0.080450 -0.132593 -0.026817
v -0.080450 -0.132593 -0.080450
v -0.026817 -0.186226 -0.026817
v -0.026817 -0.132593 -0.026817
v -0.026817 -0.186226 -0.080450
v -0.026817 -0.132593 -0.080450
v -0.080450 -0.078959 -0.026817
v -0.080450 -0.025326 -0.026817
v -0.080450 -0.078959 -0.080450
v -0.080450 -0.025326 -0.080450
v -0.026817 -0.078959 -0.080450
v -0.026817 -0.025326 -0.080450
v -0.026817 -0.132593 -0.134084
v -0.080450 -0.078959 -0.134084
v -0.080450 -0.025326 -0.134084
v -0.026817 -0.078959 -0.134084
v -0.026817 -0.025326 -0.134084
v -0.134084 0.028308 -0.026817
v -0.080450 0.028308 -0.026817
v -0.080450 0.081941 -0.026817
v -0.080450 0.028308 -0.080450
v -0.080450 0.081941 -0.080450
v -0.026817 0.081941 -0.026817
v -0.026817 0.028308 -0.080450
v -0.026817 0.081941 -0.080450
v -0.080450 0.135575 -0.026817
v -0.026817 0.135575 -0.026817
v -0.026817 0.189208 -0.026817
v -0.026817 0.135575 -0.080450
v -0.026817 0.028308 -0.134084
v 0.026817 -0.132593 0.134084
v 0.026817 -0.078959 0.134084
v 0.026817 -0.025326 0.134084
v 0.080450 -0.078959 0.134084
v 0.080450 -0.025326 0.134084
v 0.026817 -0.186226 0.080450
v 0.026817 -0.132593 0.080450
v 0.026817 -0.186226 0.026817
v 0.026817 -0.132593 0.026817
v 0.080450 -0.132593 0.080450
v 0.080450 -0.132593 0.026817
v 0.026817 -0.078959 0.080450
v 0.026817 -0.025326 0.080450
v 0.080450 -0.078959 0.080450
v 0.080450 -0.025326 0.080450
v 0.080450 -0.078959 0.026817
v 0.080450 -0.025326 0.026817
v 0.134084 -0.132593 0.026817
v 0.134084 -0.078959 0.080450
v 0.134084 -0.025326 0.080450
v 0.134084 -0.078959 0.026817
v 0.134084 -0.025326 0.026817
v 0.026817 0.028308 0.134084
v 0.026817 0.028308 0.080450
v 0.026817 0.081941 0.080450
v 0.026817 0.081941 0.026817
v 0.080450 0.028308 0.080450
v 0.080450 0.081941 0.080450
v 0.080450 0.028308 0.026817
v 0.080450 0.081941 0.026817
v 0.026817 0.135575 0.080450
v 0.026817 0.135575 0.026817
v 0.026817 0.189208 0.026817
v 0.080450 0.135575 0.026817
v 0.134084 0.028308 0.026817
v 0.026817 -0.186226 -0.026817
v 0.026817 -0.132593 -0.026817
v 0.026817 -0.186226 -0.080450
v 0.026817 -0.132593 -0.080450
v 0.080450 -0.132593 -0.026817
v 0.080450 -0.132593 -0.080450
v 0.026817 -0.078959 -0.080450
v 0.026817 -0.025326 -0.080450
v 0.080450 -0.078959 -0.026817
v 0.080450 -0.025326 -0.026817
v 0.080450 -0.078959 -0.080450
v 0.080450 -0.025326 -0.080450
v 0.026817 -0.132593 -0.134084
v 0.026817 -0.078959 -0.134084
v 0.026817 -0.025326 -0.134084
v 0.080450 -0.078959 -0.134084
v 0.080450 -0.025326 -0.134084
v 0.134084 -0.132593 -0.026817
v 0.134084 -0.078959 -0.026817
v 0.134084 -0.025326 -0.026817
v 0.134084 -0.078959 -0.080450
v 0.134084 -0.025326 -0.080450
v 0.026817 0.081941 -0.026817
v 0.026817 0.028308 -0.080450
v 0.026817 0.081941 -0.080450
v 0.080450 0.028308 -0.026817
v 0.080450 0.081941 -0.026817
v 0.080450 0.028308 -0.080450
v 0.080450 0.081941 -0.080450
v 0.026817 0.135575 -0.026817
v 0.026817 0.189208 -0.026817
v 0.026817 0.135575 -0.080450
v 0.080450 0.135575 -0.026817
v 0.026817 0.028308 -0.134084
v 0.134084 0.028308 -0.026817
vt 0.253705 0.493554
vt 0.253705 0.557104
vt 0.315271 0.557104
vt 0.315271 0.493554
vt 0.253705 0.493554
vt 0.315271 0.493554
vt 0.315271 0.557104
vt 0.253705 0.557104
vt 0.253705 0.366453
vt 0.253705 0.430003
vt 0.315271 0.430003
vt 0.315271 0.366453
vt 0.190228 0.433863
vt 0.190228 0.497413
vt 0.251794 0.497413
vt 0.251794 0.433863
vt 0.192138 0.433983
vt 0.253705 0.433983
vt 0.253705 0.497534
vt 0.192138 0.497534
vt 0.065185 0.498316
vt 0.065185 0.561867
vt 0.126752 0.561867
vt 0.126752 0.498316
vt 0.190228 0.433863
vt 0.190228 0.497413
vt 0.128662 0.497413
vt 0.128662 0.433863
vt 0.192138 0.433983
vt 0.192138 0.497534
vt 0.126752 0.434766
vt 0.188318 0.498316
vt 0.188318 0.434766
vt 0.251794 0.370313
vt 0.251794 0.433863
vt 0.190228 0.370313
vt 0.253705 0.370433
vt 0.315271 0.433983
vt 0.315271 0.370433
vt 0.315271 0.370433
vt 0.315271 0.433983
vt 0.192138 0.430003
vt 0.192138 0.493554
vt 0.253705 0.493554
vt 0.192138 0.430003
vt 0.253705 0.430003
vt 0.253705 0.493554
vt 0.192138 0.493554
vt 0.253705 0.561084
vt 0.253705 0.624634
vt 0.315271 0.624634
vt 0.315271 0.561084
vt 0.315271 0.561084
vt 0.315271 0.624634
vt 0.378748 0.429957
vt 0.378748 0.493507
vt 0.317181 0.493507
vt 0.317181 0.429957
vt 0.253705 0.684205
vt 0.253705 0.747755
vt 0.315271 0.747755
vt 0.315271 0.684205
vt 0.253705 0.684205
vt 0.253705 0.747755
vt 0.376837 0.493554
vt 0.376837 0.557104
vt 0.438404 0.557104
vt 0.438404 0.493554
vt 0.376837 0.366453
vt 0.376837 0.430003
vt 0.438404 0.430003
vt 0.438404 0.366453
vt 0.190228 0.560964
vt 0.190228 0.624514
vt 0.251794 0.624514
vt 0.251794 0.560964
vt 0.253705 0.557104
vt 0.315271 0.557104
vt 0.315271 0.493554
vt 0.253705 0.493554
vt 0.192138 0.557104
vt 0.253705 0.557104
vt 0.253705 0.493554
vt 0.192138 0.493554
vt 0.130615 0.500417
vt 0.130615 0.563967
vt 0.192181 0.563967
vt 0.192181 0.500417
vt 0.190228 0.563893
vt 0.190228 0.627444
vt 0.128662 0.627444
vt 0.128662 0.563893
vt 0.438404 0.433983
vt 0.438404 0.497534
vt 0.499970 0.497534
vt 0.499970 0.433983
vt 0.192181 0.627518
vt 0.253748 0.627518
vt 0.253748 0.563967
vt 0.251794 0.627444
vt 0.251794 0.690994
vt 0.190228 0.690994
vt 0.376837 0.370433
vt 0.376837 0.433983
vt 0.438404 0.370433
vt 0.315271 0.493554
vt 0.315271 0.430003
vt 0.253705 0.430003
vt 0.438404 0.493554
vt 0.499970 0.493554
vt 0.499970 0.430003
vt 0.192138 0.493554
vt 0.253705 0.493554
vt 0.253705 0.430003
vt 0.192138 0.430003
vt 0.376837 0.561084
vt 0.376837 0.624634
vt 0.438404 0.624634
vt 0.438404 0.561084
vt 0.253705 0.684205
vt 0.315271 0.684205
vt 0.315271 0.620654
vt 0.253705 0.620654
vt 0.252771 0.561940
vt 0.252771 0.625491
vt 0.191205 0.625491
vt 0.191205 0.561940
vt 0.376837 0.684205
vt 0.376837 0.747755
vt 0.438404 0.747755
vt 0.438404 0.684205
vt 0.253705 0.747755
vt 0.315271 0.747755
vt 0.315271 0.684205
vt 0.253705 0.684205
vt 0.376837 0.493554
vt 0.438404 0.493554
vt 0.438404 0.557104
vt 0.376837 0.557104
vt 0.315271 0.366453
vt 0.315271 0.430003
vt 0.253705 0.430003
vt 0.253705 0.366453
vt 0.313361 0.433863
vt 0.313361 0.497413
vt 0.374927 0.497413
vt 0.374927 0.433863
vt 0.315271 0.493554
vt 0.315271 0.557104
vt 0.253705 0.557104
vt 0.253705 0.493554
vt 0.438404 0.433983
vt 0.499970 0.433983
vt 0.499970 0.497534
vt 0.438404 0.497534
vt 0.499927 0.429957
vt 0.499927 0.493507
vt 0.561493 0.493507
vt 0.561493 0.429957
vt 0.562470 0.430933
vt 0.562470 0.494484
vt 0.500904 0.494484
vt 0.500904 0.430933
vt 0.253705 0.493554
vt 0.253705 0.557104
vt 0.192138 0.557104
vt 0.192138 0.493554
vt 0.438361 0.366406
vt 0.438361 0.429957
vt 0.499927 0.366406
vt 0.500904 0.367383
vt 0.439337 0.430933
vt 0.439337 0.367383
vt 0.315271 0.430003
vt 0.315271 0.493554
vt 0.253705 0.430003
vt 0.376837 0.370433
vt 0.438404 0.370433
vt 0.376837 0.433983
vt 0.253705 0.493554
vt 0.192138 0.493554
vt 0.192138 0.430003
vt 0.438404 0.430003
vt 0.499970 0.430003
vt 0.499970 0.493554
vt 0.438404 0.493554
vt 0.315271 0.620654
vt 0.315271 0.684205
vt 0.253705 0.684205
vt 0.253705 0.620654
vt 0.376837 0.561084
vt 0.438404 0.561084
vt 0.438404 0.624634
vt 0.376837 0.624634
vt 0.497974 0.493433
vt 0.497974 0.556984
vt 0.436408 0.556984
vt 0.436408 0.493433
vt 0.315271 0.684205
vt 0.315271 0.747755
vt 0.253705 0.747755
vt 0.253705 0.684205
vt 0.376837 0.684205
vt 0.438404 0.684205
vt 0.438404 0.747755
vt 0.376837 0.747755
vt 0.438404 0.366453
vt 0.438404 0.430003
vt 0.376837 0.430003
vt 0.376837 0.366453
vt 0.313361 0.560964
vt 0.313361 0.624514
vt 0.374927 0.624514
vt 0.374927 0.560964
vt 0.376837 0.557104
vt 0.438404 0.557104
vt 0.438404 0.493554
vt 0.376837 0.493554
vt 0.438404 0.493554
vt 0.438404 0.557104
vt 0.376837 0.557104
vt 0.376837 0.493554
vt 0.438404 0.557104
vt 0.499970 0.557104
vt 0.499970 0.493554
vt 0.438404 0.493554
vt 0.500904 0.559011
vt 0.500904 0.622561
vt 0.562470 0.622561
vt 0.562470 0.559011
vt 0.500946 0.559987
vt 0.500946 0.623538
vt 0.439380 0.623538
vt 0.439380 0.559987
vt 0.499970 0.493554
vt 0.499970 0.557104
vt 0.439337 0.622561
vt 0.439337 0.686111
vt 0.500904 0.686111
vt 0.439380 0.687088
vt 0.377814 0.687088
vt 0.377814 0.623538
vt 0.438404 0.430003
vt 0.376837 0.493554
vt 0.376837 0.430003
vt 0.376837 0.493554
vt 0.376837 0.430003
vt 0.499970 0.430003
vt 0.499970 0.493554
vt 0.438404 0.493554
vt 0.438404 0.493554
vt 0.499970 0.493554
vt 0.499970 0.430003
vt 0.438404 0.430003
vt 0.438404 0.620654
vt 0.438404 0.684205
vt 0.376837 0.684205
vt 0.376837 0.620654
vt 0.376837 0.684205
vt 0.376837 0.620654
vt 0.439380 0.558034
vt 0.439380 0.621584
vt 0.377814 0.621584
vt 0.377814 0.558034
vt 0.438404 0.684205
vt 0.438404 0.747755
vt 0.376837 0.747755
vt 0.376837 0.684205
vt 0.438404 0.747755
vt 0.438404 0.684205
vt 0.315271 0.306883
vt 0.376837 0.306883
vt 0.316248 0.430933
vt 0.316248 0.494484
vt 0.377814 0.494484
vt 0.377814 0.430933
vt 0.315271 0.430003
vt 0.376837 0.430003
vt 0.251794 0.370313
vt 0.313361 0.370313
vt 0.376837 0.811305
vt 0.315271 0.811305
vt 0.375861 0.432887
vt 0.375861 0.496437
vt 0.314294 0.496437
vt 0.314294 0.432887
vt 0.376837 0.688185
vt 0.315271 0.688185
vt 0.376837 0.369336
vt 0.376837 0.432887
vt 0.315271 0.432887
vt 0.315271 0.369336
vt 0.376837 0.366453
vt 0.315271 0.366453
vt 0.316248 0.558034
vt 0.316248 0.621584
vt 0.377814 0.621584
vt 0.377814 0.558034
vt 0.376837 0.430003
vt 0.315271 0.430003
vt 0.251794 0.688065
vt 0.313361 0.688065
vt 0.315271 0.811305
vt 0.376837 0.811305
vt 0.375861 0.559987
vt 0.375861 0.623538
vt 0.314294 0.623538
vt 0.314294 0.559987
vt 0.315271 0.747755
vt 0.376837 0.747755
vt 0.316290 0.622561
vt 0.316290 0.686111
vt 0.254724 0.686111
vt 0.254724 0.622561
vt 0.315271 0.430003
vt 0.376837 0.430003
vt 0.128662 0.497413
vt 0.128662 0.560964
vt 0.376837 0.430003
vt 0.315271 0.430003
vt 0.436493 0.560964
vt 0.436493 0.497413
vt 0.376837 0.811305
vt 0.252728 0.559987
vt 0.252728 0.496437
vt 0.315271 0.688185
vt 0.376837 0.688185
vt 0.188275 0.500343
vt 0.188275 0.563893
vt 0.126709 0.563893
vt 0.126709 0.500343
vt 0.315271 0.811305
vt 0.437427 0.496437
vt 0.437427 0.559987
vt 0.376837 0.747755
vt 0.315271 0.747755
vt 0.563446 0.494484
vt 0.563446 0.558034
vt 0.501880 0.558034
vt 0.501880 0.494484
vt 0.315271 0.497534
vt 0.315271 0.497534
vt 0.192138 0.557104
vt 0.192138 0.620654
vt 0.253705 0.620654
vt 0.253705 0.557104
vt 0.192138 0.557104
vt 0.253705 0.557104
vt 0.253705 0.620654
vt 0.192138 0.620654
vt 0.376837 0.497534
vt 0.315271 0.557104
vt 0.438404 0.557104
vt 0.438404 0.620654
vt 0.499970 0.620654
vt 0.499970 0.557104
vt 0.192138 0.620654
vt 0.253705 0.620654
vt 0.253705 0.557104
vt 0.192138 0.557104
vt 0.315271 0.557104
vt 0.376837 0.497534
vt 0.253705 0.557104
vt 0.253705 0.620654
vt 0.192138 0.620654
vt 0.192138 0.557104
vt 0.438404 0.557104
vt 0.499970 0.557104
vt 0.499970 0.620654
vt 0.438404 0.620654
vt 0.376837 0.557104
vt 0.376837 0.557104
vt 0.499970 0.557104
vt 0.499970 0.620654
vt 0.438404 0.620654
vt 0.438404 0.557104
vt 0.438404 0.620654
vt 0.499970 0.620654
vt 0.499970 0.557104
vt 0.438404 0.557104
vt 0.315271 0.620654
vt 0.376837 0.620654
vt 0.376837 0.620654
vt 0.315271 0.620654
vt 0.376837 0.620654
vt 0.315271 0.620654
vt 0.315271 0.620654
vt 0.376837 0.620654
vt 0.438361 0.495460
vt 0.438361 0.559011
vt 0.376794 0.559011
vt 0.376794 0.495460
vn -1.0000 0.0000 0.0000
vn 0.0000 0.0000 1.0000
vn 0.0000 -1.0000 0.0000
vn 0.0000 1.0000 0.0000
vn 0.0000 0.0000 -1.0000
vn 1.0000 0.0000 0.0000
usemtl Egg
s off
f 2/1/1 3/2/1 5/3/1 4/4/1
f 7/5/2 9/6/2 10/7/2 8/8/2
f 13/9/1 14/10/1 16/11/1 15/12/1
f 11/13/3 12/14/3 16/15/3 14/16/3
f 2/17/2 17/18/2 18/19/2 3/20/2
f 2/21/3 4/22/3 19/23/3 17/24/3
f 18/25/4 20/26/4 5/27/4 3/28/4
f 7/29/1 8/30/1 18/19/1 17/18/1
f 7/31/3 17/24/3 21/32/3 9/33/3
f 10/34/4 22/35/4 18/25/4 8/36/4
f 11/37/1 17/18/1 19/38/1 12/39/1
f 11/37/2 14/40/2 21/41/2 17/18/2
f 6/42/1 9/43/1 21/44/1 14/10/1
f 1/45/2 12/46/2 19/47/2 4/48/2
f 25/49/1 26/50/1 28/51/1 27/52/1
f 25/49/2 29/53/2 30/54/2 26/50/2
f 30/55/4 31/56/4 28/57/4 26/58/4
f 30/59/1 33/60/1 34/61/1 31/62/1
f 28/63/2 31/62/2 34/61/2 32/64/2
f 37/65/1 38/66/1 40/67/1 39/68/1
f 43/69/1 44/70/1 46/71/1 45/72/1
f 41/73/3 42/74/3 46/75/3 44/76/3
f 55/77/5 57/78/5 56/79/5 54/80/5
f 40/81/5 50/82/5 49/83/5 39/84/5
f 37/85/3 39/86/3 49/87/3 47/88/3
f 48/89/4 50/90/4 40/91/4 38/92/4
f 49/93/1 50/94/1 55/95/1 54/96/1
f 49/87/3 54/97/3 56/98/3 51/99/3
f 52/100/4 57/101/4 55/102/4 50/90/4
f 41/103/1 47/104/1 49/93/1 42/105/1
f 49/83/5 51/106/5 46/107/5 42/108/5
f 46/71/1 51/109/1 56/110/1 53/111/1
f 37/112/5 47/113/5 41/114/5 36/115/5
f 59/116/1 60/117/1 62/118/1 61/119/1
f 62/120/5 65/121/5 64/122/5 61/123/5
f 63/124/4 65/125/4 62/126/4 60/127/4
f 63/128/1 67/129/1 69/130/1 65/131/1
f 66/132/5 67/133/5 63/134/5 60/135/5
f 72/136/2 74/137/2 75/138/2 73/139/2
f 78/140/6 79/141/6 77/142/6 76/143/6
f 77/144/3 79/145/3 81/146/3 80/147/3
f 91/148/6 92/149/6 90/150/6 89/151/6
f 84/152/2 89/153/2 90/154/2 85/155/2
f 84/156/3 86/157/3 91/158/3 89/159/3
f 90/160/4 92/161/4 87/162/4 85/163/4
f 84/164/6 85/165/6 75/166/6 74/167/6
f 72/168/3 82/169/3 84/156/3 74/170/3
f 75/171/4 85/163/4 83/172/4 73/173/4
f 81/174/6 86/175/6 84/164/6 80/176/6
f 77/177/2 80/178/2 84/152/2 82/179/2
f 77/142/6 82/180/6 72/181/6 71/182/6
f 81/183/2 88/184/2 91/185/2 86/186/2
f 99/187/6 100/188/6 98/189/6 97/190/6
f 94/191/2 97/192/2 98/193/2 95/194/2
f 98/195/4 100/196/4 96/197/4 95/198/4
f 96/199/6 102/200/6 101/201/6 95/202/6
f 96/203/2 100/204/2 104/205/2 102/206/2
f 108/207/6 109/208/6 107/209/6 106/210/6
f 107/211/3 109/212/3 111/213/3 110/214/3
f 120/215/5 122/216/5 121/217/5 119/218/5
f 126/219/6 127/220/6 125/221/6 124/222/6
f 117/223/5 127/224/5 126/225/5 116/226/5
f 114/227/3 116/228/3 126/229/3 124/230/3
f 125/231/4 127/232/4 117/233/4 115/234/4
f 121/235/6 122/236/6 117/223/6 116/226/6
f 112/237/3 119/238/3 121/239/3 116/228/3
f 117/233/4 122/240/4 120/241/4 113/242/4
f 111/243/6 116/226/6 114/244/6 110/245/6
f 112/246/5 116/226/5 111/243/5 109/247/5
f 118/248/6 119/249/6 112/250/6 109/208/6
f 114/251/5 124/252/5 123/253/5 110/254/5
f 133/255/6 134/256/6 132/257/6 131/258/6
f 130/259/5 134/256/5 133/255/5 129/260/5
f 132/261/4 134/262/4 130/263/4 128/264/4
f 130/265/6 137/266/6 135/267/6 128/268/6
f 135/267/5 138/269/5 132/270/5 128/268/5
f 9/6/2 72/136/2 73/139/2 10/7/2
f 13/271/2 76/272/2 77/177/2 14/40/2
f 13/273/3 15/274/3 78/275/3 76/276/3
f 6/277/2 71/278/2 72/136/2 9/6/2
f 6/279/3 14/16/3 77/144/3 71/280/3
f 29/53/2 94/191/2 95/194/2 30/54/2
f 34/61/2 102/206/2 103/281/2 35/282/2
f 101/283/4 102/284/4 34/285/4 33/286/4
f 30/54/2 95/194/2 101/287/2 33/288/2
f 93/289/4 94/290/4 29/291/4 24/292/4
f 46/107/5 109/247/5 108/293/5 45/294/5
f 43/295/3 45/296/3 108/297/3 106/298/3
f 57/78/5 120/215/5 119/218/5 56/79/5
f 56/79/5 119/218/5 118/299/5 53/300/5
f 46/75/3 53/301/3 118/302/3 109/212/3
f 65/121/5 130/259/5 129/260/5 64/122/5
f 68/303/5 136/304/5 135/267/5 67/133/5
f 135/305/4 137/306/4 69/307/4 67/308/4
f 69/309/5 137/310/5 130/259/5 65/121/5
f 129/311/4 139/312/4 70/313/4 64/314/4
f 15/12/1 16/11/1 44/70/1 43/69/1
f 12/14/3 41/73/3 44/76/3 16/15/3
f 4/4/1 5/3/1 38/66/1 37/65/1
f 1/315/1 4/4/1 37/65/1 36/316/1
f 1/317/3 36/318/3 41/73/3 12/14/3
f 106/210/6 107/209/6 79/141/6 78/140/6
f 79/145/3 107/211/3 110/214/3 81/146/3
f 124/222/6 125/221/6 92/149/6 91/148/6
f 123/319/6 124/222/6 91/148/6 88/320/6
f 81/146/3 110/214/3 123/321/3 88/322/3
f 27/52/1 28/51/1 60/117/1 59/116/1
f 34/61/1 35/282/1 68/323/1 67/129/1
f 34/285/4 67/308/4 66/324/4 32/325/4
f 28/51/1 32/326/1 66/327/1 60/117/1
f 27/328/4 59/329/4 58/330/4 23/331/4
f 131/258/6 132/257/6 100/188/6 99/187/6
f 135/267/6 136/304/6 103/332/6 102/200/6
f 104/333/4 138/334/4 135/305/4 102/284/4
f 132/257/6 138/335/6 104/336/6 100/188/6
f 105/337/4 140/338/4 131/339/4 99/340/4
f 18/19/1 25/49/1 27/52/1 20/341/1
f 18/19/2 22/342/2 29/53/2 25/49/2
f 10/343/1 24/344/1 29/345/1 22/346/1
f 5/347/2 20/348/2 27/349/2 23/350/2
f 48/351/1 59/116/1 61/119/1 50/94/1
f 61/123/5 64/122/5 52/352/5 50/82/5
f 52/353/1 64/354/1 70/355/1 57/356/1
f 58/357/5 59/358/5 48/359/5 38/360/5
f 87/361/6 99/187/6 97/190/6 85/165/6
f 83/362/2 85/155/2 97/192/2 94/191/2
f 83/363/6 94/364/6 93/365/6 73/366/6
f 87/367/2 92/368/2 105/369/2 99/370/2
f 117/223/6 133/255/6 131/258/6 115/371/6
f 129/260/5 133/255/5 117/223/5 113/372/5
f 120/373/6 139/374/6 129/375/6 113/376/6
f 131/377/5 140/378/5 125/379/5 115/380/5
f 5/3/1 23/381/1 58/382/1 38/66/1
f 125/221/6 140/383/6 105/384/6 92/149/6
f 10/7/2 73/139/2 93/385/2 24/386/2
f 70/387/5 139/388/5 120/215/5 57/78/5
f 15/274/3 43/295/3 106/298/3 78/275/3
f 103/389/4 136/390/4 68/391/4 35/392/4
