# Blender v2.91.0 OBJ File: 'snowballs.blend'
# www.blender.org
mtllib enderpearl_voxel.mtl
o Cube.003_Cube.347
v -0.145828 -0.029166 0.145828
v -0.145828 -0.145828 0.029166
v -0.204159 -0.029166 0.029166
v -0.145828 -0.087497 0.087497
v -0.145828 -0.029166 0.087497
v -0.145828 -0.087497 0.029166
v -0.145828 -0.029166 0.029166
v -0.029166 -0.145828 0.145828
v -0.087497 -0.087497 0.145828
v -0.087497 -0.029166 0.145828
v -0.029166 -0.029166 0.204159
v -0.029166 -0.087497 0.145828
v -0.029166 -0.029166 0.145828
v -0.087497 -0.145828 0.087497
v -0.087497 -0.145828 0.029166
v -0.029166 -0.145828 0.087497
v -0.029166 -0.204159 0.029166
v -0.029166 -0.145828 0.029166
v -0.087497 -0.087497 0.087497
v -0.087497 -0.029166 0.087497
v -0.087497 -0.087497 0.029166
v -0.029166 -0.087497 0.087497
v -0.145828 0.029166 0.145828
v -0.204159 0.029166 0.029166
v -0.145828 0.029166 0.087497
v -0.145828 0.087497 0.087497
v -0.145828 0.029166 0.029166
v -0.145828 0.087497 0.029166
v -0.145828 0.145828 0.029166
v -0.087497 0.029166 0.145828
v -0.087497 0.087497 0.145828
v -0.029166 0.029166 0.204159
v -0.029166 0.029166 0.145828
v -0.029166 0.087497 0.145828
v -0.029166 0.145828 0.145828
v -0.087497 0.029166 0.087497
v -0.087497 0.087497 0.087497
v -0.087497 0.087497 0.029166
v -0.029166 0.087497 0.087497
v -0.087497 0.145828 0.087497
v -0.087497 0.145828 0.029166
v -0.029166 0.145828 0.087497
v -0.029166 0.145828 0.029166
v -0.029166 0.204159 0.029166
v -0.145828 -0.145828 -0.029166
v -0.204159 -0.029166 -0.029166
v -0.145828 -0.087497 -0.029166
v -0.145828 -0.029166 -0.029166
v -0.145828 -0.087497 -0.087497
v -0.145828 -0.029166 -0.087497
v -0.145828 -0.029166 -0.145828
v -0.087497 -0.145828 -0.029166
v -0.087497 -0.145828 -0.087497
v -0.029166 -0.204159 -0.029166
v -0.029166 -0.145828 -0.029166
v -0.029166 -0.145828 -0.087497
v -0.087497 -0.087497 -0.029166
v -0.087497 -0.087497 -0.087497
v -0.087497 -0.029166 -0.087497
v -0.029166 -0.087497 -0.087497
v -0.029166 -0.145828 -0.145828
v -0.087497 -0.087497 -0.145828
v -0.087497 -0.029166 -0.145828
v -0.029166 -0.087497 -0.145828
v -0.029166 -0.029166 -0.145828
v -0.029166 -0.029166 -0.204159
v -0.204159 0.029166 -0.029166
v -0.145828 0.029166 -0.029166
v -0.145828 0.087497 -0.029166
v -0.145828 0.029166 -0.087497
v -0.145828 0.087497 -0.087497
v -0.145828 0.145828 -0.029166
v -0.145828 0.029166 -0.145828
v -0.087497 0.087497 -0.029166
v -0.087497 0.029166 -0.087497
v -0.087497 0.087497 -0.087497
v -0.029166 0.087497 -0.087497
v -0.087497 0.145828 -0.029166
v -0.087497 0.145828 -0.087497
v -0.029166 0.145828 -0.029166
v -0.029166 0.204159 -0.029166
v -0.029166 0.145828 -0.087497
v -0.087497 0.029166 -0.145828
v -0.087497 0.087497 -0.145828
v -0.029166 0.029166 -0.145828
v -0.029166 0.087497 -0.145828
v -0.029166 0.029166 -0.204159
v -0.029166 0.145828 -0.145828
v 0.029166 -0.145828 0.145828
v 0.029166 -0.029166 0.204159
v 0.029166 -0.087497 0.145828
v 0.029166 -0.029166 0.145828
v 0.087497 -0.087497 0.145828
v 0.087497 -0.029166 0.145828
v 0.029166 -0.145828 0.087497
v 0.029166 -0.204159 0.029166
v 0.029166 -0.145828 0.029166
v 0.087497 -0.145828 0.087497
v 0.087497 -0.145828 0.029166
v 0.029166 -0.087497 0.087497
v 0.087497 -0.087497 0.087497
v 0.087497 -0.029166 0.087497
v 0.087497 -0.087497 0.029166
v 0.145828 -0.029166 0.145828
v 0.145828 -0.145828 0.029166
v 0.145828 -0.087497 0.087497
v 0.145828 -0.029166 0.087497
v 0.145828 -0.087497 0.029166
v 0.145828 -0.029166 0.029166
v 0.204159 -0.029166 0.029166
v 0.029166 0.029166 0.204159
v 0.029166 0.029166 0.145828
v 0.029166 0.087497 0.145828
v 0.087497 0.029166 0.145828
v 0.087497 0.087497 0.145828
v 0.029166 0.145828 0.145828
v 0.029166 0.087497 0.087497
v 0.087497 0.029166 0.087497
v 0.087497 0.087497 0.087497
v 0.087497 0.087497 0.029166
v 0.029166 0.145828 0.087497
v 0.029166 0.145828 0.029166
v 0.029166 0.204159 0.029166
v 0.087497 0.145828 0.087497
v 0.087497 0.145828 0.029166
v 0.145828 0.029166 0.145828
v 0.145828 0.029166 0.087497
v 0.145828 0.087497 0.087497
v 0.145828 0.029166 0.029166
v 0.145828 0.087497 0.029166
v 0.204159 0.029166 0.029166
v 0.145828 0.145828 0.029166
v 0.029166 -0.204159 -0.029166
v 0.029166 -0.145828 -0.029166
v 0.029166 -0.145828 -0.087497
v 0.087497 -0.145828 -0.029166
v 0.087497 -0.145828 -0.087497
v 0.029166 -0.087497 -0.087497
v 0.087497 -0.087497 -0.029166
v 0.087497 -0.087497 -0.087497
v 0.087497 -0.029166 -0.087497
v 0.029166 -0.145828 -0.145828
v 0.029166 -0.087497 -0.145828
v 0.029166 -0.029166 -0.145828
v 0.029166 -0.029166 -0.204159
v 0.087497 -0.087497 -0.145828
v 0.087497 -0.029166 -0.145828
v 0.145828 -0.145828 -0.029166
v 0.145828 -0.087497 -0.029166
v 0.145828 -0.029166 -0.029166
v 0.145828 -0.087497 -0.087497
v 0.145828 -0.029166 -0.087497
v 0.204159 -0.029166 -0.029166
v 0.145828 -0.029166 -0.145828
v 0.029166 0.087497 -0.087497
v 0.087497 0.087497 -0.029166
v 0.087497 0.029166 -0.087497
v 0.087497 0.087497 -0.087497
v 0.029166 0.145828 -0.029166
v 0.029166 0.204159 -0.029166
v 0.029166 0.145828 -0.087497
v 0.087497 0.145828 -0.029166
v 0.087497 0.145828 -0.087497
v 0.029166 0.029166 -0.145828
v 0.029166 0.087497 -0.145828
v 0.029166 0.029166 -0.204159
v 0.087497 0.029166 -0.145828
v 0.087497 0.087497 -0.145828
v 0.029166 0.145828 -0.145828
v 0.145828 0.029166 -0.029166
v 0.145828 0.087497 -0.029166
v 0.145828 0.029166 -0.087497
v 0.145828 0.087497 -0.087497
v 0.204159 0.029166 -0.029166
v 0.145828 0.145828 -0.029166
v 0.145828 0.029166 -0.145828
v -0.052085 -0.052085 0.052085
v -0.052085 0.052085 0.052085
v -0.052085 -0.052085 -0.052085
v -0.052085 0.052085 -0.052085
v 0.052085 -0.052085 0.052085
v 0.052085 0.052085 0.052085
v 0.052085 -0.052085 -0.052085
v 0.052085 0.052085 -0.052085
vt 0.621859 0.314891
vt 0.560312 0.314891
vt 0.560312 0.376439
vt 0.621859 0.376439
vt 0.436954 0.312590
vt 0.436954 0.374645
vt 0.499009 0.374645
vt 0.499009 0.312590
vt 0.437564 0.498777
vt 0.499331 0.498777
vt 0.499331 0.437009
vt 0.437564 0.437009
vt 0.374899 0.312590
vt 0.374899 0.374645
vt 0.436954 0.374645
vt 0.436954 0.312590
vt 0.375796 0.498777
vt 0.437564 0.498777
vt 0.437564 0.437009
vt 0.375796 0.437009
vt 0.683407 0.314891
vt 0.621859 0.314891
vt 0.621859 0.376439
vt 0.683407 0.376439
vt 0.437564 0.560544
vt 0.499331 0.560544
vt 0.499331 0.498777
vt 0.621859 0.253343
vt 0.560312 0.253343
vt 0.560312 0.314891
vt 0.436954 0.250535
vt 0.499009 0.312590
vt 0.499009 0.250535
vt 0.683407 0.253343
vt 0.621859 0.253343
vt 0.621859 0.314891
vt 0.683407 0.314891
vt 0.374899 0.250535
vt 0.374899 0.312590
vt 0.436954 0.312590
vt 0.436954 0.250535
vt 0.375796 0.560544
vt 0.437564 0.560544
vt 0.437564 0.498777
vt 0.375796 0.498777
vt 0.621859 0.437987
vt 0.560312 0.437987
vt 0.560312 0.499534
vt 0.621859 0.499534
vt 0.436954 0.436700
vt 0.436954 0.498755
vt 0.499009 0.498755
vt 0.499009 0.436700
vt 0.499331 0.498777
vt 0.437564 0.498777
vt 0.437564 0.437009
vt 0.499331 0.437009
vt 0.374899 0.436700
vt 0.374899 0.498755
vt 0.436954 0.498755
vt 0.436954 0.436700
vt 0.437564 0.498777
vt 0.375796 0.498777
vt 0.375796 0.437009
vt 0.437564 0.437009
vt 0.683407 0.437987
vt 0.621859 0.437987
vt 0.621859 0.499534
vt 0.683407 0.499534
vt 0.499331 0.560544
vt 0.437564 0.560544
vt 0.499331 0.498777
vt 0.560312 0.499534
vt 0.560312 0.561082
vt 0.621859 0.561082
vt 0.436954 0.560810
vt 0.499009 0.560810
vt 0.499009 0.498755
vt 0.683407 0.499534
vt 0.621859 0.499534
vt 0.621859 0.561082
vt 0.683407 0.561082
vt 0.374899 0.498755
vt 0.374899 0.560810
vt 0.436954 0.560810
vt 0.436954 0.498755
vt 0.437564 0.560544
vt 0.375796 0.560544
vt 0.375796 0.498777
vt 0.437564 0.498777
vt 0.498764 0.314891
vt 0.437216 0.314891
vt 0.437216 0.376439
vt 0.498764 0.376439
vt 0.437564 0.375241
vt 0.499331 0.375241
vt 0.499331 0.313474
vt 0.437564 0.313474
vt 0.436954 0.374645
vt 0.436954 0.312590
vt 0.499009 0.312590
vt 0.499009 0.374645
vt 0.374899 0.374645
vt 0.374899 0.312590
vt 0.436954 0.312590
vt 0.436954 0.374645
vt 0.375796 0.375241
vt 0.437564 0.375241
vt 0.437564 0.313474
vt 0.375796 0.313474
vt 0.437216 0.314891
vt 0.375668 0.314891
vt 0.375668 0.376439
vt 0.437216 0.376439
vt 0.499331 0.313474
vt 0.499331 0.251706
vt 0.437564 0.251706
vt 0.498764 0.253343
vt 0.437216 0.253343
vt 0.498764 0.314891
vt 0.436954 0.250535
vt 0.499009 0.250535
vt 0.499009 0.312590
vt 0.437216 0.253343
vt 0.375668 0.253343
vt 0.375668 0.314891
vt 0.437216 0.314891
vt 0.374899 0.312590
vt 0.374899 0.250535
vt 0.436954 0.250535
vt 0.436954 0.312590
vt 0.375796 0.313474
vt 0.437564 0.313474
vt 0.437564 0.251706
vt 0.375796 0.251706
vt 0.498764 0.437987
vt 0.437216 0.437987
vt 0.437216 0.499534
vt 0.498764 0.499534
vt 0.499331 0.375241
vt 0.437564 0.375241
vt 0.437564 0.313474
vt 0.499331 0.313474
vt 0.436954 0.498755
vt 0.436954 0.436700
vt 0.499009 0.436700
vt 0.499009 0.498755
vt 0.374899 0.498755
vt 0.374899 0.436700
vt 0.436954 0.436700
vt 0.436954 0.498755
vt 0.437564 0.375241
vt 0.375796 0.375241
vt 0.375796 0.313474
vt 0.437564 0.313474
vt 0.437216 0.437987
vt 0.375668 0.437987
vt 0.375668 0.499534
vt 0.437216 0.499534
vt 0.499331 0.313474
vt 0.437564 0.251706
vt 0.499331 0.251706
vt 0.498764 0.499534
vt 0.437216 0.561082
vt 0.498764 0.561082
vt 0.436954 0.560810
vt 0.499009 0.498755
vt 0.499009 0.560810
vt 0.437216 0.499534
vt 0.375668 0.499534
vt 0.375668 0.561082
vt 0.437216 0.561082
vt 0.374899 0.560810
vt 0.374899 0.498755
vt 0.436954 0.498755
vt 0.436954 0.560810
vt 0.437564 0.313474
vt 0.375796 0.313474
vt 0.375796 0.251706
vt 0.437564 0.251706
vt 0.561064 0.312590
vt 0.561064 0.374645
vt 0.623119 0.374645
vt 0.623119 0.312590
vt 0.561099 0.498777
vt 0.622866 0.498777
vt 0.622866 0.437009
vt 0.561099 0.437009
vt 0.560312 0.314891
vt 0.621859 0.314891
vt 0.621859 0.376439
vt 0.560312 0.376439
vt 0.623119 0.312590
vt 0.623119 0.374645
vt 0.685174 0.374645
vt 0.685174 0.312590
vt 0.622866 0.498777
vt 0.684634 0.498777
vt 0.684634 0.437009
vt 0.622866 0.437009
vt 0.621859 0.314891
vt 0.683407 0.314891
vt 0.683407 0.376439
vt 0.621859 0.376439
vt 0.561099 0.560544
vt 0.622866 0.560544
vt 0.561099 0.498777
vt 0.560312 0.253343
vt 0.621859 0.253343
vt 0.560312 0.314891
vt 0.561064 0.250535
vt 0.561064 0.312590
vt 0.623119 0.250535
vt 0.621859 0.253343
vt 0.683407 0.253343
vt 0.683407 0.314891
vt 0.621859 0.314891
vt 0.623119 0.250535
vt 0.623119 0.312590
vt 0.685174 0.312590
vt 0.685174 0.250535
vt 0.622866 0.560544
vt 0.684634 0.560544
vt 0.684634 0.498777
vt 0.622866 0.498777
vt 0.561064 0.436700
vt 0.561064 0.498755
vt 0.623119 0.498755
vt 0.623119 0.436700
vt 0.622866 0.498777
vt 0.561099 0.498777
vt 0.561099 0.437009
vt 0.622866 0.437009
vt 0.560312 0.437987
vt 0.621859 0.437987
vt 0.621859 0.499534
vt 0.560312 0.499534
vt 0.623119 0.436700
vt 0.623119 0.498755
vt 0.685174 0.498755
vt 0.685174 0.436700
vt 0.684634 0.498777
vt 0.622866 0.498777
vt 0.622866 0.437009
vt 0.684634 0.437009
vt 0.621859 0.437987
vt 0.683407 0.437987
vt 0.683407 0.499534
vt 0.621859 0.499534
vt 0.622866 0.560544
vt 0.561099 0.560544
vt 0.561099 0.498777
vt 0.560312 0.499534
vt 0.621859 0.561082
vt 0.560312 0.561082
vt 0.561064 0.560810
vt 0.623119 0.560810
vt 0.621859 0.499534
vt 0.683407 0.499534
vt 0.683407 0.561082
vt 0.621859 0.561082
vt 0.623119 0.498755
vt 0.623119 0.560810
vt 0.685174 0.560810
vt 0.685174 0.498755
vt 0.684634 0.560544
vt 0.622866 0.560544
vt 0.622866 0.498777
vt 0.684634 0.498777
vt 0.561099 0.375241
vt 0.622866 0.375241
vt 0.622866 0.313474
vt 0.561099 0.313474
vt 0.561064 0.374645
vt 0.561064 0.312590
vt 0.623119 0.312590
vt 0.623119 0.374645
vt 0.437216 0.314891
vt 0.498764 0.314891
vt 0.498764 0.376439
vt 0.437216 0.376439
vt 0.623119 0.374645
vt 0.623119 0.312590
vt 0.685174 0.312590
vt 0.685174 0.374645
vt 0.622866 0.375241
vt 0.684634 0.375241
vt 0.684634 0.313474
vt 0.622866 0.313474
vt 0.375668 0.314891
vt 0.437216 0.314891
vt 0.437216 0.376439
vt 0.375668 0.376439
vt 0.561099 0.313474
vt 0.622866 0.251706
vt 0.561099 0.251706
vt 0.437216 0.253343
vt 0.498764 0.253343
vt 0.498764 0.314891
vt 0.561064 0.312590
vt 0.561064 0.250535
vt 0.623119 0.250535
vt 0.375668 0.253343
vt 0.437216 0.253343
vt 0.437216 0.314891
vt 0.375668 0.314891
vt 0.623119 0.312590
vt 0.623119 0.250535
vt 0.685174 0.250535
vt 0.685174 0.312590
vt 0.622866 0.313474
vt 0.684634 0.313474
vt 0.684634 0.251706
vt 0.622866 0.251706
vt 0.622866 0.375241
vt 0.561099 0.375241
vt 0.561099 0.313474
vt 0.622866 0.313474
vt 0.561064 0.498755
vt 0.561064 0.436700
vt 0.623119 0.436700
vt 0.623119 0.498755
vt 0.437216 0.437987
vt 0.498764 0.437987
vt 0.498764 0.499534
vt 0.437216 0.499534
vt 0.623119 0.498755
vt 0.623119 0.436700
vt 0.685174 0.436700
vt 0.685174 0.498755
vt 0.684634 0.375241
vt 0.622866 0.375241
vt 0.622866 0.313474
vt 0.684634 0.313474
vt 0.375668 0.437987
vt 0.437216 0.437987
vt 0.437216 0.499534
vt 0.375668 0.499534
vt 0.561099 0.313474
vt 0.561099 0.251706
vt 0.622866 0.251706
vt 0.498764 0.499534
vt 0.498764 0.561082
vt 0.437216 0.561082
vt 0.561064 0.560810
vt 0.561064 0.498755
vt 0.623119 0.560810
vt 0.375668 0.499534
vt 0.437216 0.499534
vt 0.437216 0.561082
vt 0.375668 0.561082
vt 0.623119 0.560810
vt 0.623119 0.498755
vt 0.685174 0.498755
vt 0.685174 0.560810
vt 0.684634 0.313474
vt 0.622866 0.313474
vt 0.622866 0.251706
vt 0.684634 0.251706
vt 0.499331 0.622312
vt 0.561099 0.622312
vt 0.561099 0.560544
vt 0.499331 0.560544
vt 0.499009 0.188480
vt 0.499009 0.250535
vt 0.561064 0.250535
vt 0.561064 0.188480
vt 0.499009 0.250535
vt 0.561064 0.250535
vt 0.499331 0.560544
vt 0.561099 0.560544
vt 0.561099 0.622312
vt 0.499331 0.622312
vt 0.499331 0.560544
vt 0.561099 0.560544
vt 0.499009 0.560810
vt 0.499009 0.622865
vt 0.561064 0.622865
vt 0.561064 0.560810
vt 0.499009 0.560810
vt 0.561064 0.560810
vt 0.561099 0.560544
vt 0.499331 0.560544
vt 0.499009 0.250535
vt 0.499009 0.188480
vt 0.561064 0.188480
vt 0.561064 0.250535
vt 0.499331 0.251706
vt 0.561099 0.251706
vt 0.561099 0.189939
vt 0.499331 0.189939
vt 0.499009 0.250535
vt 0.561064 0.250535
vt 0.561099 0.251706
vt 0.499331 0.251706
vt 0.499009 0.622865
vt 0.499009 0.560810
vt 0.561064 0.560810
vt 0.561064 0.622865
vt 0.561099 0.251706
vt 0.499331 0.251706
vt 0.499331 0.189939
vt 0.561099 0.189939
vt 0.499009 0.560810
vt 0.561064 0.560810
vt 0.499331 0.251706
vt 0.561099 0.251706
vt 0.560312 0.191796
vt 0.498764 0.191796
vt 0.498764 0.253343
vt 0.560312 0.253343
vt 0.314028 0.437009
vt 0.375796 0.437009
vt 0.375796 0.375241
vt 0.314028 0.375241
vt 0.560312 0.253343
vt 0.498764 0.253343
vt 0.375796 0.437009
vt 0.375796 0.375241
vt 0.498764 0.191796
vt 0.560312 0.191796
vt 0.560312 0.253343
vt 0.498764 0.253343
vt 0.684634 0.437009
vt 0.746401 0.437009
vt 0.746401 0.375241
vt 0.684634 0.375241
vt 0.498764 0.253343
vt 0.560312 0.253343
vt 0.684634 0.437009
vt 0.684634 0.375241
vt 0.375796 0.437009
vt 0.314028 0.437009
vt 0.314028 0.375241
vt 0.375796 0.375241
vt 0.560312 0.561082
vt 0.498764 0.561082
vt 0.498764 0.622630
vt 0.560312 0.622630
vt 0.498764 0.561082
vt 0.560312 0.561082
vt 0.375796 0.437009
vt 0.375796 0.375241
vt 0.746401 0.437009
vt 0.684634 0.437009
vt 0.684634 0.375241
vt 0.746401 0.375241
vt 0.498764 0.561082
vt 0.560312 0.561082
vt 0.560312 0.622630
vt 0.498764 0.622630
vt 0.560312 0.561082
vt 0.498764 0.561082
vt 0.684634 0.437009
vt 0.684634 0.375241
vt 0.312844 0.374645
vt 0.312844 0.436700
vt 0.374899 0.436700
vt 0.374899 0.374645
vt 0.744955 0.376439
vt 0.683407 0.376439
vt 0.683407 0.437987
vt 0.744955 0.437987
vt 0.683407 0.376439
vt 0.683407 0.437987
vt 0.374899 0.374645
vt 0.374899 0.436700
vt 0.312844 0.436700
vt 0.312844 0.374645
vt 0.374899 0.374645
vt 0.374899 0.436700
vt 0.375668 0.376439
vt 0.314121 0.376439
vt 0.314121 0.437987
vt 0.375668 0.437987
vt 0.375668 0.376439
vt 0.375668 0.437987
vt 0.374899 0.436700
vt 0.374899 0.374645
vt 0.683407 0.376439
vt 0.744955 0.376439
vt 0.744955 0.437987
vt 0.683407 0.437987
vt 0.685174 0.374645
vt 0.685174 0.436700
vt 0.747229 0.436700
vt 0.747229 0.374645
vt 0.683407 0.376439
vt 0.683407 0.437987
vt 0.685174 0.436700
vt 0.685174 0.374645
vt 0.314121 0.376439
vt 0.375668 0.376439
vt 0.375668 0.437987
vt 0.314121 0.437987
vt 0.685174 0.436700
vt 0.685174 0.374645
vt 0.747229 0.374645
vt 0.747229 0.436700
vt 0.375668 0.376439
vt 0.375668 0.437987
vt 0.685174 0.374645
vt 0.685174 0.436700
vt 0.560312 0.376439
vt 0.498764 0.376439
vt 0.498764 0.437987
vt 0.560312 0.437987
vt 0.498764 0.376439
vt 0.560312 0.376439
vt 0.560312 0.437987
vt 0.498764 0.437987
vt 0.499009 0.374645
vt 0.499009 0.436700
vt 0.561064 0.436700
vt 0.561064 0.374645
vt 0.499009 0.436700
vt 0.499009 0.374645
vt 0.561064 0.374645
vt 0.561064 0.436700
vt 0.499331 0.437009
vt 0.561099 0.437009
vt 0.561099 0.375241
vt 0.499331 0.375241
vt 0.561099 0.437009
vt 0.499331 0.437009
vt 0.499331 0.375241
vt 0.561099 0.375241
vt 0.386249 0.946778
vt 0.386249 0.946778
vt 0.386249 0.986212
vt 0.386249 0.986212
vt 0.425682 0.946778
vt 0.425682 0.986212
vt 0.425682 0.946778
vt 0.425682 0.986212
vn 1.0000 0.0000 0.0000
vn 0.0000 0.0000 -1.0000
vn 0.0000 1.0000 0.0000
vn 0.0000 -1.0000 0.0000
vn 0.0000 0.0000 1.0000
vn -1.0000 0.0000 0.0000
usemtl Material.002
s off
f 4/1/1 6/2/1 7/3/1 5/4/1
f 9/5/2 10/6/2 13/7/2 12/8/2
f 14/9/3 16/10/3 18/11/3 15/12/3
f 4/13/2 5/14/2 20/15/2 19/16/2
f 4/17/3 19/18/3 21/19/3 6/20/3
f 9/21/1 19/22/1 20/23/1 10/24/1
f 9/25/3 12/26/3 22/27/3 19/18/3
f 14/28/1 15/29/1 21/30/1 19/22/1
f 14/31/2 19/16/2 22/32/2 16/33/2
f 8/34/1 16/35/1 22/36/1 12/37/1
f 2/38/2 6/39/2 21/40/2 15/41/2
f 1/42/3 10/43/3 20/44/3 5/45/3
f 25/46/1 27/47/1 28/48/1 26/49/1
f 30/50/2 31/51/2 34/52/2 33/53/2
f 42/54/4 40/55/4 41/56/4 43/57/4
f 25/58/2 26/59/2 37/60/2 36/61/2
f 37/62/4 26/63/4 28/64/4 38/65/4
f 30/66/1 36/67/1 37/68/1 31/69/1
f 34/70/4 31/71/4 37/62/4 39/72/4
f 37/68/1 38/73/1 41/74/1 40/75/1
f 37/60/2 40/76/2 42/77/2 39/78/2
f 34/79/1 39/80/1 42/81/1 35/82/1
f 28/83/2 29/84/2 41/85/2 38/86/2
f 30/87/4 23/88/4 25/89/4 36/90/4
f 47/91/1 49/92/1 50/93/1 48/94/1
f 52/95/3 55/96/3 56/97/3 53/98/3
f 63/99/5 62/100/5 64/101/5 65/102/5
f 50/103/5 49/104/5 58/105/5 59/106/5
f 47/107/3 57/108/3 58/109/3 49/110/3
f 58/111/1 62/112/1 63/113/1 59/114/1
f 58/109/3 60/115/3 64/116/3 62/117/3
f 52/118/1 53/119/1 58/111/1 57/120/1
f 58/105/5 53/121/5 56/122/5 60/123/5
f 56/124/1 61/125/1 64/126/1 60/127/1
f 47/128/5 45/129/5 52/130/5 57/131/5
f 50/132/3 59/133/3 63/134/3 51/135/3
f 68/136/1 70/137/1 71/138/1 69/139/1
f 80/140/4 78/141/4 79/142/4 82/143/4
f 84/144/5 83/145/5 85/146/5 86/147/5
f 71/148/5 70/149/5 75/150/5 76/151/5
f 74/152/4 69/153/4 71/154/4 76/155/4
f 75/156/1 83/157/1 84/158/1 76/159/1
f 77/160/4 76/155/4 84/161/4 86/162/4
f 74/163/1 76/159/1 79/164/1 78/165/1
f 79/166/5 76/151/5 77/167/5 82/168/5
f 77/169/1 86/170/1 88/171/1 82/172/1
f 72/173/5 69/174/5 74/175/5 78/176/5
f 75/177/4 70/178/4 73/179/4 83/180/4
f 91/181/2 92/182/2 94/183/2 93/184/2
f 95/185/3 98/186/3 99/187/3 97/188/3
f 108/189/6 106/190/6 107/191/6 109/192/6
f 101/193/2 102/194/2 107/195/2 106/196/2
f 101/197/3 106/198/3 108/199/3 103/200/3
f 101/201/6 93/202/6 94/203/6 102/204/6
f 91/205/3 93/206/3 101/197/3 100/207/3
f 99/208/6 98/209/6 101/201/6 103/210/6
f 95/211/2 100/212/2 101/193/2 98/213/2
f 95/214/6 89/215/6 91/216/6 100/217/6
f 99/218/2 103/219/2 108/220/2 105/221/2
f 94/222/3 104/223/3 107/224/3 102/225/3
f 112/226/2 113/227/2 115/228/2 114/229/2
f 124/230/4 121/231/4 122/232/4 125/233/4
f 129/234/6 127/235/6 128/236/6 130/237/6
f 118/238/2 119/239/2 128/240/2 127/241/2
f 128/242/4 119/243/4 120/244/4 130/245/4
f 118/246/6 114/247/6 115/248/6 119/249/6
f 115/250/4 113/251/4 117/252/4 119/243/4
f 120/253/6 119/249/6 124/254/6 125/255/6
f 117/252/2 121/256/2 124/257/2 119/239/2
f 117/258/6 113/259/6 116/260/6 121/261/6
f 120/262/2 125/263/2 132/264/2 130/265/2
f 126/266/4 114/267/4 118/268/4 127/269/4
f 134/270/3 136/271/3 137/272/3 135/273/3
f 144/274/5 143/275/5 146/276/5 147/277/5
f 151/278/6 149/279/6 150/280/6 152/281/6
f 141/282/5 140/283/5 151/284/5 152/285/5
f 139/286/3 149/287/3 151/288/3 140/289/3
f 146/290/6 140/291/6 141/292/6 147/293/6
f 138/294/3 140/289/3 146/295/3 143/296/3
f 137/297/6 136/298/6 139/299/6 140/291/6
f 138/300/5 135/301/5 137/302/5 140/283/5
f 142/303/6 135/304/6 138/305/6 143/306/6
f 139/307/5 136/308/5 148/309/5 149/310/5
f 141/311/3 152/312/3 154/313/3 147/314/3
f 162/315/4 159/316/4 161/317/4 163/318/4
f 165/319/5 164/320/5 167/321/5 168/322/5
f 172/323/6 170/324/6 171/325/6 173/326/6
f 158/327/5 157/328/5 172/329/5 173/330/5
f 171/331/4 156/332/4 158/333/4 173/334/4
f 167/335/6 157/336/6 158/337/6 168/338/6
f 158/333/4 155/339/4 165/340/4 168/341/4
f 158/337/6 156/342/6 162/343/6 163/344/6
f 161/345/5 155/346/5 158/327/5 163/347/5
f 165/348/6 155/349/6 161/350/6 169/351/6
f 162/352/5 156/353/5 171/354/5 175/355/5
f 172/356/4 157/357/4 167/358/4 176/359/4
f 12/8/2 13/7/2 92/182/2 91/181/2
f 11/360/3 90/361/3 92/362/3 13/363/3
f 17/364/2 18/365/2 97/366/2 96/367/2
f 16/10/3 95/185/3 97/188/3 18/11/3
f 8/368/2 12/8/2 91/181/2 89/369/2
f 8/370/3 89/371/3 95/185/3 16/10/3
f 33/53/2 34/52/2 113/227/2 112/226/2
f 111/372/4 32/373/4 33/374/4 112/375/4
f 43/376/2 44/377/2 123/378/2 122/379/2
f 121/231/4 42/54/4 43/57/4 122/232/4
f 34/52/2 35/380/2 116/381/2 113/227/2
f 116/382/4 35/383/4 42/54/4 121/231/4
f 55/384/5 54/385/5 133/386/5 134/387/5
f 55/96/3 134/270/3 135/273/3 56/97/3
f 65/102/5 64/101/5 143/275/5 144/274/5
f 65/388/3 144/389/3 145/390/3 66/391/3
f 64/101/5 61/392/5 142/393/5 143/275/5
f 56/97/3 135/273/3 142/394/3 61/395/3
f 81/396/5 80/397/5 159/398/5 160/399/5
f 159/316/4 80/140/4 82/143/4 161/317/4
f 86/147/5 85/146/5 164/320/5 165/319/5
f 164/400/4 85/401/4 87/402/4 166/403/4
f 88/404/5 86/147/5 165/319/5 169/405/5
f 161/317/4 82/143/4 88/406/4 169/407/4
f 17/408/1 54/409/1 55/410/1 18/411/1
f 15/12/3 18/11/3 55/96/3 52/95/3
f 6/2/1 47/91/1 48/94/1 7/3/1
f 3/412/3 7/413/3 48/414/3 46/415/3
f 2/416/1 45/417/1 47/91/1 6/2/1
f 2/418/3 15/12/3 52/95/3 45/419/3
f 133/420/6 96/421/6 97/422/6 134/423/6
f 97/188/3 99/187/3 136/271/3 134/270/3
f 149/279/6 108/189/6 109/192/6 150/280/6
f 109/424/3 110/425/3 153/426/3 150/427/3
f 148/428/6 105/429/6 108/189/6 149/279/6
f 99/187/3 105/430/3 148/431/3 136/271/3
f 27/47/1 68/136/1 69/139/1 28/48/1
f 27/432/4 24/433/4 67/434/4 68/435/4
f 43/436/1 80/437/1 81/438/1 44/439/1
f 43/57/4 41/56/4 78/141/4 80/140/4
f 28/48/1 69/139/1 72/440/1 29/441/1
f 41/56/4 29/442/4 72/443/4 78/141/4
f 170/324/6 129/234/6 130/237/6 171/325/6
f 131/444/4 129/445/4 170/446/4 174/447/4
f 159/448/6 122/449/6 123/450/6 160/451/6
f 125/233/4 122/232/4 159/316/4 162/315/4
f 171/325/6 130/237/6 132/452/6 175/453/6
f 132/454/4 125/233/4 162/315/4 175/455/4
f 5/4/1 7/3/1 27/47/1 25/46/1
f 3/456/2 24/457/2 27/458/2 7/459/2
f 11/460/1 13/461/1 33/462/1 32/463/1
f 10/6/2 30/50/2 33/53/2 13/7/2
f 1/464/1 5/4/1 25/46/1 23/465/1
f 1/466/2 23/467/2 30/50/2 10/6/2
f 48/94/1 50/93/1 70/137/1 68/136/1
f 67/468/5 46/469/5 48/470/5 68/471/5
f 65/472/1 66/473/1 87/474/1 85/475/1
f 83/145/5 63/99/5 65/102/5 85/146/5
f 50/93/1 51/476/1 73/477/1 70/137/1
f 73/478/5 51/479/5 63/99/5 83/145/5
f 92/480/6 90/481/6 111/482/6 112/483/6
f 92/182/2 112/226/2 114/229/2 94/183/2
f 109/192/6 107/191/6 127/235/6 129/234/6
f 109/484/2 129/485/2 131/486/2 110/487/2
f 107/191/6 104/488/6 126/489/6 127/235/6
f 94/183/2 114/229/2 126/490/2 104/491/2
f 145/492/6 144/493/6 164/494/6 166/495/6
f 164/320/5 144/274/5 147/277/5 167/321/5
f 152/281/6 150/280/6 170/324/6 172/323/6
f 170/496/5 150/497/5 153/498/5 174/499/5
f 154/500/6 152/281/6 172/323/6 176/501/6
f 167/321/5 147/277/5 154/502/5 176/503/5
f 3/504/1 46/505/1 67/506/1 24/507/1
f 153/508/6 110/509/6 131/510/6 174/511/6
f 11/512/2 32/513/2 111/514/2 90/515/2
f 87/516/5 66/517/5 145/518/5 166/519/5
f 17/520/3 96/521/3 133/522/3 54/523/3
f 123/524/4 44/525/4 81/526/4 160/527/4
f 177/528/1 179/529/1 180/530/1 178/531/1
f 179/529/5 183/532/5 184/533/5 180/530/5
f 183/532/6 181/534/6 182/535/6 184/533/6
f 181/534/2 177/528/2 178/531/2 182/535/2
f 179/529/3 177/528/3 181/534/3 183/532/3
f 184/533/4 182/535/4 178/531/4 180/530/4
