# Blender v2.91.0 OBJ File: 'snowballs.blend'
# www.blender.org
mtllib enderpearl_round.mtl
o Cube.003_Cube.347
v -0.103201 -0.103201 0.103201
v -0.103201 0.103201 0.103201
v -0.103201 -0.103201 -0.103201
v -0.103201 0.103201 -0.103201
v 0.103201 -0.103201 0.103201
v 0.103201 0.103201 0.103201
v 0.103201 -0.103201 -0.103201
v 0.103201 0.103201 -0.103201
v -0.126395 -0.126395 0.000000
v -0.126395 0.000000 0.126395
v -0.126395 0.126395 0.000000
v -0.126395 0.000000 -0.126395
v 0.000000 -0.126395 -0.126395
v 0.000000 0.126395 -0.126395
v 0.126395 0.000000 -0.126395
v 0.126395 -0.126395 0.000000
v 0.126395 0.126395 0.000000
v 0.126395 0.000000 0.126395
v 0.000000 -0.126395 0.126395
v 0.000000 0.126395 0.126395
v 0.000000 0.178750 0.000000
v 0.000000 -0.178750 0.000000
v 0.000000 0.000000 0.178750
v 0.178750 0.000000 0.000000
v 0.000000 0.000000 -0.178750
v -0.178750 0.000000 0.000000
v -0.034468 -0.034468 0.034468
v -0.034468 0.034468 0.034468
v -0.034468 -0.034468 -0.034468
v -0.034468 0.034468 -0.034468
v 0.034468 -0.034468 0.034468
v 0.034468 0.034468 0.034468
v 0.034468 -0.034468 -0.034468
v 0.034468 0.034468 -0.034468
v -0.042214 -0.042214 0.000000
v -0.042214 0.000000 0.042214
v -0.042214 0.042214 0.000000
v -0.042214 0.000000 -0.042214
v 0.000000 -0.042214 -0.042214
v 0.000000 0.042214 -0.042214
v 0.042214 0.000000 -0.042214
v 0.042214 -0.042214 0.000000
v 0.042214 0.042214 0.000000
v 0.042214 0.000000 0.042214
v 0.000000 -0.042214 0.042214
v 0.000000 0.042214 0.042214
v 0.000000 0.059700 0.000000
v 0.000000 -0.059700 0.000000
v 0.000000 0.000000 0.059700
v 0.059700 0.000000 0.000000
v 0.000000 0.000000 -0.059700
v -0.059700 0.000000 0.000000
v -0.063060 -0.063060 0.063060
v -0.063060 0.063060 0.063060
v -0.063060 -0.063060 -0.063060
v -0.063060 0.063060 -0.063060
v 0.063060 -0.063060 0.063060
v 0.063060 0.063060 0.063060
v 0.063060 -0.063060 -0.063060
v 0.063060 0.063060 -0.063060
v -0.077233 -0.077233 0.000000
v -0.077233 0.000000 0.077233
v -0.077233 0.077233 0.000000
v -0.077233 0.000000 -0.077233
v 0.000000 -0.077233 -0.077233
v 0.000000 0.077233 -0.077233
v 0.077233 0.000000 -0.077233
v 0.077233 -0.077233 0.000000
v 0.077233 0.077233 0.000000
v 0.077233 0.000000 0.077233
v 0.000000 -0.077233 0.077233
v 0.000000 0.077233 0.077233
v 0.000000 0.109224 0.000000
v 0.000000 -0.109224 0.000000
v 0.000000 0.000000 0.109224
v 0.109224 0.000000 0.000000
v 0.000000 0.000000 -0.109224
v -0.109224 0.000000 0.000000
v -0.087684 -0.087684 0.087684
v -0.087684 0.087684 0.087684
v -0.087684 -0.087684 -0.087684
v -0.087684 0.087684 -0.087684
v 0.087684 -0.087684 0.087684
v 0.087684 0.087684 0.087684
v 0.087684 -0.087684 -0.087684
v 0.087684 0.087684 -0.087684
v -0.107391 -0.107391 0.000000
v -0.107391 0.000000 0.107391
v -0.107391 0.107391 0.000000
v -0.107391 0.000000 -0.107391
v 0.000000 -0.107391 -0.107391
v 0.000000 0.107391 -0.107391
v 0.107391 0.000000 -0.107391
v 0.107391 -0.107391 0.000000
v 0.107391 0.107391 0.000000
v 0.107391 0.000000 0.107391
v 0.000000 -0.107391 0.107391
v 0.000000 0.107391 0.107391
v 0.000000 0.151873 0.000000
v 0.000000 -0.151873 0.000000
v 0.000000 0.000000 0.151873
v 0.151873 0.000000 0.000000
v 0.000000 0.000000 -0.151873
v -0.151873 0.000000 0.000000
vt 0.687704 0.315767
vt 0.626657 0.315767
vt 0.626657 0.254719
vt 0.687704 0.254719
vt 0.565609 0.315767
vt 0.504561 0.315767
vt 0.504561 0.254719
vt 0.565609 0.254719
vt 0.443514 0.315767
vt 0.382466 0.315767
vt 0.382466 0.254719
vt 0.443514 0.254719
vt 0.321418 0.315767
vt 0.260371 0.315767
vt 0.260371 0.254719
vt 0.321418 0.254719
vt 0.443514 0.437862
vt 0.382466 0.437862
vt 0.382466 0.376814
vt 0.443514 0.376814
vt 0.443514 0.193671
vt 0.382466 0.193671
vt 0.382466 0.132624
vt 0.443514 0.132624
vt 0.504561 0.193671
vt 0.504561 0.132624
vt 0.443514 0.498910
vt 0.382466 0.498910
vt 0.504561 0.498910
vt 0.504561 0.437862
vt 0.504561 0.376814
vt 0.321418 0.376814
vt 0.260371 0.376814
vt 0.565609 0.376814
vt 0.626657 0.376814
vt 0.687704 0.376814
vt 0.748752 0.376814
vt 0.748752 0.315767
vt 0.748752 0.254719
vt 0.744345 0.813814
vt 0.683297 0.813814
vt 0.683297 0.752766
vt 0.744345 0.752766
vt 0.622250 0.813814
vt 0.561202 0.813814
vt 0.561202 0.752766
vt 0.622250 0.752766
vt 0.500154 0.813814
vt 0.439107 0.813814
vt 0.439107 0.752766
vt 0.500154 0.752766
vt 0.378059 0.813814
vt 0.317011 0.813814
vt 0.317011 0.752766
vt 0.378059 0.752766
vt 0.500154 0.935909
vt 0.439107 0.935909
vt 0.439107 0.874861
vt 0.500154 0.874861
vt 0.500154 0.691718
vt 0.439107 0.691718
vt 0.439107 0.630671
vt 0.500154 0.630671
vt 0.561202 0.691718
vt 0.561202 0.630671
vt 0.500154 0.996956
vt 0.439107 0.996956
vt 0.561202 0.996956
vt 0.561202 0.935909
vt 0.561202 0.874861
vt 0.378059 0.874861
vt 0.317011 0.874861
vt 0.622250 0.874861
vt 0.683297 0.874861
vt 0.744345 0.874861
vt 0.805393 0.874861
vt 0.805393 0.813814
vt 0.805393 0.752766
vt 0.496298 0.751314
vt 0.435250 0.751314
vt 0.435250 0.690266
vt 0.496298 0.690266
vt 0.374203 0.751314
vt 0.313155 0.751314
vt 0.313155 0.690266
vt 0.374203 0.690266
vt 0.252108 0.751314
vt 0.191060 0.751314
vt 0.191060 0.690266
vt 0.252108 0.690266
vt 0.130012 0.751314
vt 0.068965 0.751314
vt 0.068965 0.690266
vt 0.130012 0.690266
vt 0.252108 0.873409
vt 0.191060 0.873409
vt 0.191060 0.812361
vt 0.252108 0.812361
vt 0.252108 0.629218
vt 0.191060 0.629218
vt 0.191060 0.568171
vt 0.252108 0.568171
vt 0.313155 0.629218
vt 0.313155 0.568171
vt 0.252108 0.934456
vt 0.191060 0.934456
vt 0.313155 0.934456
vt 0.313155 0.873409
vt 0.313155 0.812361
vt 0.130012 0.812361
vt 0.068965 0.812361
vt 0.374203 0.812361
vt 0.435250 0.812361
vt 0.496298 0.812361
vt 0.557346 0.812361
vt 0.557346 0.751314
vt 0.557346 0.690266
vt 0.931845 0.565767
vt 0.870797 0.565767
vt 0.870797 0.504719
vt 0.931845 0.504719
vt 0.809750 0.565767
vt 0.748702 0.565767
vt 0.748702 0.504719
vt 0.809750 0.504719
vt 0.687654 0.565767
vt 0.626607 0.565767
vt 0.626607 0.504719
vt 0.687654 0.504719
vt 0.565559 0.565767
vt 0.504511 0.565767
vt 0.504511 0.504719
vt 0.565559 0.504719
vt 0.687654 0.687862
vt 0.626607 0.687862
vt 0.626607 0.626814
vt 0.687654 0.626814
vt 0.687654 0.443671
vt 0.626607 0.443671
vt 0.626607 0.382624
vt 0.687654 0.382624
vt 0.748702 0.443671
vt 0.748702 0.382624
vt 0.687654 0.748910
vt 0.626607 0.748910
vt 0.748702 0.748910
vt 0.748702 0.687862
vt 0.748702 0.626814
vt 0.565559 0.626814
vt 0.504511 0.626814
vt 0.809750 0.626814
vt 0.870797 0.626814
vt 0.931845 0.626814
vt 0.992893 0.626814
vt 0.992893 0.565767
vt 0.992893 0.504719
vn 1.0000 0.0000 0.0000
vn 0.7071 0.0000 0.7071
vn 0.5773 -0.5773 0.5773
vn 0.7071 -0.7071 0.0000
vn 0.0000 0.0000 1.0000
vn -0.7071 0.0000 0.7071
vn -0.5773 -0.5773 0.5773
vn 0.0000 -0.7071 0.7071
vn -1.0000 0.0000 0.0000
vn -0.7071 0.0000 -0.7071
vn -0.5773 -0.5773 -0.5773
vn -0.7071 -0.7071 0.0000
vn 0.0000 0.0000 -1.0000
vn 0.7071 0.0000 -0.7071
vn 0.5773 -0.5773 -0.5773
vn 0.0000 -0.7071 -0.7071
vn 0.0000 1.0000 0.0000
vn 0.0000 0.7071 -0.7071
vn -0.5773 0.5773 -0.5773
vn -0.7071 0.7071 0.0000
vn 0.0000 -1.0000 0.0000
vn 0.7071 0.7071 0.0000
vn 0.5773 0.5773 -0.5773
vn 0.5773 0.5773 0.5773
vn 0.0000 0.7071 0.7071
vn -0.5773 0.5773 0.5773
usemtl Material.002
s 1
f 26/1/1 12/2/2 4/3/3 11/4/4
f 25/5/5 15/6/6 8/7/7 14/8/8
f 24/9/9 18/10/10 6/11/11 17/12/12
f 23/13/13 10/14/14 2/15/15 20/16/16
f 22/17/17 19/18/18 5/19/19 16/20/20
f 21/21/21 20/22/16 2/23/15 11/24/4
f 17/12/12 6/11/11 20/22/16 21/21/21
f 8/7/7 17/12/12 21/21/21 14/25/8
f 14/25/8 21/21/21 11/24/4 4/26/3
f 9/27/22 1/28/23 19/18/18 22/17/17
f 3/29/24 9/27/22 22/17/17 13/30/25
f 13/30/25 22/17/17 16/20/20 7/31/26
f 19/32/18 1/33/23 10/14/14 23/13/13
f 5/19/19 19/32/18 23/13/13 18/10/10
f 18/10/10 23/13/13 20/16/16 6/11/11
f 16/20/20 5/19/19 18/10/10 24/9/9
f 7/31/26 16/20/20 24/9/9 15/6/6
f 15/6/6 24/9/9 17/12/12 8/7/7
f 13/34/25 7/31/26 15/6/6 25/5/5
f 3/35/24 13/34/25 25/5/5 12/2/2
f 12/2/2 25/5/5 14/8/8 4/3/3
f 9/36/22 3/35/24 12/2/2 26/1/1
f 1/37/23 9/36/22 26/1/1 10/38/14
f 10/38/14 26/1/1 11/4/4 2/39/15
f 52/40/1 38/41/2 30/42/3 37/43/4
f 51/44/5 41/45/6 34/46/7 40/47/8
f 50/48/9 44/49/10 32/50/11 43/51/12
f 49/52/13 36/53/14 28/54/15 46/55/16
f 48/56/17 45/57/18 31/58/19 42/59/20
f 47/60/21 46/61/16 28/62/15 37/63/4
f 43/51/12 32/50/11 46/61/16 47/60/21
f 34/46/7 43/51/12 47/60/21 40/64/8
f 40/64/8 47/60/21 37/63/4 30/65/3
f 35/66/22 27/67/23 45/57/18 48/56/17
f 29/68/24 35/66/22 48/56/17 39/69/25
f 39/69/25 48/56/17 42/59/20 33/70/26
f 45/71/18 27/72/23 36/53/14 49/52/13
f 31/58/19 45/71/18 49/52/13 44/49/10
f 44/49/10 49/52/13 46/55/16 32/50/11
f 42/59/20 31/58/19 44/49/10 50/48/9
f 33/70/26 42/59/20 50/48/9 41/45/6
f 41/45/6 50/48/9 43/51/12 34/46/7
f 39/73/25 33/70/26 41/45/6 51/44/5
f 29/74/24 39/73/25 51/44/5 38/41/2
f 38/41/2 51/44/5 40/47/8 30/42/3
f 35/75/22 29/74/24 38/41/2 52/40/1
f 27/76/23 35/75/22 52/40/1 36/77/14
f 36/77/14 52/40/1 37/43/4 28/78/15
f 78/79/1 64/80/2 56/81/3 63/82/4
f 77/83/5 67/84/6 60/85/7 66/86/8
f 76/87/9 70/88/10 58/89/11 69/90/12
f 75/91/13 62/92/14 54/93/15 72/94/16
f 74/95/17 71/96/18 57/97/19 68/98/20
f 73/99/21 72/100/16 54/101/15 63/102/4
f 69/90/12 58/89/11 72/100/16 73/99/21
f 60/85/7 69/90/12 73/99/21 66/103/8
f 66/103/8 73/99/21 63/102/4 56/104/3
f 61/105/22 53/106/23 71/96/18 74/95/17
f 55/107/24 61/105/22 74/95/17 65/108/25
f 65/108/25 74/95/17 68/98/20 59/109/26
f 71/110/18 53/111/23 62/92/14 75/91/13
f 57/97/19 71/110/18 75/91/13 70/88/10
f 70/88/10 75/91/13 72/94/16 58/89/11
f 68/98/20 57/97/19 70/88/10 76/87/9
f 59/109/26 68/98/20 76/87/9 67/84/6
f 67/84/6 76/87/9 69/90/12 60/85/7
f 65/112/25 59/109/26 67/84/6 77/83/5
f 55/113/24 65/112/25 77/83/5 64/80/2
f 64/80/2 77/83/5 66/86/8 56/81/3
f 61/114/22 55/113/24 64/80/2 78/79/1
f 53/115/23 61/114/22 78/79/1 62/116/14
f 62/116/14 78/79/1 63/82/4 54/117/15
f 104/118/1 90/119/2 82/120/3 89/121/4
f 103/122/5 93/123/6 86/124/7 92/125/8
f 102/126/9 96/127/10 84/128/11 95/129/12
f 101/130/13 88/131/14 80/132/15 98/133/16
f 100/134/17 97/135/18 83/136/19 94/137/20
f 99/138/21 98/139/16 80/140/15 89/141/4
f 95/129/12 84/128/11 98/139/16 99/138/21
f 86/124/7 95/129/12 99/138/21 92/142/8
f 92/142/8 99/138/21 89/141/4 82/143/3
f 87/144/22 79/145/23 97/135/18 100/134/17
f 81/146/24 87/144/22 100/134/17 91/147/25
f 91/147/25 100/134/17 94/137/20 85/148/26
f 97/149/18 79/150/23 88/131/14 101/130/13
f 83/136/19 97/149/18 101/130/13 96/127/10
f 96/127/10 101/130/13 98/133/16 84/128/11
f 94/137/20 83/136/19 96/127/10 102/126/9
f 85/148/26 94/137/20 102/126/9 93/123/6
f 93/123/6 102/126/9 95/129/12 86/124/7
f 91/151/25 85/148/26 93/123/6 103/122/5
f 81/152/24 91/151/25 103/122/5 90/119/2
f 90/119/2 103/122/5 92/125/8 82/120/3
f 87/153/22 81/152/24 90/119/2 104/118/1
f 79/154/23 87/153/22 104/118/1 88/155/14
f 88/155/14 104/118/1 89/121/4 80/156/15
