# Blender v2.91.0 OBJ File: 'physics_test.blend'
# www.blender.org
mtllib physics_v5.mtl
o Neue_Welt_(10)__2547_58_-1089_to_2595_255_-1061.001_cell.008_Neue_Welt_(10)__2547_58_-1089_to_2595_255_-1061.001_cell.023
v -0.500000 -0.500000 -0.500000
v -0.071707 -0.064933 -0.083993
v 0.164580 -0.234348 -0.039070
v 0.050819 -0.039720 -0.266431
v 0.222908 -0.165180 -0.228900
v 0.223778 -0.196933 -0.172080
v -0.500000 -0.500000 -0.192683
v -0.500000 -0.117628 -0.178686
v -0.500000 -0.156400 -0.180049
v -0.500000 -0.102046 -0.500000
v -0.444514 -0.094628 -0.500000
v 0.182890 -0.194346 -0.500000
v 0.115719 -0.500000 -0.500000
v 0.041785 -0.030303 -0.500000
v 0.193687 -0.144709 -0.500000
v 0.021792 -0.500000 -0.079021
v 0.150081 -0.500000 -0.233580
v 0.155954 -0.500000 -0.187116
v 0.108394 -0.500000 -0.060303
v 0.080316 -0.500000 -0.066335
v 0.115663 -0.500000 -0.079581
v -0.500000 -0.156400 -0.180049
v -0.500000 -0.117628 -0.178686
v -0.500000 -0.102046 -0.500000
v -0.500000 -0.102046 -0.500000
v -0.500000 -0.500000 -0.500000
v -0.500000 -0.500000 -0.500000
v -0.500000 -0.500000 -0.192683
v -0.500000 -0.500000 -0.192683
v 0.182890 -0.194346 -0.500000
v 0.115719 -0.500000 -0.500000
v 0.115719 -0.500000 -0.500000
v -0.444514 -0.094628 -0.500000
v 0.041785 -0.030303 -0.500000
v 0.193687 -0.144709 -0.500000
v 0.080316 -0.500000 -0.066335
v 0.021792 -0.500000 -0.079021
v 0.150081 -0.500000 -0.233580
v 0.155954 -0.500000 -0.187116
v 0.115663 -0.500000 -0.079581
v 0.108394 -0.500000 -0.060303
vt 0.163671 0.163671
vt 0.836329 0.163671
vt 0.836329 0.836329
vt 0.163671 0.163671
vt 0.836329 0.163671
vt 0.163671 0.163671
vt 0.836329 0.836329
vt 0.836329 0.257382
vt 0.836329 0.754328
vt 0.338459 0.257281
vt 0.836329 0.163671
vt 0.754328 0.754328
vt 0.257382 0.257382
vt 0.740358 0.740358
vt 0.163671 0.163671
vt 0.740979 0.163671
vt 0.731163 0.731163
vt 0.836329 0.259021
vt 0.163671 0.163671
vt 0.729678 0.163671
vt 0.836329 0.766923
vt 0.729678 0.729678
vt 0.836329 0.215216
vt 0.836329 0.757351
vt 0.215216 0.215216
vt 0.757627 0.215159
vt 0.757351 0.757351
vt 0.281624 0.163671
vt 0.836329 0.163671
vt 0.836329 0.718582
vt 0.836329 0.731163
vt 0.718582 0.718582
vt 0.836329 0.718376
vt 0.834229 0.764110
vt 0.233499 0.163671
vt 0.253036 0.163671
vt 0.836329 0.740358
vt 0.766923 0.766923
vt 0.766501 0.163671
vt 0.836329 0.163671
vt 0.001706 0.001707
vt 0.320253 0.343969
vt 0.001706 0.398112
vt 0.942074 0.405500
vt 0.457911 0.469575
vt 0.384301 0.001707
vt 0.654781 0.686147
vt 0.614667 0.579031
vt 0.521208 0.578474
vt 0.307674 0.001707
vt 0.321610 0.382591
vt 0.306675 0.355615
vt 0.317425 0.306171
vt 0.997317 0.001707
vt 0.997317 0.398112
vt 0.607430 0.559828
vt 0.579475 0.565837
vt 0.001706 0.691693
vt 0.001706 0.997813
vt 0.614722 0.997813
vt 0.648933 0.732431
vn 0.4718 0.7727 0.4246
vn 0.4719 0.7714 0.4270
vn 0.4715 0.7735 0.4236
vn 0.9690 -0.2130 -0.1250
vn 0.9698 -0.2109 -0.1226
vn 0.9132 -0.2213 0.3422
vn 0.9752 -0.1866 -0.1192
vn 0.9126 -0.2205 0.3441
vn -0.2099 -0.0337 0.9771
vn -0.2117 -0.0343 0.9767
vn -0.2127 -0.0359 0.9765
vn -0.1310 0.9904 0.0450
vn 0.6016 0.7988 0.0089
vn -0.1324 0.9900 0.0480
vn 0.5895 0.8078 -0.0025
vn -0.1324 0.9900 0.0479
vn -1.0000 0.0000 0.0000
vn 0.0000 0.0000 -1.0000
vn 0.0000 -1.0000 0.0000
usemtl Stone
s off
f 5/1/1 2/2/1 6/3/1
f 2/4/2 3/5/2 6/3/2
f 4/6/3 2/2/3 5/7/3
f 12/8/4 17/9/4 13/10/4
f 6/11/5 17/12/5 12/13/5
f 18/14/6 6/15/6 21/16/6
f 35/17/7 5/1/7 6/11/7
f 21/18/8 3/19/8 19/20/8
f 3/19/9 20/21/9 19/22/9
f 2/4/10 9/23/10 16/24/10
f 9/25/11 7/26/11 16/27/11
f 11/28/12 4/29/12 14/30/12
f 4/6/13 35/31/13 14/32/13
f 11/33/14 10/34/14 8/35/14
f 12/13/5 35/36/5 6/11/5
f 6/11/5 18/37/5 17/12/5
f 21/18/8 6/3/8 3/19/8
f 3/19/9 2/2/9 20/21/9
f 16/24/10 20/38/10 2/4/10
f 2/4/10 8/39/10 9/23/10
f 4/6/15 5/40/15 35/31/15
f 8/35/14 2/4/14 11/33/14
f 2/4/16 4/29/16 11/33/16
s 1
f 26/41/17 22/42/17 24/43/17
f 33/44/18 34/45/18 31/46/18
f 39/47/19 40/48/19 37/49/19
f 28/50/17 22/42/17 26/41/17
f 22/42/17 23/51/17 24/43/17
f 15/52/18 30/53/18 34/45/18
f 30/53/18 31/46/18 34/45/18
f 31/46/18 27/54/18 33/44/18
f 27/54/18 25/55/18 33/44/18
f 41/56/19 36/57/19 40/48/19
f 36/57/19 37/49/19 40/48/19
f 37/49/19 29/58/19 1/59/19
f 1/59/19 32/60/19 37/49/19
f 32/60/19 38/61/19 37/49/19
f 38/61/19 39/47/19 37/49/19
o Neue_Welt_(10)__2547_58_-1089_to_2595_255_-1061.001_cell.009_Neue_Welt_(10)__2547_58_-1089_to_2595_255_-1061.001_cell.024
v -0.500000 -0.500000 0.500000
v -0.093963 -0.058729 -0.047753
v 0.157775 -0.239020 0.000794
v 0.167692 -0.246464 0.128991
v -0.500000 0.230710 0.484519
v -0.500000 0.230662 0.349200
v -0.500000 0.230676 0.500000
v -0.500000 -0.500000 -0.151678
v -0.500000 -0.108092 -0.137365
v -0.464494 0.205254 0.500000
v 0.166982 -0.408872 0.500000
v 0.160367 -0.441299 0.500000
v 0.148311 -0.500000 0.500000
v -0.169273 -0.006616 0.500000
v 0.123511 -0.500000 0.215232
v 0.104721 -0.500000 0.000180
v 0.073618 -0.500000 -0.027275
v 0.102845 -0.500000 -0.020867
v -0.500000 -0.108092 -0.137365
v -0.500000 -0.500000 -0.151678
v -0.500000 -0.500000 -0.151678
v -0.500000 -0.500000 0.500000
v -0.500000 -0.500000 0.500000
v -0.500000 0.230676 0.500000
v -0.500000 0.230676 0.500000
v -0.500000 0.230710 0.484519
v -0.500000 0.230662 0.349200
v 0.148311 -0.500000 0.500000
v 0.148311 -0.500000 0.500000
v 0.160367 -0.441299 0.500000
v 0.166982 -0.408872 0.500000
v -0.169273 -0.006616 0.500000
v -0.464494 0.205254 0.500000
v 0.102845 -0.500000 -0.020867
v 0.104721 -0.500000 0.000180
v 0.123511 -0.500000 0.215232
v 0.073618 -0.500000 -0.027275
vt 0.244067 0.244067
vt 0.222552 0.163671
vt 0.555489 0.163671
vt 0.273577 0.273577
vt 0.836329 0.163671
vt 0.836329 0.836329
vt 0.836329 0.163671
vt 0.235541 0.167029
vt 0.237748 0.163671
vt 0.836329 0.242909
vt 0.243945 0.243945
vt 0.242909 0.242909
vt 0.836329 0.244067
vt 0.836329 0.444511
vt 0.836329 0.777448
vt 0.504532 0.445731
vt 0.768464 0.768464
vt 0.163671 0.163671
vt 0.762077 0.163671
vt 0.762367 0.762367
vt 0.836329 0.836329
vt 0.237748 0.237748
vt 0.836329 0.237923
vt 0.836329 0.243945
vt 0.836329 0.273577
vt 0.270942 0.163671
vt 0.836329 0.768464
vt 0.836329 0.729058
vt 0.836329 0.836329
vt 0.762367 0.163671
vt 0.805055 0.191179
vt 0.847179 0.729524
vt 0.997317 0.001707
vt 0.981904 0.729572
vt 0.001706 0.001707
vt 0.659175 0.060179
vt 0.330982 0.493170
vt 0.001706 0.650847
vt 0.572807 0.526929
vt 0.622481 0.285366
vt 0.362749 0.392089
vt 0.348500 0.001707
vt 0.997317 0.729538
vt 0.037057 0.704216
vt 0.001706 0.729538
vt 0.647172 0.001707
vt 0.665760 0.092481
vt 0.601905 0.520546
vt 0.603773 0.499581
vt 0.647172 0.001707
vt 0.001706 0.001707
vn 0.9763 -0.1991 -0.0853
vn 0.9763 -0.1983 -0.0870
vn 0.2112 0.0357 -0.9768
vn 0.5831 0.8124 0.0043
vn 0.7384 0.6172 0.2716
vn 0.9760 -0.2004 -0.0850
vn 0.2140 0.0360 -0.9762
vn 0.5802 0.8145 -0.0003
vn 0.0263 0.8204 -0.5712
vn 0.5821 0.8131 0.0019
vn 0.2118 0.0351 -0.9767
vn 0.5820 0.8132 0.0022
vn 0.5821 0.8131 0.0018
vn -1.0000 0.0000 0.0000
vn 0.0000 0.0000 1.0000
vn 0.0000 -1.0000 0.0000
usemtl Stone
s off
f 52/62/20 53/63/20 56/64/20
f 57/65/21 44/66/21 45/67/21
f 43/68/22 49/69/22 50/70/22
f 55/71/23 45/67/23 51/72/23
f 55/73/24 52/74/24 45/67/24
f 56/75/25 53/76/25 54/77/25
f 44/66/26 58/78/26 43/79/26
f 47/80/27 46/81/27 43/79/27
f 43/82/28 50/83/28 47/84/28
f 51/85/29 45/67/29 43/79/29
f 57/86/20 45/67/20 56/64/20
f 45/67/20 52/62/20 56/64/20
f 57/65/21 59/87/21 44/66/21
f 43/68/30 58/88/30 49/69/30
f 44/66/26 59/89/26 58/78/26
f 44/90/31 43/79/31 45/67/31
f 43/79/29 46/91/29 51/85/29
f 46/91/32 48/92/32 51/85/32
s 1
f 68/93/33 63/94/33 67/95/33
f 64/96/34 71/97/34 73/98/34
f 62/99/35 78/100/35 77/101/35
f 68/93/33 60/102/33 63/94/33
f 60/102/33 61/103/33 63/94/33
f 63/94/33 65/104/33 67/95/33
f 74/105/34 66/106/34 64/96/34
f 64/96/34 69/107/34 71/97/34
f 71/97/34 72/108/34 73/98/34
f 73/98/34 74/105/34 64/96/34
f 78/100/35 75/109/35 76/110/35
f 76/110/35 77/101/35 78/100/35
f 77/101/35 70/111/35 42/112/35
f 62/99/35 77/101/35 42/112/35
o Neue_Welt_(10)__2547_58_-1089_to_2595_255_-1061.001_cell.010_Neue_Welt_(10)__2547_58_-1089_to_2595_255_-1061.001_cell.014
v 0.500000 -0.500000 0.500000
v 0.257752 -0.204895 -0.152087
v 0.416251 -0.134376 -0.177574
v 0.206520 -0.251013 0.111499
v 0.197064 -0.244730 -0.013557
v 0.500000 -0.350922 0.500000
v 0.500000 -0.136949 0.009917
v 0.500000 -0.500000 -0.228828
v 0.500000 -0.109194 -0.053830
v 0.500000 -0.111628 -0.192187
v 0.500000 -0.103996 -0.105819
v 0.500000 -0.100516 -0.144209
v 0.500000 -0.099688 -0.155615
v 0.188800 -0.500000 0.500000
v 0.198777 -0.451234 0.500000
v 0.232059 -0.414084 0.500000
v 0.205131 -0.420492 0.500000
v 0.142489 -0.500000 -0.033840
v 0.165729 -0.500000 0.234711
v 0.150060 -0.500000 -0.054403
v 0.209549 -0.500000 -0.170836
v 0.192231 -0.500000 -0.167305
v 0.500000 -0.111628 -0.192187
v 0.500000 -0.099688 -0.155615
v 0.500000 -0.100516 -0.144209
v 0.500000 -0.103996 -0.105819
v 0.500000 -0.109194 -0.053830
v 0.500000 -0.136949 0.009917
v 0.500000 -0.350922 0.500000
v 0.500000 -0.350922 0.500000
v 0.500000 -0.500000 0.500000
v 0.500000 -0.500000 0.500000
v 0.500000 -0.500000 -0.228828
v 0.500000 -0.500000 -0.228828
v 0.232059 -0.414084 0.500000
v 0.205131 -0.420492 0.500000
v 0.198777 -0.451234 0.500000
v 0.188800 -0.500000 0.500000
v 0.188800 -0.500000 0.500000
v 0.165729 -0.500000 0.234711
v 0.142489 -0.500000 -0.033840
v 0.150060 -0.500000 -0.054403
v 0.192231 -0.500000 -0.167305
v 0.209549 -0.500000 -0.170836
vt 0.163671 0.163671
vt 0.836329 0.163671
vt 0.836329 0.836329
vt 0.836329 0.738977
vt 0.163671 0.163671
vt 0.163671 0.163671
vt 0.737803 0.163671
vt 0.738977 0.738977
vt 0.836329 0.163671
vt 0.836329 0.585933
vt 0.415502 0.163671
vt 0.836329 0.721891
vt 0.163671 0.163671
vt 0.836329 0.163671
vt 0.754773 0.163671
vt 0.261871 0.261871
vt 0.836329 0.261290
vt 0.836329 0.163671
vt 0.261290 0.261290
vt 0.274024 0.163671
vt 0.329449 0.238180
vt 0.245227 0.163671
vt 0.836329 0.836329
vt 0.239797 0.239797
vt 0.216457 0.163671
vt 0.738469 0.216789
vt 0.738250 0.738250
vt 0.216457 0.216457
vt 0.836329 0.524241
vt 0.531403 0.220813
vt 0.836329 0.220446
vt 0.725976 0.163671
vt 0.475759 0.163671
vt 0.721891 0.721891
vt 0.585933 0.585933
vt 0.836329 0.261871
vt 0.836329 0.584498
vt 0.738250 0.163671
vt 0.836329 0.262197
vt 0.779554 0.163671
vt 0.836329 0.239797
vt 0.489638 0.363344
vt 0.727335 0.001707
vt 0.604867 0.396169
vt 0.687483 0.001707
vt 0.997317 0.001707
vt 0.730553 0.087288
vt 0.648913 0.553952
vt 0.690898 0.666414
vt 0.708141 0.669931
vt 0.690855 0.388567
vt 0.654444 0.400461
vt 0.643087 0.399635
vt 0.553105 0.390991
vt 0.001706 0.150204
vt 0.001706 0.001707
vt 0.997317 0.150204
vt 0.703742 0.080905
vt 0.697416 0.050283
vt 0.997317 0.727697
vt 0.997317 0.001707
vt 0.664513 0.265963
vt 0.687483 0.001707
vt 0.641375 0.533468
vn -0.4181 0.9051 0.0771
vn -0.3966 0.9142 0.0829
vn -0.3910 0.9158 0.0916
vn -0.2982 0.9074 -0.2962
vn -0.3967 0.9156 0.0665
vn -0.1989 0.0945 -0.9755
vn -0.9137 0.2205 -0.3413
vn -0.9149 0.2224 -0.3369
vn -0.1950 0.0922 -0.9765
vn -0.2132 0.8958 0.3900
vn -0.2112 0.8958 0.3911
vn -0.9762 0.1997 0.0849
vn -0.9758 0.2017 0.0844
vn -0.1954 0.0921 -0.9764
vn -0.9758 0.2017 0.0845
vn -0.9758 0.2020 0.0839
vn 1.0000 0.0000 0.0000
vn 0.0000 0.0000 1.0000
vn 0.0000 -1.0000 0.0000
usemtl Stone
s off
f 83/113/36 82/114/36 80/115/36
f 89/116/37 80/117/37 82/114/37
f 82/118/38 87/119/38 89/120/38
f 81/121/39 91/122/39 88/123/39
f 90/124/40 81/125/40 80/126/40
f 99/127/41 80/115/41 81/125/41
f 100/128/42 98/129/42 80/115/42
f 83/130/43 98/131/43 96/132/43
f 81/121/44 86/133/44 99/134/44
f 82/135/45 95/136/45 94/137/45
f 84/138/46 85/139/46 94/140/46
f 97/141/47 92/142/47 93/143/47
f 96/144/48 97/145/48 82/135/48
f 89/116/37 90/146/37 80/117/37
f 90/124/40 91/147/40 81/125/40
f 99/127/41 100/148/41 80/115/41
f 83/130/43 80/115/43 98/131/43
f 81/121/49 88/149/49 86/133/49
f 94/137/45 85/150/45 82/135/45
f 85/150/45 87/151/45 82/135/45
f 93/152/50 95/153/50 97/145/50
f 95/153/50 82/135/50 97/145/50
f 82/135/51 83/113/51 96/144/51
s 1
f 106/154/52 111/155/52 104/156/52
f 116/157/53 110/158/53 113/159/53
f 120/160/54 121/161/54 122/162/54
f 111/155/52 101/163/52 104/156/52
f 101/163/52 102/164/52 103/165/52
f 104/156/52 101/163/52 103/165/52
f 104/156/52 105/166/52 106/154/52
f 106/154/52 107/167/52 109/168/52
f 109/168/52 111/155/52 106/154/52
f 108/169/53 113/159/53 110/158/53
f 113/159/53 114/170/53 115/171/53
f 116/157/53 113/159/53 115/171/53
f 122/162/54 112/172/54 120/160/54
f 112/172/54 79/173/54 118/174/54
f 79/173/54 117/175/54 118/174/54
f 118/174/54 119/176/54 112/172/54
f 119/176/54 120/160/54 112/172/54
o Neue_Welt_(10)__2547_58_-1089_to_2595_255_-1061.001_cell.011_Neue_Welt_(10)__2547_58_-1089_to_2595_255_-1061.001_cell.017
v -0.500000 0.500000 0.500000
v 0.191028 -0.213502 0.105436
v 0.062273 -0.009062 -0.240230
v 0.248045 -0.145012 -0.200195
v 0.333465 -0.126378 -0.178013
v -0.059915 -0.033724 -0.058040
v 0.181986 -0.207188 -0.011988
v 0.248595 -0.164798 -0.164808
v -0.500000 0.280093 0.500000
v -0.500000 0.280170 0.440038
v -0.500000 0.289595 0.366741
v -0.500000 0.280446 0.371879
v -0.500000 0.500000 0.249870
v 0.500000 0.500000 0.184216
v 0.500000 -0.032364 -0.054549
v 0.500000 -0.064053 -0.068828
v 0.500000 -0.060586 -0.108353
v 0.500000 -0.055284 -0.134585
v 0.500000 -0.058584 -0.128763
v 0.500000 0.004633 -0.132157
v 0.500000 0.500000 -0.111570
v 0.095869 0.500000 0.500000
v -0.083907 0.500000 -0.255714
v -0.114740 0.500000 -0.263298
v -0.124521 0.500000 -0.265690
v 0.470239 0.500000 0.207498
v -0.200034 0.064603 0.500000
v -0.343990 0.167940 0.500000
v -0.153263 0.064665 0.500000
v -0.166927 0.040953 0.500000
v -0.177295 0.048313 0.500000
v -0.112224 0.136245 0.500000
v -0.500000 0.280446 0.371879
v -0.500000 0.280170 0.440038
v -0.500000 0.280093 0.500000
v -0.500000 0.280093 0.500000
v -0.500000 0.500000 0.500000
v -0.500000 0.500000 0.500000
v -0.500000 0.500000 0.249870
v -0.500000 0.500000 0.249870
v -0.500000 0.289595 0.366741
v 0.500000 -0.055284 -0.134585
v 0.500000 0.004633 -0.132157
v 0.500000 0.500000 -0.111570
v 0.500000 0.500000 -0.111570
v 0.500000 0.500000 0.184216
v 0.500000 0.500000 0.184216
v 0.500000 -0.032364 -0.054549
v 0.500000 -0.064053 -0.068828
v 0.500000 -0.058584 -0.128763
v 0.500000 -0.060586 -0.108353
v -0.114740 0.500000 -0.263298
v -0.124521 0.500000 -0.265690
v 0.095869 0.500000 0.500000
v 0.095869 0.500000 0.500000
v 0.470239 0.500000 0.207498
v -0.083907 0.500000 -0.255714
v -0.177295 0.048313 0.500000
v -0.166927 0.040953 0.500000
v -0.153263 0.064665 0.500000
v -0.112224 0.136245 0.500000
v -0.343990 0.167940 0.500000
v -0.200034 0.064603 0.500000
vt 0.163671 0.163671
vt 0.836329 0.163671
vt 0.836329 0.836329
vt 0.163671 0.163671
vt 0.836329 0.163671
vt 0.836329 0.163671
vt 0.836329 0.836329
vt 0.163671 0.163671
vt 0.836329 0.836329
vt 0.836329 0.779058
vt 0.268585 0.211811
vt 0.836329 0.211981
vt 0.211981 0.211981
vt 0.836329 0.163671
vt 0.779058 0.779058
vt 0.787911 0.787911
vt 0.836329 0.776138
vt 0.766121 0.163671
vt 0.765639 0.677551
vt 0.252308 0.163671
vt 0.792131 0.163671
vt 0.766121 0.766121
vt 0.252308 0.252308
vt 0.836329 0.725218
vt 0.275486 0.163671
vt 0.836329 0.163671
vt 0.725218 0.725218
vt 0.681617 0.681617
vt 0.836329 0.218674
vt 0.163671 0.163671
vt 0.767614 0.163671
vt 0.836329 0.574565
vt 0.524093 0.263069
vt 0.836329 0.263506
vt 0.836329 0.780549
vt 0.574565 0.574565
vt 0.836329 0.775982
vt 0.836329 0.163671
vt 0.836329 0.760059
vt 0.836329 0.163671
vt 0.163671 0.163671
vt 0.742439 0.163671
vt 0.836329 0.207869
vt 0.218674 0.218674
vt 0.776138 0.776138
vt 0.742439 0.742439
vt 0.274580 0.163671
vt 0.836329 0.787911
vt 0.163671 0.163671
vt 0.216086 0.163671
vt 0.792366 0.771165
vt 0.836329 0.681617
vt 0.263506 0.263506
vt 0.232386 0.163671
vt 0.780550 0.780550
vt 0.775982 0.775982
vt 0.836329 0.783914
vt 0.760059 0.760059
vt 0.824569 0.218468
vt 0.836329 0.724514
vt 0.937618 0.778840
vt 0.997317 0.997813
vt 0.864643 0.788228
vt 0.631089 0.504375
vt 0.553821 0.467522
vt 0.607389 0.439410
vt 0.001706 0.250863
vt 0.594959 0.001707
vt 0.415973 0.754479
vt 0.157031 0.667046
vt 0.300356 0.564112
vt 0.387780 0.635475
vt 0.869758 0.779114
vt 0.997317 0.778762
vt 0.748285 0.997814
vt 0.627710 0.441404
vt 0.633506 0.444692
vt 0.610592 0.997813
vt 0.316104 0.997813
vt 0.568037 0.435956
vt 0.385276 0.762033
vt 0.375538 0.764416
vt 0.001706 0.001707
vt 0.967687 0.293070
vt 0.997317 0.316261
vt 0.997317 0.610896
vt 0.322995 0.547885
vt 0.346922 0.564174
vt 0.333318 0.540554
vt 0.594959 0.997813
vt 0.001706 0.997813
vt 0.001706 0.778762
vn 0.3028 -0.8299 -0.4687
vn -0.4735 -0.7719 -0.4242
vn -0.4744 -0.7722 -0.4227
vn -0.4742 -0.7731 -0.4212
vn 0.2395 0.0403 -0.9701
vn 0.2387 0.0393 -0.9703
vn 0.2374 0.0386 -0.9706
vn 0.5807 -0.3322 0.7432
vn 0.5810 -0.3331 0.7427
vn 0.3985 -0.9128 -0.0895
vn 0.3987 -0.9124 -0.0922
vn 0.2503 0.0050 -0.9681
vn -0.7686 -0.3132 -0.5579
vn -0.5837 -0.8120 -0.0011
vn -0.5831 -0.8124 -0.0033
vn -0.5824 -0.8129 -0.0030
vn -0.5789 -0.8154 0.0007
vn 0.5805 -0.3345 0.7424
vn -0.7687 -0.3100 -0.5595
vn 0.3972 -0.9142 -0.0797
vn 0.4472 -0.7781 -0.4411
vn -0.7686 -0.3132 -0.5578
vn -0.7683 -0.3108 -0.5596
vn 0.3971 -0.9142 -0.0805
vn 0.3970 -0.9143 -0.0802
vn -1.0000 0.0000 0.0000
vn 1.0000 0.0000 0.0000
vn 0.0000 1.0000 0.0000
vn 0.0000 0.0000 1.0000
usemtl Stone
s off
f 127/177/55 130/178/55 126/179/55
f 130/180/56 125/181/56 126/179/56
f 130/180/57 128/182/57 125/183/57
f 129/184/58 128/182/58 130/185/58
f 145/186/59 143/187/59 142/188/59
f 142/189/60 126/190/60 145/191/60
f 146/192/61 125/181/61 147/193/61
f 148/194/62 144/195/62 154/196/62
f 137/197/63 148/198/63 154/199/63
f 130/178/64 141/200/64 139/201/64
f 127/202/65 141/203/65 130/180/65
f 140/204/66 127/177/66 126/190/66
f 133/205/67 128/206/67 134/207/67
f 150/208/68 131/209/68 132/210/68
f 128/182/69 149/211/69 150/212/69
f 153/213/70 128/206/70 129/214/70
f 152/215/71 129/184/71 124/216/71
f 124/217/72 138/218/72 137/219/72
f 133/220/73 147/221/73 125/183/73
f 138/222/74 124/217/74 129/184/74
f 140/223/60 126/190/60 142/189/60
f 126/190/60 146/224/60 145/191/60
f 146/192/61 126/225/61 125/181/61
f 154/199/63 151/226/63 137/197/63
f 137/197/63 136/227/63 148/198/63
f 127/202/75 140/228/75 141/203/75
f 133/205/76 125/183/76 128/206/76
f 132/229/69 134/230/69 150/212/69
f 134/230/69 128/182/69 150/212/69
f 153/213/70 149/231/70 128/206/70
f 152/215/71 153/232/71 129/184/71
f 137/219/72 151/233/72 124/217/72
f 151/233/72 152/234/72 124/217/72
f 133/220/77 135/235/77 147/221/77
f 129/184/78 130/178/78 138/222/78
f 130/178/79 139/236/79 138/222/79
s 1
f 156/237/80 159/238/80 163/239/80
f 165/240/81 170/241/81 173/242/81
f 162/243/82 176/244/82 179/245/82
f 184/246/83 185/247/83 183/248/83
f 163/239/80 155/249/80 156/237/80
f 156/237/80 157/250/80 159/238/80
f 159/238/80 161/251/80 163/239/80
f 172/252/81 164/253/81 173/242/81
f 164/253/81 165/240/81 173/242/81
f 165/240/81 166/254/81 170/241/81
f 166/254/81 168/255/81 170/241/81
f 170/241/81 171/256/81 173/242/81
f 179/245/82 174/257/82 162/243/82
f 174/257/82 175/258/82 162/243/82
f 162/243/82 160/259/82 176/244/82
f 176/244/82 178/260/82 179/245/82
f 178/260/82 169/261/82 167/262/82
f 167/262/82 179/245/82 178/260/82
f 185/247/83 180/263/83 182/264/83
f 180/263/83 181/265/83 182/264/83
f 182/264/83 183/248/83 185/247/83
f 183/248/83 177/266/83 184/246/83
f 177/266/83 123/267/83 184/246/83
f 123/267/83 158/268/83 184/246/83
o Neue_Welt_(10)__2547_58_-1089_to_2595_255_-1061.001_cell.012_Neue_Welt_(10)__2547_58_-1089_to_2595_255_-1061.001_cell.018
v -0.500000 0.500000 -0.500000
v -0.101731 -0.028691 -0.075409
v 0.029024 -0.002097 -0.269699
v -0.500000 0.255301 0.313770
v -0.500000 0.265690 0.308003
v -0.500000 0.500000 0.177603
v -0.500000 -0.075624 -0.206999
v -0.500000 -0.077669 -0.163218
v -0.500000 -0.061652 -0.500000
v -0.057191 -0.002919 -0.500000
v -0.019837 0.115946 -0.500000
v -0.161191 0.500000 -0.500000
v 0.020035 0.007389 -0.500000
v 0.005509 0.005437 -0.500000
v -0.155993 0.500000 -0.294751
v -0.156606 0.500000 -0.320376
v -0.500000 0.255301 0.313770
v -0.500000 0.265690 0.308003
v -0.500000 0.500000 0.177603
v -0.500000 0.500000 0.177603
v -0.500000 0.500000 -0.500000
v -0.500000 0.500000 -0.500000
v -0.500000 -0.061652 -0.500000
v -0.500000 -0.061652 -0.500000
v -0.500000 -0.075624 -0.206999
v -0.500000 -0.077669 -0.163218
v -0.019837 0.115946 -0.500000
v 0.020035 0.007389 -0.500000
v 0.005509 0.005437 -0.500000
v -0.057191 -0.002919 -0.500000
v -0.161191 0.500000 -0.500000
v -0.161191 0.500000 -0.500000
v -0.155993 0.500000 -0.294751
v -0.156606 0.500000 -0.320376
vt 0.774667 0.774667
vt 0.296324 0.296324
vt 0.774530 0.297467
vt 0.382487 0.253464
vt 0.836329 0.778014
vt 0.163671 0.163671
vt 0.163671 0.163671
vt 0.716710 0.163671
vt 0.836329 0.296324
vt 0.252868 0.163671
vt 0.777526 0.163671
vt 0.776843 0.687071
vt 0.238205 0.163671
vt 0.836329 0.163671
vt 0.836329 0.761013
vt 0.836329 0.765699
vt 0.716710 0.716710
vt 0.836329 0.222474
vt 0.836329 0.747132
vt 0.761013 0.761013
vt 0.836329 0.163671
vt 0.836329 0.775957
vt 0.836329 0.774667
vt 0.775957 0.775957
vt 0.765699 0.765699
vt 0.761795 0.163671
vt 0.001706 0.997813
vt 0.001706 0.438349
vt 0.293421 0.424431
vt 0.556452 0.496852
vt 0.997317 0.438349
vt 0.519262 0.615255
vt 0.001706 0.997813
vt 0.344203 0.793364
vt 0.343594 0.818889
vt 0.337010 0.422393
vt 0.811904 0.754067
vt 0.806163 0.764416
vt 0.676335 0.997813
vt 0.659995 0.997813
vt 0.997317 0.997813
vt 0.479565 0.507121
vt 0.494027 0.505176
vt 0.339029 0.997813
vt 0.001706 0.322849
vn 0.9382 0.3453 -0.0239
vn 0.7684 0.3112 0.5592
vn 0.9384 0.3447 -0.0224
vn 0.1313 -0.9902 -0.0472
vn -0.0254 -0.8197 0.5722
vn 0.1331 -0.9900 -0.0460
vn 0.1320 -0.9902 -0.0463
vn 0.7683 0.3106 0.5596
vn 0.7682 0.3110 0.5596
vn 0.7683 0.3110 0.5595
vn -1.0000 0.0000 0.0000
vn 0.0000 0.0000 -1.0000
vn 0.0000 1.0000 0.0000
usemtl Stone
s off
f 201/269/84 196/270/84 197/271/84
f 191/272/85 190/273/85 187/274/85
f 188/275/86 198/276/86 196/277/86
f 195/278/87 192/279/87 194/280/87
f 193/281/88 187/282/88 189/283/88
f 188/275/89 199/284/89 198/285/89
f 187/274/90 192/286/90 195/287/90
f 189/288/91 187/274/91 190/273/91
f 187/274/92 188/289/92 200/290/92
f 191/272/93 187/274/93 200/290/93
f 201/291/86 200/292/86 196/277/86
f 200/292/86 188/275/86 196/277/86
f 188/275/89 187/282/89 199/284/89
f 195/287/90 199/293/90 187/274/90
f 187/274/90 193/294/90 192/286/90
s 1
f 206/295/94 208/296/94 210/297/94
f 215/298/95 209/299/95 212/300/95
f 186/301/96 218/302/96 219/303/96
f 211/304/94 202/305/94 203/306/94
f 203/306/94 204/307/94 211/304/94
f 204/307/94 206/295/94 211/304/94
f 211/304/94 206/295/94 210/297/94
f 216/308/95 212/300/95 207/309/95
f 212/300/95 213/310/95 214/311/95
f 207/309/95 212/300/95 209/299/95
f 214/311/95 215/298/95 212/300/95
f 219/303/96 217/312/96 186/301/96
f 186/301/96 205/313/96 218/302/96
o Neue_Welt_(10)__2547_58_-1089_to_2595_255_-1061.001_cell.013_Neue_Welt_(10)__2547_58_-1089_to_2595_255_-1061.001_cell.019
v 0.500000 0.500000 -0.500000
v 0.072980 -0.005537 -0.278654
v 0.247910 -0.134254 -0.240821
v 0.412941 -0.097863 -0.198999
v 0.021546 0.117885 -0.500000
v 0.063698 0.003278 -0.500000
v 0.091946 -0.017453 -0.500000
v -0.118649 0.500000 -0.500000
v 0.220419 -0.111566 -0.500000
v 0.500000 -0.042166 -0.500000
v 0.500000 0.500000 -0.152820
v 0.500000 -0.062505 -0.176218
v 0.500000 -0.057413 -0.175992
v 0.500000 0.436961 -0.155394
v 0.500000 -0.073394 -0.225992
v 0.500000 -0.074658 -0.214230
v -0.114319 0.500000 -0.328760
v -0.113644 0.500000 -0.304038
v 0.021546 0.117885 -0.500000
v -0.118649 0.500000 -0.500000
v -0.118649 0.500000 -0.500000
v 0.500000 0.500000 -0.500000
v 0.500000 0.500000 -0.500000
v 0.500000 -0.042166 -0.500000
v 0.500000 -0.042166 -0.500000
v 0.220419 -0.111566 -0.500000
v 0.091946 -0.017453 -0.500000
v 0.063698 0.003278 -0.500000
v 0.500000 0.500000 -0.152820
v 0.500000 0.500000 -0.152820
v 0.500000 0.436961 -0.155394
v 0.500000 -0.057413 -0.175992
v 0.500000 -0.062505 -0.176218
v 0.500000 -0.074658 -0.214230
v 0.500000 -0.073394 -0.225992
v -0.113644 0.500000 -0.304038
v -0.114319 0.500000 -0.328760
vt 0.836329 0.273289
vt 0.163671 0.163671
vt 0.711453 0.163671
vt 0.836329 0.836329
vt 0.273289 0.273289
vt 0.836329 0.272752
vt 0.836329 0.163671
vt 0.275582 0.275582
vt 0.410028 0.163671
vt 0.163671 0.163671
vt 0.836329 0.275479
vt 0.275479 0.275479
vt 0.836329 0.274428
vt 0.367469 0.264288
vt 0.272752 0.272752
vt 0.223780 0.223780
vt 0.224975 0.163671
vt 0.697183 0.163671
vt 0.224975 0.224975
vt 0.698595 0.224994
vt 0.697183 0.697183
vt 0.836329 0.589971
vt 0.409856 0.163671
vt 0.836329 0.163671
vt 0.274428 0.274428
vt 0.590144 0.163671
vt 0.836329 0.275582
vt 0.836329 0.288547
vt 0.836329 0.836329
vt 0.230760 0.223722
vt 0.836329 0.223780
vt 0.001706 0.457758
vt 0.280060 0.388629
vt 0.407969 0.482375
vt 0.724511 0.426652
vt 0.674731 0.442571
vt 0.712802 0.425393
vt 0.997317 0.997813
vt 0.381384 0.997813
vt 0.385695 0.827240
vt 0.436093 0.503025
vt 0.478060 0.617186
vt 0.617640 0.997813
vt 0.001706 0.997813
vt 0.997317 0.457758
vt 0.654224 0.935020
vt 0.997317 0.997813
vt 0.651661 0.997813
vt 0.674957 0.437499
vt 0.386366 0.802614
vt 0.997317 0.651985
vn -0.5916 -0.8062 -0.0073
vn -0.5909 -0.8067 -0.0079
vn 0.2392 -0.9654 -0.1038
vn -0.2365 -0.0432 0.9707
vn -0.2373 -0.0404 0.9706
vn 0.2395 -0.9647 -0.1098
vn -0.9382 -0.3451 0.0256
vn -0.9385 -0.3443 0.0237
vn 0.2936 -0.9105 0.2911
vn -0.2390 -0.0396 0.9702
vn 0.2394 -0.9647 -0.1099
vn -0.2391 -0.0396 0.9702
vn -0.2391 -0.0395 0.9702
vn 0.0000 0.0000 -1.0000
vn 1.0000 0.0000 0.0000
vn 0.0000 1.0000 0.0000
usemtl Stone
s off
f 226/314/97 221/315/97 225/316/97
f 222/317/98 226/318/98 228/319/98
f 223/320/99 234/321/99 235/322/99
f 223/323/100 232/324/100 222/317/100
f 222/317/101 232/325/101 233/326/101
f 229/327/102 222/317/102 228/328/102
f 237/329/103 236/330/103 224/331/103
f 236/332/104 227/333/104 224/334/104
f 223/320/105 235/335/105 231/336/105
f 221/337/106 222/317/106 233/338/106
f 226/314/97 222/317/97 221/315/97
f 223/320/99 222/317/99 234/321/99
f 223/323/100 231/339/100 232/324/100
f 229/327/107 234/340/107 222/317/107
f 224/331/103 225/341/103 221/342/103
f 221/342/103 237/329/103 224/331/103
f 230/343/108 237/344/108 233/338/108
f 237/344/109 221/337/109 233/338/109
s 1
f 243/345/110 245/346/110 246/347/110
f 254/348/111 251/349/111 253/350/111
f 220/351/112 240/352/112 256/353/112
f 247/354/110 238/355/110 246/347/110
f 238/355/110 239/356/110 241/357/110
f 246/347/110 238/355/110 243/345/110
f 241/357/110 243/345/110 238/355/110
f 254/348/111 244/358/111 250/359/111
f 244/358/111 242/360/111 250/359/111
f 242/360/111 248/361/111 250/359/111
f 250/359/111 251/349/111 254/348/111
f 251/349/111 252/362/111 253/350/111
f 256/353/112 255/363/112 249/364/112
f 249/364/112 220/351/112 256/353/112
o Neue_Welt_(10)__2547_58_-1089_to_2595_255_-1061.001_cell.014_Neue_Welt_(10)__2547_58_-1089_to_2595_255_-1061.001_cell.020
v 0.500000 0.500000 0.500000
v 0.196482 -0.225598 0.149719
v 0.500000 -0.306027 0.500000
v 0.500000 -0.303261 0.493637
v 0.500000 -0.048280 -0.008669
v 0.500000 -0.078443 -0.022143
v 0.500000 0.500000 0.237523
v 0.164415 0.500000 0.500000
v -0.121579 0.001190 0.500000
v -0.107263 0.026279 0.500000
v 0.195800 -0.378057 0.500000
v 0.500000 0.500000 0.237523
v 0.500000 0.500000 0.237523
v 0.500000 0.500000 0.500000
v 0.500000 0.500000 0.500000
v 0.500000 -0.306027 0.500000
v 0.500000 -0.306027 0.500000
v 0.500000 -0.303261 0.493637
v 0.500000 -0.078443 -0.022143
v 0.500000 -0.048280 -0.008669
v 0.164415 0.500000 0.500000
v 0.164415 0.500000 0.500000
v 0.195800 -0.378057 0.500000
v -0.107263 0.026279 0.500000
v -0.121579 0.001190 0.500000
vt 0.836329 0.740973
vt 0.248217 0.163671
vt 0.836329 0.163671
vt 0.163671 0.163671
vt 0.741776 0.163671
vt 0.740973 0.740973
vt 0.247828 0.163671
vt 0.836329 0.751782
vt 0.789737 0.163671
vt 0.836329 0.836329
vt 0.219795 0.163671
vt 0.789737 0.789737
vt 0.220034 0.219582
vt 0.756769 0.219351
vt 0.825670 0.740996
vt 0.836329 0.258224
vt 0.247828 0.247828
vt 0.219795 0.219795
vt 0.001706 0.997813
vt 0.008041 0.197680
vt 0.508143 0.451668
vt 0.663205 0.001707
vt 0.997317 0.001707
vt 0.997317 0.263162
vt 0.663205 0.997814
vt 0.392720 0.525936
vt 0.997317 0.194925
vt 0.263031 0.997813
vt 0.001706 0.194925
vt 0.521557 0.421622
vt 0.378466 0.500945
vt 0.694452 0.123175
vt 0.997317 0.997813
vn 0.2122 -0.8962 -0.3896
vn 0.2132 -0.8956 -0.3904
vn -0.7383 -0.6179 -0.2704
vn -0.5815 0.3318 -0.7428
vn -0.5808 0.3334 -0.7426
vn -0.5811 0.3332 -0.7425
vn 1.0000 0.0000 0.0000
vn 0.0000 1.0000 0.0000
vn 0.0000 0.0000 1.0000
usemtl Stone
s off
f 260/365/113 267/366/113 258/367/113
f 258/368/114 262/369/114 260/370/114
f 265/371/115 258/367/115 267/372/115
f 261/373/116 258/374/116 266/375/116
f 261/376/117 264/377/117 263/378/117
f 260/365/113 259/379/113 267/366/113
f 262/380/116 258/374/116 261/373/116
f 258/374/116 265/381/116 266/375/116
f 261/376/118 266/382/118 264/377/118
s 1
f 270/383/119 274/384/119 276/385/119
f 277/386/120 271/387/120 269/388/120
f 278/389/121 280/390/121 273/391/121
f 276/385/119 268/392/119 270/383/119
f 270/383/119 272/393/119 274/384/119
f 274/384/119 275/394/119 276/385/119
f 281/395/121 279/396/121 280/390/121
f 279/396/121 273/391/121 280/390/121
f 273/391/121 257/397/121 278/389/121
o Neue_Welt_(10)__2547_58_-1089_to_2595_255_-1061.001_cell.015_Neue_Welt_(10)__2547_58_-1089_to_2595_255_-1061.001_cell.021
v 0.500000 -0.500000 -0.500000
v 0.263220 -0.191503 -0.193009
v 0.339914 -0.156811 -0.205318
v 0.263090 -0.174166 -0.224532
v 0.157200 -0.500000 -0.500000
v 0.233388 -0.151018 -0.500000
v 0.500000 -0.083497 -0.500000
v 0.280420 -0.137359 -0.500000
v 0.244639 -0.146241 -0.500000
v 0.500000 -0.487456 -0.268362
v 0.500000 -0.500000 -0.269567
v 0.500000 -0.116328 -0.233052
v 0.500000 -0.107312 -0.289371
v 0.193808 -0.500000 -0.208898
v 0.500000 -0.500000 -0.500000
v 0.500000 -0.500000 -0.500000
v 0.157200 -0.500000 -0.500000
v 0.157200 -0.500000 -0.500000
v 0.500000 -0.107312 -0.289371
v 0.500000 -0.116328 -0.233052
v 0.233388 -0.151018 -0.500000
v 0.244639 -0.146241 -0.500000
v 0.280420 -0.137359 -0.500000
v 0.500000 -0.083497 -0.500000
v 0.500000 -0.083497 -0.500000
v 0.500000 -0.487456 -0.268362
v 0.500000 -0.500000 -0.269567
v 0.500000 -0.500000 -0.269567
v 0.193808 -0.500000 -0.208898
vt 0.163671 0.163671
vt 0.836329 0.163671
vt 0.836329 0.836329
vt 0.719604 0.719604
vt 0.742580 0.163671
vt 0.743148 0.724776
vt 0.836329 0.163671
vt 0.836329 0.719604
vt 0.280780 0.163671
vt 0.272236 0.163671
vt 0.731853 0.163671
vt 0.731961 0.622495
vt 0.836329 0.163671
vt 0.836329 0.676450
vt 0.731853 0.731853
vt 0.676450 0.676450
vt 0.163671 0.163671
vt 0.836329 0.257481
vt 0.836329 0.739166
vt 0.733426 0.733426
vt 0.752881 0.263337
vt 0.163671 0.163671
vt 0.742519 0.163671
vt 0.272236 0.272236
vt 0.260834 0.163671
vt 0.742580 0.742580
vt 0.266701 0.351339
vt 0.255947 0.354088
vt 0.220323 0.362936
vt 0.766696 0.014202
vt 0.997317 0.001707
vt 0.787613 0.392866
vt 0.656022 0.997813
vt 0.997317 0.768278
vt 0.692469 0.707845
vt 0.001706 0.416588
vt 0.001706 0.001707
vt 0.343002 0.001707
vt 0.731541 0.383885
vt 0.767896 0.001707
vt 0.997317 0.416589
vt 0.997317 0.997813
vn -0.3036 0.8343 0.4601
vn 0.1935 -0.0938 0.9766
vn 0.1946 -0.0929 0.9765
vn -0.2368 0.9654 0.1092
vn -0.2170 0.9639 0.1543
vn 0.1857 -0.0627 0.9806
vn -0.9687 0.2156 0.1226
vn -0.3880 0.9140 0.1186
vn -0.9697 0.2117 0.1221
vn -0.2394 0.9644 0.1120
vn -0.2460 0.9625 0.1140
vn -0.9697 0.2119 0.1219
vn 0.0000 0.0000 -1.0000
vn 1.0000 0.0000 0.0000
vn 0.0000 -1.0000 0.0000
usemtl Stone
s off
f 284/398/122 285/399/122 283/400/122
f 291/401/123 295/402/123 292/403/123
f 283/404/124 291/405/124 293/406/124
f 289/407/125 294/408/125 288/409/125
f 284/410/126 293/411/126 294/412/126
f 293/413/127 284/398/127 283/404/127
f 285/414/128 287/415/128 283/400/128
f 285/414/129 290/416/129 287/417/129
f 286/418/130 283/419/130 287/420/130
f 291/401/123 283/419/123 295/402/123
f 294/412/131 289/421/131 284/410/131
f 289/421/131 290/422/131 284/410/131
f 285/414/132 284/410/132 290/416/132
f 286/418/133 295/423/133 283/419/133
s 1
f 302/424/134 303/425/134 304/426/134
f 307/427/135 297/428/135 300/429/135
f 299/430/136 309/431/136 310/432/136
f 305/433/134 296/434/134 304/426/134
f 296/434/134 298/435/134 304/426/134
f 304/426/134 298/435/134 302/424/134
f 300/429/135 301/436/135 307/427/135
f 307/427/135 308/437/135 297/428/135
f 297/428/135 306/438/135 300/429/135
f 299/430/136 282/439/136 309/431/136
