# Blender v2.91.0 OBJ File: 'physics_test.blend'
# www.blender.org
mtllib physics_shattered_little_3.mtl
o Neue_Welt_(10)__2547_58_-1089_to_2595_255_-1061.001_cell.023_Neue_Welt_(10)__2547_58_-1089_to_2595_255_-1061.001_cell.037
v -0.500000 -0.500000 -0.500000
v -0.434761 0.267919 -0.257728
v -0.155214 -0.019825 -0.286376
v -0.094096 -0.461891 -0.188595
v -0.500000 -0.195772 -0.104735
v -0.500000 -0.500000 -0.020892
v -0.500000 0.228351 -0.221780
v -0.500000 0.158975 -0.500000
v -0.345844 0.273781 -0.500000
v -0.219337 -0.500000 -0.500000
v -0.252206 0.174404 -0.500000
v -0.301870 0.227674 -0.500000
v -0.252337 -0.500000 -0.116645
v -0.108622 -0.500000 -0.229332
v -0.098261 -0.500000 -0.203598
v -0.167281 -0.500000 -0.149688
v -0.500000 -0.500000 -0.500000
v -0.500000 -0.500000 -0.500000
v -0.500000 -0.500000 -0.020892
v -0.500000 -0.500000 -0.020892
v -0.500000 -0.195772 -0.104735
v -0.500000 0.228351 -0.221780
v -0.500000 0.158975 -0.500000
v -0.500000 0.158975 -0.500000
v -0.219337 -0.500000 -0.500000
v -0.219337 -0.500000 -0.500000
v -0.345844 0.273781 -0.500000
v -0.301870 0.227674 -0.500000
v -0.252206 0.174404 -0.500000
v -0.167281 -0.500000 -0.149688
v -0.252337 -0.500000 -0.116645
v -0.108622 -0.500000 -0.229332
v -0.098261 -0.500000 -0.203598
vt 0.707554 0.229882
vt 0.876355 0.876355
vt 0.253464 0.253464
vt 0.123645 0.123645
vt 0.548055 0.123645
vt 0.550114 0.550114
vt 0.876355 0.550114
vt 0.843930 0.772377
vt 0.193995 0.123645
vt 0.805090 0.805090
vt 0.876355 0.123645
vt 0.876355 0.448412
vt 0.448412 0.448412
vt 0.123645 0.123645
vt 0.451048 0.123645
vt 0.876355 0.806005
vt 0.451048 0.451048
vt 0.265338 0.265338
vt 0.876355 0.123645
vt 0.876355 0.876355
vt 0.251427 0.251427
vt 0.876355 0.253464
vt 0.804952 0.746580
vt 0.123645 0.123645
vt 0.805090 0.123645
vt 0.876355 0.451945
vt 0.876355 0.123645
vt 0.251427 0.123645
vt 0.265338 0.123645
vt 0.395236 0.304750
vt 0.278706 0.727222
vt 0.001706 0.658116
vt 0.750610 0.673485
vt 0.997317 0.658116
vt 0.800057 0.726547
vt 0.281138 0.997813
vt 0.391366 0.728199
vt 0.248282 0.615951
vt 0.001706 0.001707
vt 0.478712 0.001707
vt 0.717886 0.001707
vt 0.997317 0.001707
vt 0.843838 0.772475
vt 0.401682 0.702565
vt 0.332965 0.648865
vt 0.001706 0.520571
vt 0.001706 0.997813
vn -0.5857 0.7865 -0.1959
vn 0.3469 0.2495 0.9041
vn 0.3493 0.2490 0.9033
vn 0.9267 0.0456 -0.3731
vn 0.5759 -0.3532 0.7373
vn 0.3508 0.2482 0.9030
vn 0.7029 0.6553 0.2767
vn 0.6964 0.6642 0.2717
vn 0.9246 0.0448 -0.3782
vn -0.5853 0.7867 -0.1962
vn 0.3490 0.2488 0.9035
vn 0.3489 0.2490 0.9035
vn 0.9244 0.0451 -0.3787
vn -1.0000 0.0000 0.0000
vn 0.0000 0.0000 -1.0000
vn 0.0000 -1.0000 0.0000
usemtl Stone
s off
f 8/1/1 2/2/1 9/3/1
f 2/4/2 7/5/2 5/6/2
f 5/7/3 6/8/3 13/9/3
f 14/10/4 4/11/4 15/12/4
f 15/13/5 4/14/5 16/15/5
f 4/14/6 13/16/6 16/17/6
f 11/18/7 2/19/7 3/20/7
f 2/2/8 12/21/8 9/22/8
f 10/23/9 3/24/9 14/25/9
f 8/1/10 7/26/10 2/2/10
f 13/9/11 3/24/11 5/7/11
f 3/24/12 2/19/12 5/7/12
f 14/10/4 3/24/4 4/11/4
f 4/14/6 3/27/6 13/16/6
f 11/18/7 12/28/7 2/19/7
f 10/23/13 11/29/13 3/24/13
s 1
f 21/30/14 22/31/14 23/32/14
f 29/33/15 24/34/15 28/35/15
f 26/36/16 32/37/16 31/38/16
f 23/32/14 17/39/14 21/30/14
f 17/39/14 19/40/14 21/30/14
f 29/33/15 25/41/15 24/34/15
f 25/41/15 18/42/15 24/34/15
f 24/34/15 27/43/15 28/35/15
f 33/44/16 30/45/16 32/37/16
f 30/45/16 31/38/16 32/37/16
f 31/38/16 20/46/16 1/47/16
f 1/47/16 26/36/16 31/38/16
o Neue_Welt_(10)__2547_58_-1089_to_2595_255_-1061.001_cell.024_Neue_Welt_(10)__2547_58_-1089_to_2595_255_-1061.001_cell.038
v 0.500000 -0.500000 0.500000
v -0.062299 -0.474329 -0.164254
v 0.152556 -0.358476 -0.136746
v 0.500000 -0.500000 -0.160047
v 0.500000 -0.168171 0.270055
v 0.500000 -0.165489 0.464015
v 0.500000 -0.165027 0.500000
v -0.128166 -0.500000 0.500000
v -0.113161 -0.500000 -0.100836
v -0.013113 -0.500000 -0.179195
v -0.065412 -0.500000 -0.174416
v -0.111402 -0.500000 -0.138408
v -0.125063 -0.500000 0.371069
v 0.446135 -0.500000 -0.184873
v 0.383956 -0.500000 -0.213112
v 0.500000 -0.165027 0.500000
v 0.500000 -0.165027 0.500000
v 0.500000 -0.500000 0.500000
v 0.500000 -0.500000 0.500000
v 0.500000 -0.500000 -0.160047
v 0.500000 -0.500000 -0.160047
v 0.500000 -0.168171 0.270055
v 0.500000 -0.165489 0.464015
v -0.128166 -0.500000 0.500000
v -0.128166 -0.500000 0.500000
v -0.125063 -0.500000 0.371069
v -0.113161 -0.500000 -0.100836
v -0.111402 -0.500000 -0.138408
v -0.065412 -0.500000 -0.174416
v -0.013113 -0.500000 -0.179195
v 0.383956 -0.500000 -0.213112
v 0.446135 -0.500000 -0.184873
vt 0.218204 0.123645
vt 0.876355 0.680402
vt 0.810739 0.756093
vt 0.123645 0.123645
vt 0.680158 0.123645
vt 0.680402 0.680402
vt 0.876355 0.123645
vt 0.876355 0.781796
vt 0.219016 0.123645
vt 0.123645 0.123645
vt 0.876355 0.319842
vt 0.876355 0.876355
vt 0.828649 0.219005
vt 0.876355 0.320915
vt 0.876355 0.319978
vt 0.320915 0.320915
vt 0.319978 0.319978
vt 0.876355 0.319686
vt 0.319686 0.319686
vt 0.876355 0.123645
vt 0.379540 0.123645
vt 0.379358 0.379358
vt 0.199047 0.143926
vt 0.379358 0.123645
vt 0.219016 0.219016
vt 0.620460 0.123645
vt 0.001706 0.001707
vt 0.230642 0.332244
vt 0.037533 0.334916
vt 0.371908 0.001707
vt 0.997317 0.001707
vt 0.997317 0.335376
vt 0.997317 0.001707
vt 0.374998 0.130136
vt 0.881782 0.712042
vt 0.001706 0.335376
vt 0.658856 0.001707
vt 0.997317 0.659184
vt 0.943688 0.683914
vt 0.371908 0.001707
vt 0.386847 0.600204
vt 0.486456 0.678258
vt 0.388598 0.637630
vt 0.434387 0.673497
vn -0.4705 0.8823 -0.0113
vn -0.4713 0.8819 -0.0119
vn -0.4693 0.8829 -0.0122
vn -0.4723 0.8812 -0.0221
vn 0.2710 0.7621 -0.5880
vn 0.2690 0.7595 -0.5923
vn -0.0791 0.3702 -0.9256
vn -0.0843 0.3756 -0.9229
vn -0.5750 0.3605 -0.7344
vn 1.0000 0.0000 0.0000
vn 0.0000 0.0000 1.0000
vn 0.0000 -1.0000 0.0000
usemtl Stone
s off
f 39/48/17 46/49/17 41/50/17
f 36/51/18 42/52/18 46/53/18
f 36/54/19 39/55/19 38/56/19
f 35/57/20 42/58/20 36/59/20
f 36/59/21 37/60/21 47/61/21
f 48/62/22 36/59/22 47/63/22
f 36/59/23 48/64/23 43/65/23
f 43/66/24 35/67/24 36/59/24
f 44/68/25 45/69/25 35/57/25
f 41/50/17 40/70/17 39/48/17
f 39/48/17 36/54/17 46/49/17
f 35/57/20 45/71/20 42/58/20
f 36/59/21 38/72/21 37/60/21
f 43/66/24 44/73/24 35/67/24
s 1
f 51/74/26 55/75/26 56/76/26
f 57/77/27 52/78/27 50/79/27
f 34/80/28 59/81/28 64/82/28
f 56/76/26 49/83/26 51/74/26
f 51/74/26 53/84/26 55/75/26
f 54/85/28 34/80/28 65/86/28
f 34/80/28 58/87/28 59/81/28
f 59/81/28 60/88/28 63/89/28
f 34/80/28 64/82/28 65/86/28
f 60/88/28 61/90/28 62/91/28
f 62/91/28 63/89/28 60/88/28
f 63/89/28 64/82/28 59/81/28
o Neue_Welt_(10)__2547_58_-1089_to_2595_255_-1061.001_cell.025_Neue_Welt_(10)__2547_58_-1089_to_2595_255_-1061.001_cell.029
v -0.500000 -0.500000 0.500000
v -0.500000 0.500000 0.500000
v -0.069701 -0.432648 -0.161195
v 0.125147 -0.327570 -0.135522
v -0.439620 0.290150 -0.217790
v -0.125280 -0.035717 -0.249758
v -0.066196 -0.066776 -0.229790
v -0.500000 -0.500000 0.023518
v -0.500000 0.071504 -0.134623
v -0.500000 0.192034 -0.167871
v -0.500000 0.253272 -0.184553
v -0.500000 0.401826 -0.167659
v -0.500000 0.500000 -0.080973
v -0.500000 0.432628 -0.140593
v 0.500000 0.224544 0.486033
v 0.500000 0.110805 0.386916
v 0.500000 -0.119620 0.500000
v 0.500000 0.240385 0.500000
v 0.500000 -0.092540 0.313162
v 0.500000 -0.122465 0.302571
v 0.500000 -0.122340 0.319021
v 0.500000 -0.122108 0.337369
v 0.500000 -0.121601 0.372637
v 0.096036 0.500000 0.401617
v 0.217400 0.500000 0.500000
v -0.081668 -0.429913 0.500000
v -0.213113 -0.500000 0.500000
v -0.309891 -0.500000 -0.050389
v -0.197415 -0.500000 -0.093598
v -0.199672 -0.500000 0.001853
v -0.276652 -0.500000 -0.063226
v -0.500000 -0.500000 0.500000
v -0.500000 -0.500000 0.500000
v -0.500000 0.500000 0.500000
v -0.500000 0.500000 0.500000
v -0.500000 0.253272 -0.184553
v -0.500000 0.192034 -0.167871
v -0.500000 0.071504 -0.134623
v -0.500000 -0.500000 0.023518
v -0.500000 -0.500000 0.023518
v -0.500000 0.500000 -0.080973
v -0.500000 0.500000 -0.080973
v -0.500000 0.432628 -0.140593
v -0.500000 0.401826 -0.167659
v 0.500000 -0.122465 0.302571
v 0.500000 -0.092540 0.313162
v 0.500000 0.110805 0.386916
v 0.500000 0.224544 0.486033
v 0.500000 0.240385 0.500000
v 0.500000 0.240385 0.500000
v 0.500000 -0.119620 0.500000
v 0.500000 -0.119620 0.500000
v 0.500000 -0.121601 0.372637
v 0.500000 -0.122108 0.337369
v 0.500000 -0.122340 0.319021
v 0.217400 0.500000 0.500000
v 0.217400 0.500000 0.500000
v 0.096036 0.500000 0.401617
v -0.213113 -0.500000 0.500000
v -0.213113 -0.500000 0.500000
v -0.081668 -0.429913 0.500000
v -0.199672 -0.500000 0.001853
v -0.309891 -0.500000 -0.050389
v -0.276652 -0.500000 -0.063226
v -0.197415 -0.500000 -0.093598
vt 0.123645 0.123645
vt 0.876355 0.123645
vt 0.876355 0.876355
vt 0.123645 0.123645
vt 0.876355 0.123645
vt 0.123645 0.123645
vt 0.876355 0.123645
vt 0.876355 0.827219
vt 0.319361 0.270478
vt 0.876355 0.270746
vt 0.876355 0.123645
vt 0.827219 0.827219
vt 0.270746 0.270746
vt 0.876355 0.553951
vt 0.123645 0.123645
vt 0.815074 0.123645
vt 0.876355 0.168697
vt 0.876355 0.792988
vt 0.677965 0.123645
vt 0.793860 0.160411
vt 0.792988 0.792988
vt 0.677965 0.677965
vt 0.167920 0.167920
vt 0.676413 0.167878
vt 0.464192 0.123645
vt 0.876355 0.123645
vt 0.876355 0.534444
vt 0.876355 0.787345
vt 0.534444 0.534444
vt 0.876355 0.184926
vt 0.876355 0.876355
vt 0.876355 0.814726
vt 0.787002 0.787002
vt 0.815801 0.123645
vt 0.814726 0.814726
vt 0.732250 0.151402
vt 0.730870 0.730870
vt 0.463095 0.123645
vt 0.876355 0.535808
vt 0.876355 0.876355
vt 0.185191 0.185191
vt 0.876355 0.184199
vt 0.876355 0.730870
vt 0.792645 0.743634
vt 0.185191 0.123645
vt 0.212655 0.123645
vt 0.876355 0.802563
vt 0.802563 0.802563
vt 0.553951 0.553951
vt 0.123645 0.123645
vt 0.168697 0.168697
vt 0.167920 0.123645
vt 0.787002 0.123645
vt 0.536905 0.123645
vt 0.172039 0.145361
vt 0.418894 0.997813
vt 0.359536 0.930704
vt 0.332377 0.691046
vt 0.163624 0.378128
vt 0.181891 0.377897
vt 0.187724 0.407581
vt 0.001706 0.001707
vt 0.595127 0.099707
vt 0.001706 0.580418
vt 0.001706 0.001707
vt 0.287334 0.001707
vt 0.418202 0.071521
vt 0.001706 0.476334
vt 0.190981 0.549953
vt 0.300716 0.497915
vt 0.332588 0.900022
vt 0.315769 0.752046
vt 0.365480 0.570985
vt 0.997317 0.997813
vt 0.522926 0.001707
vt 0.997317 0.001707
vt 0.198269 0.377772
vt 0.114294 0.610134
vt 0.128510 0.378633
vt 0.015612 0.723430
vt 0.001706 0.380606
vt 0.001706 0.739209
vt 0.715958 0.001707
vt 0.997317 0.380606
vt 0.715958 0.997813
vt 0.997317 0.739209
vt 0.001706 0.997813
vt 0.302963 0.592994
vt 0.224074 0.562740
vt 0.287334 0.001707
vt 0.001706 0.001707
vn 0.2305 -0.1768 -0.9569
vn 0.2244 -0.1822 -0.9573
vn 0.5139 0.5595 -0.6503
vn -0.3509 -0.2497 -0.9025
vn -0.3489 -0.2492 -0.9034
vn -0.3465 -0.2502 -0.9040
vn 0.4710 -0.8820 0.0111
vn 0.4705 -0.8823 0.0127
vn 0.4706 -0.8822 0.0137
vn -0.5244 0.0962 -0.8460
vn -0.3475 -0.2464 -0.9047
vn 0.4740 -0.8805 0.0067
vn 0.6767 0.2456 -0.6940
vn 0.6759 0.2513 -0.6929
vn 0.5185 0.5667 -0.6404
vn 0.5127 0.5667 -0.6449
vn 0.5239 0.5596 -0.6421
vn 0.5194 0.5654 -0.6407
vn 0.5192 0.5652 -0.6410
vn 0.5194 0.5653 -0.6409
vn 0.5196 0.5652 -0.6408
vn -1.0000 0.0000 0.0000
vn 1.0000 0.0000 0.0000
vn 0.0000 1.0000 0.0000
vn 0.0000 0.0000 1.0000
vn 0.0000 -1.0000 0.0000
usemtl Stone
s off
f 72/92/29 69/93/29 71/94/29
f 69/95/30 68/96/30 71/94/30
f 70/97/31 72/98/31 71/94/31
f 93/99/32 73/100/32 74/101/32
f 71/102/33 93/103/33 74/104/33
f 94/105/34 71/106/34 68/96/34
f 86/107/35 87/108/35 95/109/35
f 91/110/36 92/111/36 95/112/36
f 91/113/37 88/114/37 82/115/37
f 77/116/38 70/117/38 76/118/38
f 70/97/39 75/119/39 76/120/39
f 69/95/40 86/121/40 68/122/40
f 69/95/41 84/123/41 85/124/41
f 72/92/42 81/125/42 84/126/42
f 70/97/43 78/127/43 89/128/43
f 79/129/44 70/117/44 77/130/44
f 72/131/45 80/132/45 81/133/45
f 89/134/46 90/135/46 80/136/46
f 74/104/33 75/137/33 71/102/33
f 71/102/33 96/138/33 93/103/33
f 94/105/34 96/139/34 71/106/34
f 95/109/35 94/140/35 68/141/35
f 68/141/35 86/107/35 95/109/35
f 95/112/36 87/142/36 91/110/36
f 87/142/36 88/143/36 91/110/36
f 70/97/39 71/102/39 75/119/39
f 69/95/40 85/144/40 86/121/40
f 69/95/41 72/98/41 84/123/41
f 70/97/43 79/145/43 78/127/43
f 83/146/47 80/136/47 90/135/47
f 80/136/48 72/98/48 89/134/48
f 72/98/49 70/117/49 89/134/49
s 1
f 106/147/50 108/148/50 102/149/50
f 119/150/51 120/151/51 111/152/51
f 100/153/52 123/154/52 107/155/52
f 98/156/53 124/157/53 126/158/53
f 105/159/54 128/160/54 127/161/54
f 109/162/50 101/163/50 108/148/50
f 101/163/50 102/149/50 108/148/50
f 102/149/50 103/164/50 99/165/50
f 103/164/50 104/166/50 97/167/50
f 99/165/50 103/164/50 97/167/50
f 99/165/50 106/147/50 102/149/50
f 120/151/51 110/168/51 111/152/51
f 111/152/51 112/169/51 118/170/51
f 112/169/51 113/171/51 116/172/51
f 113/171/51 114/173/51 116/172/51
f 116/172/51 118/170/51 112/169/51
f 118/170/51 119/150/51 111/152/51
f 100/153/52 121/174/52 123/154/52
f 126/158/53 117/175/53 122/176/53
f 117/175/53 115/177/53 122/176/53
f 122/176/53 67/178/53 126/158/53
f 67/178/53 98/156/53 126/158/53
f 130/179/54 127/161/54 129/180/54
f 127/161/54 125/181/54 105/159/54
f 129/180/54 127/161/54 128/160/54
f 125/181/54 66/182/54 105/159/54
o Neue_Welt_(10)__2547_58_-1089_to_2595_255_-1061.001_cell.026_Neue_Welt_(10)__2547_58_-1089_to_2595_255_-1061.001_cell.032
v -0.500000 0.500000 -0.500000
v -0.459041 0.302593 -0.252021
v -0.500000 0.379054 -0.217852
v -0.500000 0.277362 -0.229379
v -0.500000 0.431592 -0.268904
v -0.500000 0.209493 -0.500000
v -0.500000 0.262347 -0.288478
v -0.500000 0.500000 -0.336525
v -0.376037 0.331576 -0.500000
v -0.378042 0.300865 -0.500000
v -0.367652 0.308725 -0.500000
v -0.438584 0.500000 -0.500000
v -0.500000 0.379054 -0.217852
v -0.500000 0.431592 -0.268904
v -0.500000 0.500000 -0.336525
v -0.500000 0.500000 -0.336525
v -0.500000 0.500000 -0.500000
v -0.500000 0.500000 -0.500000
v -0.500000 0.209493 -0.500000
v -0.500000 0.209493 -0.500000
v -0.500000 0.262347 -0.288478
v -0.500000 0.277362 -0.229379
v -0.378042 0.300865 -0.500000
v -0.438584 0.500000 -0.500000
v -0.438584 0.500000 -0.500000
v -0.376037 0.331576 -0.500000
v -0.367652 0.308725 -0.500000
vt 0.876355 0.464217
vt 0.537470 0.123645
vt 0.876355 0.123645
vt 0.123645 0.123645
vt 0.876355 0.224316
vt 0.876355 0.690110
vt 0.859652 0.553753
vt 0.224316 0.224316
vt 0.751688 0.224212
vt 0.876355 0.231610
vt 0.876355 0.688839
vt 0.418659 0.232070
vt 0.876355 0.462530
vt 0.688839 0.688839
vt 0.464217 0.464217
vt 0.750166 0.123645
vt 0.690110 0.690110
vt 0.231610 0.231610
vt 0.249834 0.123645
vt 0.001706 0.997813
vt 0.001706 0.708438
vt 0.212300 0.761086
vt 0.997317 0.997813
vt 0.936170 0.997813
vt 0.873898 0.830046
vt 0.001706 0.997813
vt 0.001706 0.834975
vt 0.062853 0.997813
vt 0.271139 0.776042
vt 0.282616 0.877339
vt 0.231788 0.929672
vt 0.164464 0.997813
vt 0.865549 0.807283
vt 0.875895 0.799454
vt 0.997317 0.708438
vn 0.5261 -0.0958 0.8450
vn 0.8848 0.3247 0.3341
vn 0.8842 0.3284 0.3322
vn 0.5880 -0.7848 0.1961
vn 0.5913 -0.7816 0.1986
vn -1.0000 0.0000 0.0000
vn 0.0000 0.0000 -1.0000
vn 0.0000 1.0000 0.0000
usemtl Stone
s off
f 133/183/55 134/184/55 132/185/55
f 132/186/56 139/187/56 135/188/56
f 138/189/57 139/190/57 142/191/57
f 140/192/58 137/193/58 136/194/58
f 132/185/59 134/195/59 137/196/59
f 135/188/56 133/197/56 132/186/56
f 132/186/56 141/198/56 139/187/56
f 138/189/57 135/199/57 139/190/57
f 137/196/59 140/200/59 132/185/59
f 140/200/59 141/201/59 132/185/59
s 1
f 147/202/60 149/203/60 151/204/60
f 148/205/61 154/206/61 156/207/61
f 131/208/62 146/209/62 155/210/62
f 152/211/60 143/212/60 151/204/60
f 143/212/60 144/213/60 151/204/60
f 144/213/60 145/214/60 151/204/60
f 145/214/60 147/202/60 151/204/60
f 157/215/61 153/216/61 156/207/61
f 153/216/61 150/217/61 156/207/61
f 150/217/61 148/205/61 156/207/61
o Neue_Welt_(10)__2547_58_-1089_to_2595_255_-1061.001_cell.027_Neue_Welt_(10)__2547_58_-1089_to_2595_255_-1061.001_cell.033
v 0.500000 0.500000 -0.500000
v -0.027042 -0.061400 -0.247183
v 0.165479 -0.322937 -0.153323
v 0.049699 0.097127 -0.500000
v 0.022966 0.121643 -0.500000
v 0.438499 0.500000 -0.500000
v 0.500000 -0.139932 0.239305
v 0.500000 -0.108312 0.250691
v 0.500000 0.103878 0.325244
v 0.500000 -0.500000 -0.295042
v 0.500000 -0.500000 -0.227280
v 0.500000 0.497073 -0.391823
v 0.500000 0.500000 -0.397199
v 0.500000 -0.315696 -0.498749
v 0.464555 -0.500000 -0.243755
v 0.465515 -0.500000 -0.260258
v 0.454604 -0.500000 -0.249188
v 0.049699 0.097127 -0.500000
v 0.022966 0.121643 -0.500000
v 0.500000 0.500000 -0.500000
v 0.500000 0.500000 -0.500000
v 0.500000 -0.315696 -0.498749
v 0.500000 -0.315696 -0.498749
v 0.438499 0.500000 -0.500000
v 0.438499 0.500000 -0.500000
v 0.500000 -0.500000 -0.295042
v 0.500000 -0.500000 -0.295042
v 0.500000 0.500000 -0.397199
v 0.500000 0.500000 -0.397199
v 0.500000 0.497073 -0.391823
v 0.500000 0.103878 0.325244
v 0.500000 -0.108312 0.250691
v 0.500000 -0.139932 0.239305
v 0.500000 -0.500000 -0.227280
v 0.500000 -0.500000 -0.227280
v 0.464555 -0.500000 -0.243755
v 0.454604 -0.500000 -0.249188
v 0.465515 -0.500000 -0.260258
vt 0.123645 0.123645
vt 0.811478 0.123645
vt 0.810655 0.810655
vt 0.876355 0.123645
vt 0.876355 0.810655
vt 0.188656 0.123645
vt 0.876355 0.876355
vt 0.218973 0.123645
vt 0.876355 0.123645
vt 0.123645 0.123645
vt 0.876355 0.188522
vt 0.779141 0.159734
vt 0.778971 0.778971
vt 0.876355 0.711478
vt 0.288930 0.123645
vt 0.779215 0.123645
vt 0.711478 0.711478
vt 0.781027 0.123645
vt 0.779215 0.779215
vt 0.288930 0.288930
vt 0.876355 0.290305
vt 0.876355 0.876355
vt 0.743651 0.185041
vt 0.188656 0.188656
vt 0.209063 0.185051
vt 0.248493 0.248493
vt 0.778971 0.123645
vt 0.709695 0.123645
vt 0.779059 0.713868
vt 0.876355 0.248493
vt 0.450030 0.596509
vt 0.476646 0.620930
vt 0.062938 0.997813
vt 0.889615 0.994898
vt 0.249922 0.391869
vt 0.997317 0.186422
vt 0.997317 0.895413
vt 0.997317 0.997813
vt 0.936086 0.997813
vt 0.962027 0.742566
vt 0.952120 0.747978
vt 0.962983 0.759005
vt 0.001706 0.997813
vt 0.001706 0.186422
vt 0.725794 0.001707
vt 0.793259 0.001707
vt 0.997317 0.997813
vt 0.894967 0.997813
vt 0.175696 0.603234
vt 0.261258 0.360372
vt 0.997317 0.793654
vt 0.997317 0.726156
vn -0.6774 -0.2439 0.6941
vn -0.6233 0.6856 0.3760
vn -0.5622 -0.6130 -0.5551
vn -0.6766 -0.2495 0.6928
vn -0.2732 -0.7616 0.5877
vn -0.5608 -0.6164 -0.5527
vn -0.5605 -0.6141 -0.5556
vn -0.5608 -0.6134 -0.5560
vn -0.2982 -0.7827 0.5463
vn -0.6244 0.6860 0.3735
vn -0.6245 0.6859 0.3736
vn -0.6246 0.6861 0.3732
vn 0.0007 -0.0007 -1.0000
vn 0.0000 0.0000 -1.0000
vn 0.0005 -0.0014 -1.0000
vn 1.0000 0.0000 0.0000
vn 0.0000 1.0000 0.0000
vn 0.0000 -1.0000 0.0000
vn 0.0000 -0.0015 -1.0000
vn 0.0013 -0.0014 -1.0000
usemtl Stone
s off
f 159/218/63 165/219/63 166/220/63
f 159/221/64 166/222/64 169/223/64
f 159/224/65 161/225/65 160/226/65
f 160/227/66 165/228/66 159/224/66
f 160/227/67 168/229/67 164/230/67
f 160/226/68 173/231/68 174/232/68
f 171/233/69 173/234/69 160/227/69
f 161/235/70 171/236/70 160/227/70
f 174/237/71 172/238/71 160/239/71
f 163/240/72 169/241/72 170/242/72
f 159/224/65 162/243/65 161/225/65
f 160/227/66 164/244/66 165/228/66
f 160/227/67 172/245/67 168/229/67
f 171/233/69 167/246/69 173/234/69
f 163/240/73 162/247/73 169/241/73
f 162/247/74 159/224/74 169/241/74
s 1
f 175/248/75 176/249/76 181/250/77
f 187/251/78 189/252/78 180/253/78
f 186/254/79 158/255/79 182/256/79
f 193/257/80 194/258/80 195/259/80
f 181/250/77 177/260/81 179/261/82
f 179/261/82 175/248/75 181/250/77
f 191/262/78 183/263/78 180/253/78
f 180/253/78 178/264/78 187/251/78
f 178/264/78 185/265/78 187/251/78
f 187/251/78 188/266/78 189/252/78
f 189/252/78 190/267/78 180/253/78
f 190/267/78 191/262/78 180/253/78
f 184/268/80 192/269/80 195/259/80
f 192/269/80 193/257/80 195/259/80
o Neue_Welt_(10)__2547_58_-1089_to_2595_255_-1061.001_cell.028_Neue_Welt_(10)__2547_58_-1089_to_2595_255_-1061.001_cell.034
v 0.500000 0.500000 0.500000
v -0.061204 -0.030162 -0.255970
v -0.124215 0.004036 -0.277022
v -0.416962 0.305812 -0.247208
v -0.500000 0.500000 -0.143734
v -0.500000 0.460006 -0.178910
v -0.500000 0.500000 -0.218574
v -0.324410 0.312091 -0.500000
v -0.272410 0.256274 -0.500000
v -0.224777 0.205438 -0.500000
v -0.215641 0.202846 -0.500000
v -0.335693 0.342399 -0.500000
v -0.393847 0.500000 -0.500000
v -0.013380 0.147426 -0.500000
v 0.373949 0.500000 -0.500000
v 0.500000 0.311257 0.500000
v 0.500000 0.170217 0.375583
v 0.500000 0.147003 0.355070
v 0.500000 0.500000 -0.290662
v 0.155162 0.500000 0.387401
v 0.294227 0.500000 0.500000
v -0.497080 0.500000 -0.226354
v 0.497189 0.500000 -0.295346
v -0.500000 0.500000 -0.143734
v -0.500000 0.500000 -0.143734
v -0.500000 0.500000 -0.218574
v -0.500000 0.500000 -0.218574
v -0.500000 0.460006 -0.178910
v -0.272410 0.256274 -0.500000
v -0.324410 0.312091 -0.500000
v -0.335693 0.342399 -0.500000
v -0.393847 0.500000 -0.500000
v -0.393847 0.500000 -0.500000
v 0.373949 0.500000 -0.500000
v 0.373949 0.500000 -0.500000
v -0.013380 0.147426 -0.500000
v -0.215641 0.202846 -0.500000
v -0.224777 0.205438 -0.500000
v 0.500000 0.500000 0.500000
v 0.500000 0.500000 0.500000
v 0.500000 0.311257 0.500000
v 0.500000 0.311257 0.500000
v 0.500000 0.170217 0.375583
v 0.500000 0.147003 0.355070
v 0.500000 0.500000 -0.290662
v 0.500000 0.500000 -0.290662
v 0.155162 0.500000 0.387401
v 0.294227 0.500000 0.500000
v 0.294227 0.500000 0.500000
v 0.497189 0.500000 -0.295346
v -0.497080 0.500000 -0.226354
vt 0.123645 0.123645
vt 0.876355 0.123645
vt 0.876355 0.876355
vt 0.721357 0.702281
vt 0.123645 0.123645
vt 0.722991 0.123645
vt 0.876355 0.215911
vt 0.876355 0.716377
vt 0.374633 0.215809
vt 0.716377 0.716377
vt 0.215911 0.215911
vt 0.876355 0.123645
vt 0.748569 0.123645
vt 0.188337 0.123645
vt 0.123645 0.123645
vt 0.262526 0.123645
vt 0.876355 0.123645
vt 0.814690 0.123645
vt 0.162624 0.162624
vt 0.876355 0.277009
vt 0.876355 0.737474
vt 0.262046 0.123645
vt 0.876355 0.252144
vt 0.737954 0.123645
vt 0.876355 0.876355
vt 0.252144 0.252144
vt 0.876355 0.251431
vt 0.190062 0.184877
vt 0.876355 0.185310
vt 0.598212 0.598212
vt 0.248872 0.123645
vt 0.876355 0.598212
vt 0.735478 0.716965
vt 0.802550 0.737235
vt 0.248872 0.248872
vt 0.609498 0.274763
vt 0.800960 0.157405
vt 0.188337 0.188337
vt 0.356408 0.997813
vt 0.281897 0.997813
vt 0.321387 0.957975
vt 0.770726 0.755036
vt 0.833731 0.840826
vt 0.512833 0.646612
vt 0.788897 0.997813
vt 0.125577 0.669315
vt 0.146000 0.646191
vt 0.871819 0.997813
vt 0.107393 0.997813
vt 0.004614 0.725233
vt 0.997317 0.809805
vt 0.997317 0.997813
vt 0.792447 0.997813
vt 0.723302 0.704398
vt 0.714206 0.701816
vt 0.822498 0.810636
vt 0.891630 0.997813
vt 0.127204 0.997813
vt 0.001706 0.997813
vt 0.001706 0.809805
vt 0.001706 0.717483
vt 0.001706 0.642935
vt 0.653993 0.113867
vt 0.994518 0.793956
vt 0.792447 0.001707
vt 0.997317 0.001707
vt 0.997317 0.789290
vn -0.5212 -0.5685 0.6365
vn -0.5200 -0.5641 0.6414
vn -0.8844 -0.3263 -0.3336
vn -0.8841 -0.3291 -0.3318
vn 0.6239 -0.6850 -0.3762
vn -0.7037 -0.6556 -0.2739
vn -0.5192 -0.5659 0.6404
vn -0.7011 -0.6570 -0.2772
vn -0.2188 -0.7712 -0.5979
vn -0.2110 -0.7702 -0.6019
vn 0.6243 -0.6854 -0.3747
vn 0.6238 -0.6853 -0.3757
vn -0.5188 -0.5656 0.6411
vn -0.5189 -0.5656 0.6409
vn -0.5187 -0.5660 0.6408
vn -0.5190 -0.5657 0.6407
vn -1.0000 0.0000 0.0000
vn 0.0000 0.0000 -1.0000
vn 1.0000 0.0000 0.0000
vn 0.0000 1.0000 0.0000
vn 0.0000 0.0000 1.0000
usemtl Stone
s off
f 198/270/83 197/271/83 199/272/83
f 200/273/84 199/274/84 215/275/84
f 207/276/85 217/277/85 208/278/85
f 217/279/86 207/280/86 199/281/86
f 209/282/87 218/283/87 197/284/87
f 199/272/88 204/285/88 198/286/88
f 213/287/89 212/288/89 215/289/89
f 198/286/90 204/290/90 205/291/90
f 206/292/91 198/270/91 205/293/91
f 197/294/92 206/295/92 209/296/92
f 197/294/93 214/297/93 213/298/93
f 200/273/84 201/299/84 199/274/84
f 203/300/86 199/281/86 207/280/86
f 199/281/86 201/301/86 217/279/86
f 201/301/86 202/302/86 217/279/86
f 209/282/94 210/303/94 218/283/94
f 199/272/88 203/304/88 204/285/88
f 211/305/95 216/306/95 212/288/95
f 216/306/96 215/289/96 212/288/96
f 215/289/97 199/272/97 197/284/97
f 197/284/98 213/287/98 215/289/98
f 206/292/91 197/294/91 198/270/91
f 197/294/93 218/307/93 214/297/93
s 1
f 219/308/99 221/309/99 223/310/99
f 224/311/100 226/312/100 231/313/100
f 240/314/101 238/315/101 239/316/101
f 230/317/102 228/318/102 246/319/102
f 237/320/103 196/321/103 244/322/103
f 233/323/100 224/311/100 232/324/100
f 224/311/100 225/325/100 226/312/100
f 226/312/100 227/326/100 229/327/100
f 224/311/100 231/313/100 232/324/100
f 229/327/100 231/313/100 226/312/100
f 240/314/101 234/328/101 238/315/101
f 234/328/101 236/329/101 238/315/101
f 246/319/102 222/330/102 220/331/102
f 220/331/102 242/332/102 245/333/102
f 242/332/102 243/334/102 235/335/102
f 241/336/102 242/332/102 235/335/102
f 241/336/102 245/333/102 242/332/102
f 245/333/102 230/317/102 220/331/102
f 220/331/102 230/317/102 246/319/102
o Neue_Welt_(10)__2547_58_-1089_to_2595_255_-1061.001_cell.029_Neue_Welt_(10)__2547_58_-1089_to_2595_255_-1061.001_cell.035
v 0.500000 -0.500000 -0.500000
v -0.111545 -0.044730 -0.286172
v -0.054752 -0.446328 -0.196860
v -0.066675 -0.068690 -0.271163
v 0.136439 -0.343973 -0.172551
v -0.207778 0.148725 -0.500000
v -0.176068 -0.500000 -0.500000
v -0.200930 0.146860 -0.500000
v -0.021156 0.097170 -0.500000
v 0.139585 -0.049856 -0.500000
v 0.500000 -0.380168 -0.500000
v 0.500000 -0.488699 -0.379589
v 0.500000 -0.500000 -0.367109
v 0.218402 -0.500000 -0.241998
v -0.071739 -0.500000 -0.242671
v -0.061256 -0.500000 -0.218039
v 0.390872 -0.500000 -0.256958
v 0.416344 -0.500000 -0.282611
v 0.436929 -0.500000 -0.303371
v 0.139585 -0.049856 -0.500000
v 0.500000 -0.380168 -0.500000
v 0.500000 -0.380168 -0.500000
v 0.500000 -0.500000 -0.500000
v 0.500000 -0.500000 -0.500000
v -0.176068 -0.500000 -0.500000
v -0.176068 -0.500000 -0.500000
v -0.207778 0.148725 -0.500000
v -0.200930 0.146860 -0.500000
v -0.021156 0.097170 -0.500000
v 0.500000 -0.488699 -0.379589
v 0.500000 -0.500000 -0.367109
v 0.500000 -0.500000 -0.367109
v 0.390872 -0.500000 -0.256958
v 0.218402 -0.500000 -0.241998
v -0.061256 -0.500000 -0.218039
v -0.071739 -0.500000 -0.242671
v 0.436929 -0.500000 -0.303371
v 0.416344 -0.500000 -0.282611
vt 0.123645 0.123645
vt 0.876355 0.123645
vt 0.876355 0.876355
vt 0.123645 0.123645
vt 0.876355 0.123645
vt 0.123645 0.123645
vt 0.876355 0.801530
vt 0.512383 0.512383
vt 0.876355 0.123645
vt 0.876355 0.798348
vt 0.674174 0.123645
vt 0.486167 0.123645
vt 0.876355 0.123645
vt 0.876355 0.512384
vt 0.486167 0.486167
vt 0.305949 0.123645
vt 0.876355 0.876355
vt 0.741117 0.123645
vt 0.876355 0.266574
vt 0.741117 0.741117
vt 0.740596 0.123645
vt 0.825884 0.244340
vt 0.123645 0.123645
vt 0.733426 0.123645
vt 0.674443 0.190297
vt 0.674174 0.674174
vt 0.190713 0.190713
vt 0.876355 0.694051
vt 0.876355 0.821441
vt 0.267814 0.213158
vt 0.190713 0.123645
vt 0.259404 0.123645
vt 0.801530 0.801530
vt 0.699560 0.646048
vt 0.520575 0.596551
vt 0.674806 0.001707
vt 0.997317 0.001707
vt 0.877435 0.012964
vt 0.865010 0.001707
vt 0.716955 0.740816
vt 0.997317 0.997813
vt 0.934522 0.801951
vt 0.360540 0.450098
vt 0.001706 0.121072
vt 0.001706 0.001707
vt 0.706378 0.647906
vt 0.997317 0.121072
vt 0.914028 0.781271
vt 0.888668 0.755718
vt 0.438525 0.716951
vt 0.428088 0.741486
vt 0.324217 0.997813
vt 0.997317 0.865440
vn -0.2235 0.1814 0.9577
vn -0.2192 0.1817 0.9586
vn -0.9193 -0.0430 0.3912
vn 0.5606 0.6134 0.5563
vn 0.0792 -0.3742 0.9240
vn 0.0803 -0.3698 0.9256
vn 0.2097 0.7702 0.6024
vn 0.2130 0.7705 0.6008
vn -0.9257 -0.0452 0.3757
vn 0.5627 0.6140 0.5534
vn 0.5606 0.6131 0.5567
vn 0.5608 0.6134 0.5561
vn 0.5614 0.6134 0.5555
vn 0.5609 0.6133 0.5561
vn 0.5610 0.6132 0.5561
vn -0.9258 -0.0451 0.3753
vn 0.0000 0.0000 -1.0000
vn 1.0000 0.0000 0.0000
vn 0.0000 -1.0000 0.0000
usemtl Stone
s off
f 250/337/104 248/338/104 249/339/104
f 251/340/105 250/341/105 249/339/105
f 249/342/106 261/343/106 262/344/106
f 251/345/107 264/346/107 256/347/107
f 260/348/108 249/349/108 262/350/108
f 251/345/109 260/351/109 263/352/109
f 248/353/110 254/354/110 252/355/110
f 254/356/111 250/337/111 255/357/111
f 253/358/112 248/359/112 252/360/112
f 257/361/113 256/362/113 258/363/113
f 249/342/106 248/338/106 261/343/106
f 251/345/114 263/364/114 264/346/114
f 264/346/115 265/365/115 256/347/115
f 265/365/116 259/366/116 258/367/116
f 258/367/116 256/347/116 265/365/116
f 256/347/117 255/368/117 250/337/117
f 250/337/118 251/345/118 256/347/118
f 251/345/109 249/339/109 260/351/109
f 248/353/110 250/337/110 254/354/110
f 253/358/119 261/369/119 248/359/119
s 1
f 274/370/120 275/371/120 271/372/120
f 270/373/121 276/374/121 277/375/121
f 280/376/122 247/377/122 283/378/122
f 275/371/120 266/379/120 271/372/120
f 266/379/120 267/380/120 271/372/120
f 267/380/120 269/381/120 271/372/120
f 271/372/120 273/382/120 274/370/120
f 270/373/121 268/383/121 276/374/121
f 284/384/122 279/385/122 280/376/122
f 280/376/122 281/386/122 282/387/122
f 282/387/122 272/388/122 280/376/122
f 272/388/122 247/377/122 280/376/122
f 247/377/122 278/389/122 283/378/122
f 283/378/122 284/384/122 280/376/122
