# Blender v2.91.0 OBJ File: 'physics_test.blend'
# www.blender.org
mtllib physics_shattered_little_2.mtl
o Neue_Welt_(10)__2547_58_-1089_to_2595_255_-1061.001_cell.016_Neue_Welt_(10)__2547_58_-1089_to_2595_255_-1061.001_cell.030
v -0.500000 -0.500000 -0.500000
v -0.303584 -0.339439 0.324180
v -0.044607 -0.323724 -0.246262
v -0.500000 -0.284609 0.371575
v -0.500000 -0.500000 0.368244
v -0.500000 -0.261368 0.237349
v -0.500000 -0.134436 -0.500000
v -0.199266 -0.230205 -0.500000
v -0.246680 -0.214998 -0.500000
v -0.177724 -0.500000 -0.500000
v -0.355781 -0.500000 0.334009
v -0.167998 -0.500000 -0.483233
v -0.068663 -0.500000 -0.311035
v -0.299482 -0.500000 0.207718
v -0.500000 -0.500000 -0.500000
v -0.500000 -0.500000 -0.500000
v -0.500000 -0.500000 0.368244
v -0.500000 -0.500000 0.368244
v -0.500000 -0.284609 0.371575
v -0.500000 -0.261368 0.237349
v -0.500000 -0.134436 -0.500000
v -0.500000 -0.134436 -0.500000
v -0.177724 -0.500000 -0.500000
v -0.177724 -0.500000 -0.500000
v -0.246680 -0.214998 -0.500000
v -0.199266 -0.230205 -0.500000
v -0.167998 -0.500000 -0.483233
v -0.068663 -0.500000 -0.311035
v -0.299482 -0.500000 0.207718
v -0.355781 -0.500000 0.334009
vt 0.312190 0.141175
vt 0.858825 0.712552
vt 0.470823 0.269548
vt 0.747072 0.179820
vt 0.746302 0.746302
vt 0.179422 0.179422
vt 0.858825 0.141175
vt 0.699675 0.699675
vt 0.141175 0.141175
vt 0.299376 0.141175
vt 0.858825 0.141175
vt 0.858825 0.699675
vt 0.858825 0.858825
vt 0.299376 0.299376
vt 0.858825 0.299275
vt 0.299275 0.299275
vt 0.858825 0.258814
vt 0.741186 0.141175
vt 0.858825 0.179422
vt 0.858825 0.687810
vt 0.286158 0.259647
vt 0.858825 0.746302
vt 0.712552 0.712552
vt 0.141175 0.141175
vt 0.866140 0.001707
vt 0.869456 0.216260
vt 0.735819 0.239410
vt 0.997317 0.001707
vt 0.997317 0.365848
vt 0.745109 0.285599
vt 0.431150 0.809584
vt 0.201344 0.292851
vt 0.001706 0.997813
vt 0.001706 0.365848
vt 0.001706 0.001707
vt 0.697903 0.270452
vt 0.676455 0.001707
vt 0.145292 0.167052
vt 0.001706 0.132949
vt 0.322568 0.997813
vt 0.332251 0.981112
vn 0.2309 -0.0150 0.9729
vn 0.2991 0.9404 0.1619
vn 0.8813 -0.2625 0.3929
vn 0.8811 -0.2643 0.3921
vn 0.8644 0.0653 -0.4986
vn 0.8629 0.0689 -0.5006
vn 0.3013 0.9395 0.1626
vn 0.2305 -0.0154 0.9730
vn 0.3015 0.9395 0.1627
vn 0.3015 0.9395 0.1628
vn -1.0000 0.0000 0.0000
vn 0.0000 0.0000 -1.0000
vn 0.0000 -1.0000 0.0000
usemtl Stone
s off
f 11/1/1 4/2/1 5/3/1
f 7/4/2 6/5/2 9/6/2
f 2/7/3 14/8/3 3/9/3
f 13/10/4 3/11/4 14/12/4
f 3/13/5 13/14/5 12/15/5
f 12/16/6 8/17/6 3/13/6
f 3/9/7 8/18/7 9/19/7
f 11/1/8 2/7/8 4/2/8
f 2/7/3 11/20/3 14/8/3
f 12/16/6 10/21/6 8/17/6
f 9/19/7 6/22/7 3/9/7
f 6/22/9 4/23/9 2/24/9
f 3/9/10 6/22/10 2/24/10
s 1
f 17/25/11 19/26/11 20/27/11
f 16/28/12 22/29/12 25/30/12
f 28/31/13 29/32/13 1/33/13
f 21/34/11 15/35/11 20/27/11
f 15/35/11 17/25/11 20/27/11
f 26/36/12 23/37/12 25/30/12
f 23/37/12 16/28/12 25/30/12
f 30/38/13 18/39/13 29/32/13
f 18/39/13 1/33/13 29/32/13
f 1/33/13 24/40/13 27/41/13
f 27/41/13 28/31/13 1/33/13
o Neue_Welt_(10)__2547_58_-1089_to_2595_255_-1061.001_cell.017_Neue_Welt_(10)__2547_58_-1089_to_2595_255_-1061.001_cell.031
v -0.500000 -0.500000 0.500000
v -0.300547 -0.335091 0.365102
v -0.500000 -0.500000 0.409204
v -0.500000 -0.344423 0.411782
v -0.500000 -0.279342 0.413047
v -0.500000 -0.234956 0.500000
v -0.245290 -0.342154 0.500000
v -0.300070 -0.500000 0.500000
v -0.223333 -0.278340 0.500000
v -0.400841 -0.500000 0.385460
v -0.339602 -0.500000 0.406458
v -0.353353 -0.500000 0.374302
v -0.500000 -0.344423 0.411782
v -0.500000 -0.500000 0.409204
v -0.500000 -0.500000 0.409204
v -0.500000 -0.500000 0.500000
v -0.500000 -0.500000 0.500000
v -0.500000 -0.234956 0.500000
v -0.500000 -0.234956 0.500000
v -0.500000 -0.279342 0.413047
v -0.245290 -0.342154 0.500000
v -0.223333 -0.278340 0.500000
v -0.300070 -0.500000 0.500000
v -0.300070 -0.500000 0.500000
v -0.400841 -0.500000 0.385460
v -0.353353 -0.500000 0.374302
v -0.339602 -0.500000 0.406458
vt 0.733666 0.141175
vt 0.732735 0.534812
vt 0.341028 0.141175
vt 0.141175 0.141175
vt 0.858825 0.266334
vt 0.858825 0.658973
vt 0.858825 0.349782
vt 0.858825 0.737128
vt 0.737128 0.737128
vt 0.349781 0.349781
vt 0.736555 0.348936
vt 0.858825 0.141175
vt 0.359438 0.215151
vt 0.663693 0.663693
vt 0.713897 0.713897
vt 0.692906 0.141175
vt 0.692906 0.692906
vt 0.663693 0.141175
vt 0.858825 0.713897
vt 0.997317 0.265719
vt 0.909486 0.156678
vt 0.997317 0.001707
vt 0.001706 0.001707
vt 0.255298 0.158938
vt 0.001706 0.265719
vt 0.001706 0.001707
vt 0.100430 0.115801
vt 0.161401 0.094884
vt 0.910745 0.221506
vt 0.906919 0.001707
vt 0.200759 0.001707
vt 0.277159 0.222504
vt 0.200759 0.001707
vt 0.001706 0.092150
vt 0.147710 0.126915
vn -0.2328 0.0161 -0.9724
vn -0.2287 0.0189 -0.9733
vn 0.8766 -0.3016 -0.3749
vn 0.8774 -0.3045 -0.3708
vn 0.1383 0.8821 -0.4503
vn -1.0000 0.0000 0.0000
vn 0.0000 0.0000 1.0000
vn 0.0000 -1.0000 0.0000
usemtl Stone
s off
f 40/42/14 33/43/14 34/44/14
f 32/45/15 40/46/15 34/47/15
f 32/45/16 37/48/16 41/49/16
f 41/50/17 37/51/17 38/52/17
f 32/53/18 36/54/18 39/55/18
f 34/47/15 35/56/15 32/45/15
f 32/45/15 42/57/15 40/46/15
f 41/49/16 42/58/16 32/45/16
f 32/45/16 39/59/16 37/48/16
f 32/53/18 35/60/18 36/54/18
s 1
f 48/61/19 43/62/19 46/63/19
f 47/64/20 51/65/20 49/66/20
f 31/67/21 55/68/21 57/69/21
f 50/70/19 43/62/19 48/61/19
f 43/62/19 44/71/19 46/63/19
f 53/72/20 51/65/20 47/64/20
f 51/65/20 52/73/20 49/66/20
f 57/69/21 54/74/21 31/67/21
f 31/67/21 45/75/21 55/68/21
f 55/68/21 56/76/21 57/69/21
o Neue_Welt_(10)__2547_58_-1089_to_2595_255_-1061.001_cell.018_Neue_Welt_(10)__2547_58_-1089_to_2595_255_-1061.001_cell.022
v 0.500000 -0.500000 0.500000
v -0.266480 -0.340573 0.341979
v -0.012853 -0.325342 -0.216762
v 0.267873 -0.163906 0.014651
v 0.500000 -0.166783 0.500000
v 0.500000 -0.185624 0.454666
v 0.500000 -0.500000 0.075392
v 0.500000 -0.324224 0.124361
v -0.254664 -0.500000 0.500000
v -0.138677 -0.257635 0.500000
v -0.176152 -0.274021 0.500000
v 0.358028 -0.041654 0.500000
v -0.036351 -0.500000 -0.280192
v -0.317720 -0.500000 0.350708
v 0.423888 -0.500000 0.024809
v 0.500000 -0.166783 0.500000
v 0.500000 -0.166783 0.500000
v 0.500000 -0.500000 0.500000
v 0.500000 -0.500000 0.500000
v 0.500000 -0.500000 0.075392
v 0.500000 -0.500000 0.075392
v 0.500000 -0.324224 0.124361
v 0.500000 -0.185624 0.454666
v -0.138677 -0.257635 0.500000
v -0.176152 -0.274021 0.500000
v -0.254664 -0.500000 0.500000
v -0.254664 -0.500000 0.500000
v 0.358028 -0.041654 0.500000
v -0.317720 -0.500000 0.350708
v -0.036351 -0.500000 -0.280192
v 0.423888 -0.500000 0.024809
vt 0.858825 0.301993
vt 0.141175 0.141175
vt 0.732299 0.141175
vt 0.141175 0.141175
vt 0.698007 0.141175
vt 0.698496 0.698496
vt 0.314849 0.141175
vt 0.858825 0.141175
vt 0.858825 0.686611
vt 0.858825 0.188108
vt 0.141175 0.141175
vt 0.685923 0.141175
vt 0.858825 0.141175
vt 0.188108 0.188108
vt 0.208370 0.141175
vt 0.858825 0.314077
vt 0.858825 0.858825
vt 0.314850 0.314850
vt 0.269087 0.141175
vt 0.858825 0.791630
vt 0.302108 0.234950
vt 0.858825 0.858825
vt 0.269087 0.269087
vt 0.858825 0.267701
vt 0.858825 0.141175
vt 0.686611 0.686611
vt 0.744918 0.204884
vt 0.858825 0.858825
vt 0.858825 0.698496
vt 0.001706 0.001707
vt 0.375696 0.176798
vt 0.046842 0.314859
vt 0.997317 0.001707
vt 0.997317 0.333627
vt 0.855968 0.458268
vt 0.183186 0.150418
vt 0.463320 0.778861
vt 0.921539 0.475048
vt 0.001706 0.333627
vt 0.424451 0.001707
vt 0.361443 0.243128
vt 0.324133 0.226806
vt 0.245965 0.001707
vt 0.997317 0.424662
vt 0.997317 0.001707
vt 0.245965 0.001707
vn 0.5394 0.2259 -0.8112
vn 0.5385 0.2227 -0.8126
vn -0.8780 0.3025 0.3709
vn -0.3958 0.9052 -0.1550
vn -0.3939 0.9060 -0.1550
vn -0.8765 0.3045 0.3728
vn 0.6312 0.7162 -0.2977
vn 0.6340 0.7131 -0.2992
vn -0.8815 0.2618 -0.3930
vn 0.5392 0.2260 -0.8113
vn 0.5391 0.2257 -0.8114
vn -0.3936 0.9062 -0.1547
vn -0.8815 0.2614 -0.3932
vn 1.0000 0.0000 0.0000
vn 0.0000 0.0000 1.0000
vn 0.0000 -1.0000 0.0000
usemtl Stone
s off
f 72/77/22 61/78/22 65/79/22
f 60/80/23 72/81/23 70/82/23
f 83/83/24 59/84/24 71/85/24
f 67/86/25 59/87/25 68/88/25
f 61/89/26 67/90/26 69/91/26
f 68/92/27 59/93/27 83/94/27
f 63/95/28 69/96/28 62/97/28
f 61/98/29 63/99/29 65/100/29
f 60/101/30 71/102/30 59/87/30
f 65/79/31 64/103/31 72/77/31
f 72/77/32 60/104/32 61/78/32
f 67/86/25 60/104/25 59/87/25
f 61/89/33 60/104/33 67/90/33
f 63/95/28 61/89/28 69/96/28
f 60/101/34 70/105/34 71/102/34
s 1
f 75/106/35 79/107/35 80/108/35
f 76/109/36 74/110/36 85/111/36
f 86/112/37 87/113/37 88/114/37
f 80/108/35 73/115/35 75/106/35
f 75/106/35 77/116/35 79/107/35
f 85/111/36 81/117/36 76/109/36
f 81/117/36 82/118/36 84/119/36
f 76/109/36 81/117/36 84/119/36
f 78/120/37 58/121/37 88/114/37
f 58/121/37 66/122/37 88/114/37
f 66/122/37 86/112/37 88/114/37
o Neue_Welt_(10)__2547_58_-1089_to_2595_255_-1061.001_cell.019_Neue_Welt_(10)__2547_58_-1089_to_2595_255_-1061.001_cell.025
v -0.500000 0.500000 0.500000
v -0.500000 0.500000 -0.500000
v -0.285120 -0.305639 0.339356
v -0.026784 -0.290027 -0.230019
v 0.246660 -0.132244 -0.004643
v 0.236854 -0.105552 -0.034837
v -0.500000 -0.245478 0.390493
v -0.500000 -0.189381 0.500000
v -0.500000 -0.112683 -0.381397
v -0.500000 -0.092232 -0.500000
v -0.468142 -0.102414 -0.500000
v -0.190927 -0.190840 -0.500000
v -0.173575 -0.161330 -0.500000
v -0.172653 -0.089532 -0.500000
v -0.159663 -0.136880 -0.500000
v -0.364749 0.500000 -0.500000
v 0.282038 0.500000 0.500000
v 0.175901 0.500000 0.120165
v 0.207669 0.500000 0.156713
v -0.192788 -0.237628 0.500000
v -0.487092 -0.191421 0.500000
v 0.340160 -0.004805 0.500000
v 0.283401 0.488346 0.500000
v -0.500000 0.500000 0.500000
v -0.500000 0.500000 0.500000
v -0.500000 0.500000 -0.500000
v -0.500000 0.500000 -0.500000
v -0.500000 -0.092232 -0.500000
v -0.500000 -0.092232 -0.500000
v -0.500000 -0.112683 -0.381397
v -0.500000 -0.245478 0.390493
v -0.500000 -0.189381 0.500000
v -0.500000 -0.189381 0.500000
v -0.159663 -0.136880 -0.500000
v -0.173575 -0.161330 -0.500000
v -0.190927 -0.190840 -0.500000
v -0.468142 -0.102414 -0.500000
v -0.364749 0.500000 -0.500000
v -0.364749 0.500000 -0.500000
v -0.172653 -0.089532 -0.500000
v 0.207669 0.500000 0.156713
v 0.175901 0.500000 0.120165
v 0.282038 0.500000 0.500000
v 0.282038 0.500000 0.500000
v 0.340160 -0.004805 0.500000
v 0.283401 0.488346 0.500000
v -0.487092 -0.191421 0.500000
v -0.192788 -0.237628 0.500000
vt 0.141175 0.141175
vt 0.858825 0.141175
vt 0.858825 0.858825
vt 0.689125 0.141175
vt 0.722500 0.722500
vt 0.141175 0.141175
vt 0.277414 0.141175
vt 0.858825 0.141175
vt 0.858825 0.722500
vt 0.310925 0.310925
vt 0.858825 0.310875
vt 0.277414 0.277414
vt 0.219678 0.160401
vt 0.253859 0.141175
vt 0.858825 0.141175
vt 0.858825 0.746140
vt 0.253160 0.141175
vt 0.793637 0.141175
vt 0.793871 0.793871
vt 0.141175 0.141175
vt 0.858825 0.253888
vt 0.858825 0.858825
vt 0.253160 0.253160
vt 0.207334 0.141175
vt 0.211209 0.141175
vt 0.858825 0.141175
vt 0.858825 0.858825
vt 0.141175 0.141175
vt 0.858825 0.193460
vt 0.193459 0.193459
vt 0.858825 0.206363
vt 0.193071 0.141175
vt 0.808875 0.141175
vt 0.809320 0.757580
vt 0.858825 0.788791
vt 0.808875 0.808875
vt 0.858825 0.310925
vt 0.724002 0.191003
vt 0.253888 0.253888
vt 0.840806 0.194093
vt 0.193071 0.193071
vt 0.195589 0.141175
vt 0.793871 0.141175
vt 0.119789 0.387516
vt 0.888291 0.255238
vt 0.997317 0.997813
vt 0.997317 0.407887
vt 0.997317 0.997813
vt 0.862659 0.997814
vt 0.136364 0.997813
vt 0.001706 0.997813
vt 0.001706 0.001707
vt 0.307570 0.263057
vt 0.781668 0.986205
vt 0.001706 0.997813
vt 0.997317 0.311117
vt 0.001706 0.997813
vt 0.001706 0.407887
vt 0.671407 0.410577
vt 0.965599 0.397745
vt 0.658474 0.363413
vt 0.672325 0.339058
vt 0.689600 0.309663
vt 0.780312 0.001707
vt 0.706270 0.343657
vt 0.674641 0.380063
vt 0.838178 0.494974
vt 0.780312 0.997813
vt 0.001706 0.311117
vt 0.014557 0.309084
vn 0.3952 -0.9055 0.1545
vn -0.1393 -0.8813 0.4515
vn -0.3015 -0.9396 -0.1617
vn -0.1383 -0.8810 0.4525
vn -0.3004 -0.9399 -0.1621
vn -0.2998 -0.9400 -0.1630
vn 0.9717 0.1118 -0.2083
vn 0.7028 -0.4132 -0.5791
vn 0.7093 -0.4036 -0.5780
vn 0.7121 -0.3950 -0.5804
vn 0.9701 0.1144 -0.2139
vn 0.9710 0.1136 -0.2104
vn 0.7320 0.2385 -0.6382
vn 0.7385 0.2026 -0.6431
vn 0.3958 -0.9050 0.1557
vn 0.9710 0.1135 -0.2104
vn 0.7332 0.2369 -0.6373
vn 0.3955 -0.9052 0.1553
vn -1.0000 0.0000 0.0000
vn 0.0000 0.0000 -1.0000
vn 0.0000 1.0000 0.0000
vn 0.0000 0.0000 1.0000
usemtl Stone
s off
f 92/123/38 93/124/38 91/125/38
f 109/126/39 95/127/39 91/128/39
f 97/129/40 91/130/40 95/131/40
f 108/132/41 109/133/41 91/125/41
f 97/134/42 98/135/42 99/136/42
f 92/137/43 99/138/43 100/139/43
f 111/140/44 110/141/44 93/142/44
f 101/143/45 92/144/45 100/145/45
f 92/144/46 103/146/46 93/124/46
f 103/147/47 94/148/47 93/149/47
f 93/149/48 94/150/48 107/151/48
f 107/152/49 111/153/49 93/149/49
f 106/154/50 102/155/50 104/156/50
f 94/148/51 103/157/51 102/158/51
f 93/142/52 108/159/52 91/125/52
f 109/126/39 96/160/39 95/127/39
f 99/136/42 92/137/42 97/134/42
f 92/137/42 91/125/42 97/134/42
f 92/144/46 101/161/46 103/146/46
f 107/152/53 105/162/53 111/153/53
f 102/158/54 106/163/54 94/148/54
f 106/163/54 107/164/54 94/148/54
f 93/142/55 110/165/55 108/159/55
s 1
f 118/166/56 119/167/56 112/168/56
f 117/169/57 115/170/57 126/171/57
f 127/172/58 90/173/58 113/174/58
f 136/175/59 134/176/59 89/177/59
f 120/178/56 112/168/56 119/167/56
f 112/168/56 114/179/56 118/166/56
f 114/179/56 116/180/56 118/166/56
f 126/171/57 128/181/57 125/182/57
f 128/181/57 122/183/57 123/184/57
f 126/171/57 125/182/57 117/169/57
f 123/184/57 124/185/57 128/181/57
f 124/185/57 125/182/57 128/181/57
f 131/186/58 129/187/58 113/174/58
f 129/187/58 130/188/58 113/174/58
f 130/188/58 127/172/58 113/174/58
f 136/175/59 133/189/59 134/176/59
f 134/176/59 132/190/59 89/177/59
f 89/177/59 121/191/59 135/192/59
f 135/192/59 136/175/59 89/177/59
o Neue_Welt_(10)__2547_58_-1089_to_2595_255_-1061.001_cell.020_Neue_Welt_(10)__2547_58_-1089_to_2595_255_-1061.001_cell.026
v 0.500000 0.500000 -0.500000
v 0.257087 -0.084726 -0.066947
v -0.126659 -0.065794 -0.500000
v -0.021802 -0.095235 -0.500000
v -0.111905 -0.111185 -0.500000
v -0.309706 0.500000 -0.500000
v 0.500000 -0.002505 -0.500000
v 0.500000 -0.025516 -0.247599
v 0.500000 0.500000 -0.102091
v 0.500000 -0.020471 -0.303816
v 0.197112 0.500000 0.082243
v 0.228336 0.500000 0.118053
v -0.111905 -0.111185 -0.500000
v -0.126659 -0.065794 -0.500000
v -0.309706 0.500000 -0.500000
v -0.309706 0.500000 -0.500000
v 0.500000 0.500000 -0.500000
v 0.500000 0.500000 -0.500000
v 0.500000 -0.002505 -0.500000
v 0.500000 -0.002505 -0.500000
v -0.021802 -0.095235 -0.500000
v 0.500000 0.500000 -0.102091
v 0.500000 0.500000 -0.102091
v 0.500000 -0.025516 -0.247599
v 0.500000 -0.020471 -0.303816
v 0.228336 0.500000 0.118053
v 0.197112 0.500000 0.082243
vt 0.722672 0.672031
vt 0.192316 0.141175
vt 0.723794 0.141175
vt 0.858825 0.807684
vt 0.141175 0.141175
vt 0.858825 0.276206
vt 0.858825 0.806513
vt 0.858825 0.195442
vt 0.806513 0.806513
vt 0.195442 0.195442
vt 0.806662 0.194925
vt 0.858825 0.141175
vt 0.802432 0.201316
vt 0.802037 0.802037
vt 0.735897 0.735897
vt 0.784750 0.141175
vt 0.784750 0.784750
vt 0.802037 0.141175
vt 0.858825 0.735897
vt 0.001706 0.997813
vt 0.001706 0.497265
vt 0.521218 0.404896
vt 0.601154 0.997813
vt 0.746024 0.474344
vt 0.801994 0.479369
vt 0.997317 0.997813
vt 0.191165 0.997813
vt 0.695759 0.417837
vt 0.610926 0.389009
vt 0.625614 0.434222
vt 0.807858 0.997813
vt 0.997317 0.497265
vt 0.997317 0.997813
vt 0.726845 0.382167
vt 0.997317 0.601453
vn 0.1743 -0.9806 -0.0898
vn 0.1736 -0.9809 -0.0880
vn -0.7321 -0.2380 0.6383
vn -0.7328 -0.2371 0.6378
vn 0.6155 -0.2101 0.7596
vn 0.6159 -0.2102 0.7593
vn 0.0000 0.0000 -1.0000
vn 1.0000 0.0000 0.0000
vn 0.0000 1.0000 0.0000
usemtl Stone
s off
f 143/193/60 146/194/60 140/195/60
f 146/196/61 138/197/61 140/198/61
f 139/199/62 138/197/62 147/200/62
f 139/201/63 147/202/63 142/203/63
f 138/204/64 145/205/64 148/206/64
f 144/207/61 138/197/61 146/196/61
f 138/197/61 141/208/61 140/198/61
f 141/209/62 138/197/62 139/199/62
f 138/197/62 148/210/62 147/200/62
f 138/204/65 144/211/65 145/205/65
s 1
f 153/212/66 155/213/66 157/214/66
f 158/215/67 160/216/67 161/217/67
f 137/218/68 152/219/68 163/220/68
f 157/214/66 149/221/66 150/222/66
f 150/222/66 151/223/66 157/214/66
f 151/223/66 153/212/66 157/214/66
f 161/217/67 156/224/67 154/225/67
f 154/225/67 158/215/67 161/217/67
f 163/220/68 162/226/68 159/227/68
f 159/227/68 137/218/68 163/220/68
o Neue_Welt_(10)__2547_58_-1089_to_2595_255_-1061.001_cell.021_Neue_Welt_(10)__2547_58_-1089_to_2595_255_-1061.001_cell.027
v 0.500000 0.500000 0.500000
v 0.277561 -0.097421 -0.034731
v 0.289031 -0.131003 0.004655
v 0.500000 -0.111322 0.500000
v 0.500000 -0.133875 0.446018
v 0.500000 -0.271619 0.097173
v 0.500000 -0.276360 0.103453
v 0.500000 -0.042763 -0.200053
v 0.500000 0.064232 -0.170409
v 0.500000 0.500000 -0.048824
v 0.322520 0.500000 0.500000
v 0.248741 0.500000 0.158398
v 0.271542 0.500000 0.135678
v 0.324054 0.486833 0.500000
v 0.381881 -0.006477 0.500000
v 0.500000 0.500000 -0.048824
v 0.500000 0.500000 -0.048824
v 0.500000 0.500000 0.500000
v 0.500000 0.500000 0.500000
v 0.500000 -0.111322 0.500000
v 0.500000 -0.111322 0.500000
v 0.500000 -0.133875 0.446018
v 0.500000 -0.276360 0.103453
v 0.500000 -0.271619 0.097173
v 0.500000 -0.042763 -0.200053
v 0.500000 0.064232 -0.170409
v 0.248741 0.500000 0.158398
v 0.322520 0.500000 0.500000
v 0.322520 0.500000 0.500000
v 0.271542 0.500000 0.135678
v 0.324054 0.486833 0.500000
v 0.381881 -0.006477 0.500000
vt 0.193400 0.141175
vt 0.858825 0.792450
vt 0.838878 0.786391
vt 0.792450 0.792450
vt 0.141175 0.141175
vt 0.792566 0.141175
vt 0.858825 0.797557
vt 0.320583 0.259303
vt 0.858825 0.258439
vt 0.258438 0.258438
vt 0.858825 0.141175
vt 0.797557 0.797557
vt 0.141175 0.141175
vt 0.858825 0.141175
vt 0.803890 0.803890
vt 0.858825 0.858825
vt 0.726319 0.141175
vt 0.858825 0.279496
vt 0.279496 0.279496
vt 0.858825 0.278434
vt 0.278434 0.278434
vt 0.858825 0.207434
vt 0.727780 0.141175
vt 0.726319 0.726319
vt 0.272220 0.141175
vt 0.858825 0.803890
vt 0.324230 0.207445
vt 0.055452 0.366407
vt 0.402765 0.229199
vt 0.669173 0.563742
vt 0.997317 0.001707
vt 0.997317 0.548394
vt 0.769862 0.364610
vt 0.997317 0.997813
vt 0.822143 0.984698
vt 0.879716 0.493308
vt 0.548122 0.997813
vt 0.001706 0.997813
vt 0.001706 0.388871
vt 0.396513 0.224476
vt 0.698687 0.457164
vt 0.747161 0.341979
vt 0.820616 0.001707
vt 0.997317 0.388871
vt 0.820616 0.997813
vn -0.9712 -0.1131 0.2098
vn -0.9709 -0.1138 0.2106
vn -0.6140 0.2121 -0.7603
vn -0.6159 0.2103 -0.7592
vn -0.9755 -0.1089 0.1912
vn -0.2586 -0.7709 -0.5820
vn -0.6322 -0.7154 0.2975
vn -0.6336 -0.7138 0.2982
vn -0.2505 -0.7671 -0.5906
vn -0.6928 0.1913 -0.6953
vn 1.0000 0.0000 0.0000
vn 0.0000 1.0000 0.0000
vn 0.0000 0.0000 1.0000
usemtl Stone
s off
f 175/228/69 177/229/69 174/230/69
f 177/231/70 166/232/70 178/233/70
f 176/234/71 173/235/71 172/236/71
f 172/237/72 165/238/72 176/239/72
f 165/240/73 166/241/73 175/242/73
f 166/243/74 169/244/74 170/245/74
f 166/243/75 170/246/75 168/247/75
f 168/248/76 178/249/76 166/243/76
f 165/240/77 171/250/77 169/251/77
f 175/228/69 166/241/69 177/229/69
f 171/252/72 165/238/72 172/237/72
f 165/238/78 175/253/78 176/239/78
f 166/243/74 165/240/74 169/244/74
f 168/248/76 167/254/76 178/249/76
s 1
f 185/255/79 187/256/79 189/257/79
f 182/258/80 180/259/80 193/260/80
f 164/261/81 194/262/81 195/263/81
f 189/257/79 179/264/79 185/255/79
f 179/264/79 181/265/79 185/255/79
f 181/265/79 183/266/79 185/255/79
f 185/255/79 186/267/79 187/256/79
f 187/256/79 188/268/79 189/257/79
f 193/260/80 190/269/80 182/258/80
f 190/269/80 191/270/80 182/258/80
f 195/263/81 184/271/81 164/261/81
f 164/261/81 192/272/81 194/262/81
o Neue_Welt_(10)__2547_58_-1089_to_2595_255_-1061.001_cell.022_Neue_Welt_(10)__2547_58_-1089_to_2595_255_-1061.001_cell.028
v 0.500000 -0.500000 -0.500000
v 0.262485 -0.125593 -0.059494
v 0.271676 -0.152625 -0.028461
v -0.006004 -0.312796 -0.257848
v -0.153749 -0.223728 -0.500000
v -0.148578 -0.289100 -0.500000
v -0.140603 -0.200386 -0.500000
v -0.131583 -0.500000 -0.500000
v -0.114026 -0.155264 -0.500000
v -0.027712 -0.137408 -0.500000
v 0.500000 -0.043568 -0.500000
v 0.500000 -0.309517 0.078736
v 0.500000 -0.305896 0.074066
v 0.500000 -0.478570 0.032091
v 0.500000 -0.500000 0.026106
v 0.500000 -0.067244 -0.236117
v 0.500000 -0.062070 -0.293219
v -0.059026 -0.500000 -0.374585
v 0.001048 -0.500000 -0.305153
v -0.031134 -0.500000 -0.326582
v -0.131583 -0.500000 -0.500000
v -0.131583 -0.500000 -0.500000
v -0.148578 -0.289100 -0.500000
v -0.153749 -0.223728 -0.500000
v -0.140603 -0.200386 -0.500000
v -0.114026 -0.155264 -0.500000
v -0.027712 -0.137408 -0.500000
v 0.500000 -0.043568 -0.500000
v 0.500000 -0.043568 -0.500000
v 0.500000 -0.500000 -0.500000
v 0.500000 -0.500000 -0.500000
v 0.500000 -0.067244 -0.236117
v 0.500000 -0.305896 0.074066
v 0.500000 -0.309517 0.078736
v 0.500000 -0.478570 0.032091
v 0.500000 -0.500000 0.026106
v 0.500000 -0.500000 0.026106
v 0.500000 -0.062070 -0.293219
v -0.031134 -0.500000 -0.326582
v -0.059026 -0.500000 -0.374585
v 0.001048 -0.500000 -0.305153
vt 0.807636 0.141175
vt 0.808136 0.677721
vt 0.270478 0.141175
vt 0.858825 0.141175
vt 0.858825 0.733428
vt 0.807636 0.807636
vt 0.141175 0.141175
vt 0.733401 0.141175
vt 0.733429 0.733429
vt 0.245148 0.141175
vt 0.684509 0.141175
vt 0.683411 0.579345
vt 0.858825 0.790303
vt 0.209675 0.141175
vt 0.858825 0.141175
vt 0.790303 0.790303
vt 0.141175 0.141175
vt 0.733401 0.733401
vt 0.730404 0.141175
vt 0.729263 0.729263
vt 0.730404 0.730404
vt 0.768671 0.141175
vt 0.769130 0.750802
vt 0.858825 0.754852
vt 0.141175 0.141175
vt 0.858825 0.315491
vt 0.858825 0.141175
vt 0.768671 0.768671
vt 0.858825 0.790325
vt 0.736497 0.736497
vt 0.270478 0.270478
vt 0.214034 0.141175
vt 0.858825 0.729263
vt 0.707771 0.707771
vt 0.736497 0.141175
vt 0.858825 0.707771
vt 0.647438 0.211786
vt 0.639497 0.300155
vt 0.527102 0.362887
vt 0.734593 0.432778
vt 0.467561 0.023054
vt 0.997317 0.001707
vt 0.440745 0.872887
vt 0.997317 0.997813
vt 0.500555 0.803725
vt 0.001706 0.001707
vt 0.630517 0.001707
vt 0.652585 0.276904
vt 0.611401 0.347852
vt 0.001706 0.456361
vt 0.791444 0.437932
vt 0.425771 0.195055
vt 0.421122 0.191449
vt 0.473520 0.001707
vt 0.997317 0.456361
vt 0.468514 0.825070
vt 0.368506 0.997813
vt 0.997317 0.473756
vn -0.1744 0.9808 0.0878
vn -0.1748 0.9806 0.0889
vn 0.2505 0.7673 0.5903
vn -0.8635 -0.0696 0.4996
vn -0.7052 0.4154 0.5745
vn -0.7040 0.4190 0.5735
vn 0.2474 0.7657 0.5937
vn -0.5363 -0.2245 0.8136
vn -0.5387 -0.2266 0.8114
vn -0.8626 -0.0682 0.5012
vn -0.5400 -0.2253 0.8110
vn -0.7097 0.3997 0.5801
vn -0.2014 0.9737 0.1066
vn -0.7098 0.3997 0.5801
vn 0.0000 0.0000 -1.0000
vn 1.0000 0.0000 0.0000
vn 0.0000 -1.0000 0.0000
usemtl Stone
s off
f 212/273/82 206/274/82 205/275/82
f 197/276/83 211/277/83 212/278/83
f 197/279/84 208/280/84 211/281/84
f 213/282/85 201/283/85 203/284/85
f 204/285/86 202/286/86 198/287/86
f 197/276/87 204/288/87 198/289/87
f 198/287/88 208/290/88 197/279/88
f 198/289/89 209/291/89 207/292/89
f 209/293/90 214/294/90 210/295/90
f 213/296/91 199/297/91 201/298/91
f 199/299/92 214/300/92 198/289/92
f 199/297/93 202/301/93 200/302/93
f 212/278/83 205/303/83 197/276/83
f 205/303/94 204/304/94 197/276/94
f 198/287/88 207/305/88 208/290/88
f 209/293/90 198/289/90 214/294/90
f 215/306/91 199/297/91 213/296/91
f 199/297/91 200/307/91 201/298/91
f 199/299/92 215/308/92 214/300/92
f 199/297/95 198/287/95 202/301/95
s 1
f 218/309/96 220/310/96 222/311/96
f 227/312/97 230/313/97 226/314/97
f 235/315/98 196/316/98 236/317/98
f 225/318/96 216/319/96 222/311/96
f 216/319/96 218/309/96 222/311/96
f 218/309/96 219/320/96 220/310/96
f 220/310/96 221/321/96 222/311/96
f 222/311/96 223/322/96 225/318/96
f 233/323/97 227/312/97 226/314/97
f 227/312/97 228/324/97 230/313/97
f 228/324/97 229/325/97 230/313/97
f 230/313/97 231/326/97 226/314/97
f 226/314/97 224/327/97 233/323/97
f 236/317/98 234/328/98 235/315/98
f 235/315/98 217/329/98 196/316/98
f 196/316/98 232/330/98 236/317/98
