# Blender v2.91.0 OBJ File: 'snowballs.blend'
# www.blender.org
mtllib snowball_voxel.mtl
o Icosphere
v -0.105689 -0.064567 0.122307
v -0.105689 -0.021704 0.122307
v -0.105689 -0.107431 0.079444
v -0.105689 -0.107431 0.036581
v -0.148553 -0.064567 0.079444
v -0.148553 -0.021704 0.079444
v -0.148553 -0.064567 0.036581
v -0.148553 -0.021704 0.036581
v -0.105689 -0.064567 0.079444
v -0.105689 -0.021704 0.079444
v -0.105689 -0.064567 0.036581
v -0.062826 -0.107431 0.122307
v -0.019963 -0.107431 0.122307
v -0.062826 -0.021704 0.165171
v -0.062826 -0.064567 0.122307
v -0.062826 -0.021704 0.122307
v -0.019963 -0.064567 0.165171
v -0.019963 -0.021704 0.165171
v -0.019963 -0.064567 0.122307
v -0.019963 -0.021704 0.122307
v -0.062826 -0.107431 0.079444
v -0.062826 -0.150294 0.036581
v -0.062826 -0.107431 0.036581
v -0.019963 -0.150294 0.079444
v -0.019963 -0.107431 0.079444
v -0.019963 -0.150294 0.036581
v -0.019963 -0.107431 0.036581
v -0.062826 -0.064567 0.079444
v -0.105689 0.021159 0.122307
v -0.105689 0.064022 0.122307
v -0.148553 0.021159 0.079444
v -0.148553 0.021159 0.036581
v -0.148553 0.064022 0.036581
v -0.105689 0.021159 0.079444
v -0.105689 0.064022 0.079444
v -0.105689 0.021159 0.036581
v -0.105689 0.064022 0.036581
v -0.105689 0.106886 0.079444
v -0.105689 0.106886 0.036581
v -0.062826 0.021159 0.165171
v -0.062826 0.021159 0.122307
v -0.062826 0.064022 0.122307
v -0.019963 0.021159 0.165171
v -0.019963 0.021159 0.122307
v -0.019963 0.064022 0.122307
v -0.062826 0.106886 0.122307
v -0.019963 0.106886 0.122307
v -0.062826 0.064022 0.079444
v -0.062826 0.106886 0.079444
v -0.062826 0.106886 0.036581
v -0.062826 0.149749 0.036581
v -0.019963 0.106886 0.079444
v -0.019963 0.149749 0.079444
v -0.019963 0.106886 0.036581
v -0.019963 0.149749 0.036581
v -0.105689 -0.107431 -0.006283
v -0.105689 -0.107431 -0.049146
v -0.148553 -0.064567 -0.006283
v -0.148553 -0.021704 -0.006283
v -0.148553 -0.064567 -0.049146
v -0.148553 -0.021704 -0.049146
v -0.105689 -0.064567 -0.006283
v -0.105689 -0.064567 -0.049146
v -0.105689 -0.021704 -0.049146
v -0.105689 -0.107431 -0.092009
v -0.105689 -0.064567 -0.092009
v -0.105689 -0.021704 -0.092009
v -0.105689 -0.021704 -0.134873
v -0.062826 -0.150294 -0.006283
v -0.062826 -0.107431 -0.006283
v -0.062826 -0.150294 -0.049146
v -0.062826 -0.107431 -0.049146
v -0.019963 -0.150294 -0.006283
v -0.019963 -0.150294 -0.049146
v -0.019963 -0.107431 -0.049146
v -0.062826 -0.107431 -0.092009
v -0.062826 -0.107431 -0.134873
v -0.019963 -0.107431 -0.092009
v -0.019963 -0.107431 -0.134873
v -0.062826 -0.064567 -0.092009
v -0.062826 -0.021704 -0.092009
v -0.062826 -0.064567 -0.134873
v -0.062826 -0.021704 -0.134873
v -0.019963 -0.064567 -0.134873
v -0.019963 -0.021704 -0.134873
v -0.148553 0.021159 -0.006283
v -0.148553 0.064022 -0.006283
v -0.148553 0.021159 -0.049146
v -0.148553 0.064022 -0.049146
v -0.105689 0.064022 -0.006283
v -0.105689 0.021159 -0.049146
v -0.105689 0.064022 -0.049146
v -0.105689 0.106886 -0.006283
v -0.105689 0.106886 -0.049146
v -0.105689 0.021159 -0.092009
v -0.105689 0.064022 -0.092009
v -0.105689 0.021159 -0.134873
v -0.105689 0.106886 -0.092009
v -0.062826 0.106886 -0.006283
v -0.062826 0.149749 -0.006283
v -0.062826 0.106886 -0.049146
v -0.062826 0.149749 -0.049146
v -0.019963 0.149749 -0.006283
v -0.019963 0.149749 -0.049146
v -0.062826 0.021159 -0.092009
v -0.062826 0.064022 -0.092009
v -0.062826 0.021159 -0.134873
v -0.062826 0.064022 -0.134873
v -0.019963 0.021159 -0.134873
v -0.019963 0.064022 -0.134873
v -0.062826 0.106886 -0.092009
v -0.062826 0.149749 -0.092009
v -0.062826 0.106886 -0.134873
v -0.019963 0.106886 -0.092009
v -0.019963 0.149749 -0.092009
v -0.019963 0.106886 -0.134873
v 0.022901 -0.107431 0.122307
v 0.065764 -0.107431 0.122307
v 0.022901 -0.064567 0.165171
v 0.022901 -0.021704 0.165171
v 0.022901 -0.064567 0.122307
v 0.022901 -0.021704 0.122307
v 0.065764 -0.021704 0.165171
v 0.065764 -0.064567 0.122307
v 0.065764 -0.021704 0.122307
v 0.022901 -0.150294 0.079444
v 0.022901 -0.107431 0.079444
v 0.022901 -0.150294 0.036581
v 0.022901 -0.107431 0.036581
v 0.065764 -0.107431 0.079444
v 0.065764 -0.150294 0.036581
v 0.065764 -0.107431 0.036581
v 0.065764 -0.064567 0.079444
v 0.108627 -0.064567 0.122307
v 0.108627 -0.021704 0.122307
v 0.108627 -0.107431 0.079444
v 0.108627 -0.107431 0.036581
v 0.151491 -0.107431 0.036581
v 0.108627 -0.064567 0.079444
v 0.108627 -0.021704 0.079444
v 0.108627 -0.064567 0.036581
v 0.108627 -0.021704 0.036581
v 0.151491 -0.021704 0.079444
v 0.151491 -0.064567 0.036581
v 0.151491 -0.021704 0.036581
v 0.022901 0.021159 0.165171
v 0.022901 0.021159 0.122307
v 0.022901 0.064022 0.122307
v 0.065764 0.021159 0.165171
v 0.065764 0.021159 0.122307
v 0.065764 0.064022 0.122307
v 0.022901 0.106886 0.122307
v 0.022901 0.064022 0.079444
v 0.065764 0.021159 0.079444
v 0.065764 0.064022 0.079444
v 0.022901 0.106886 0.079444
v 0.022901 0.149749 0.079444
v 0.022901 0.106886 0.036581
v 0.022901 0.149749 0.036581
v 0.065764 0.106886 0.079444
v 0.065764 0.106886 0.036581
v 0.065764 0.149749 0.036581
v 0.108627 0.021159 0.122307
v 0.108627 0.021159 0.079444
v 0.108627 0.064022 0.079444
v 0.108627 0.021159 0.036581
v 0.108627 0.064022 0.036581
v 0.151491 0.021159 0.079444
v 0.151491 0.021159 0.036581
v 0.151491 0.064022 0.036581
v 0.108627 0.106886 0.079444
v 0.108627 0.106886 0.036581
v 0.022901 -0.150294 -0.006283
v 0.022901 -0.150294 -0.049146
v 0.022901 -0.107431 -0.049146
v 0.065764 -0.150294 -0.006283
v 0.065764 -0.107431 -0.006283
v 0.065764 -0.150294 -0.049146
v 0.065764 -0.107431 -0.049146
v 0.065764 -0.064567 -0.049146
v 0.022901 -0.107431 -0.092009
v 0.022901 -0.107431 -0.134873
v 0.065764 -0.107431 -0.092009
v 0.022901 -0.064567 -0.092009
v 0.022901 -0.064567 -0.134873
v 0.022901 -0.021704 -0.134873
v 0.065764 -0.064567 -0.092009
v 0.065764 -0.021704 -0.092009
v 0.065764 -0.064567 -0.134873
v 0.065764 -0.021704 -0.134873
v 0.108627 -0.107431 -0.006283
v 0.108627 -0.107431 -0.049146
v 0.151491 -0.107431 -0.006283
v 0.108627 -0.064567 -0.006283
v 0.108627 -0.064567 -0.049146
v 0.108627 -0.021704 -0.049146
v 0.151491 -0.064567 -0.006283
v 0.151491 -0.021704 -0.006283
v 0.151491 -0.064567 -0.049146
v 0.151491 -0.021704 -0.049146
v 0.108627 -0.064567 -0.092009
v 0.108627 -0.021704 -0.092009
v 0.108627 -0.021704 -0.134873
v 0.022901 0.149749 -0.006283
v 0.022901 0.106886 -0.049146
v 0.022901 0.149749 -0.049146
v 0.065764 0.106886 -0.006283
v 0.065764 0.149749 -0.006283
v 0.065764 0.106886 -0.049146
v 0.065764 0.149749 -0.049146
v 0.022901 0.064022 -0.092009
v 0.022901 0.021159 -0.134873
v 0.022901 0.064022 -0.134873
v 0.065764 0.021159 -0.092009
v 0.065764 0.064022 -0.092009
v 0.065764 0.021159 -0.134873
v 0.065764 0.064022 -0.134873
v 0.022901 0.106886 -0.092009
v 0.022901 0.149749 -0.092009
v 0.022901 0.106886 -0.134873
v 0.065764 0.106886 -0.092009
v 0.108627 0.064022 -0.006283
v 0.108627 0.021159 -0.049146
v 0.108627 0.064022 -0.049146
v 0.151491 0.021159 -0.006283
v 0.151491 0.064022 -0.006283
v 0.151491 0.021159 -0.049146
v 0.151491 0.064022 -0.049146
v 0.108627 0.106886 -0.006283
v 0.108627 0.106886 -0.049146
v 0.108627 0.021159 -0.092009
v 0.108627 0.064022 -0.092009
v 0.108627 0.021159 -0.134873
v 0.108627 0.106886 -0.092009
vt 0.566235 0.248675
vt 0.566235 0.311180
vt 0.628740 0.311180
vt 0.628740 0.248675
vt 0.570318 0.312655
vt 0.632822 0.312655
vt 0.632822 0.375160
vt 0.570318 0.375160
vt 0.439774 0.120312
vt 0.439774 0.182816
vt 0.502279 0.182816
vt 0.502279 0.120312
vt 0.441226 0.248675
vt 0.441226 0.311180
vt 0.503731 0.311180
vt 0.503731 0.248675
vt 0.630116 0.247445
vt 0.692621 0.247445
vt 0.692621 0.309949
vt 0.630116 0.309949
vt 0.564783 -0.004698
vt 0.564783 0.057807
vt 0.627288 0.057807
vt 0.627288 -0.004698
vt 0.568696 0.119975
vt 0.568696 0.182479
vt 0.631201 0.182479
vt 0.631201 0.119975
vt 0.695327 0.124896
vt 0.757831 0.124896
vt 0.757831 0.187401
vt 0.695327 0.187401
vt 0.564783 0.120312
vt 0.564783 0.182816
vt 0.627288 0.182816
vt 0.627288 0.120312
vt 0.567611 0.247445
vt 0.567611 0.309949
vt 0.502279 0.120312
vt 0.502279 0.182816
vt 0.564783 0.057807
vt 0.627288 0.057807
vt 0.506191 0.311425
vt 0.506191 0.373930
vt 0.568696 0.373930
vt 0.568696 0.311425
vt 0.568696 0.248921
vt 0.631201 0.311425
vt 0.631201 0.248921
vt 0.630116 0.184940
vt 0.692621 0.184940
vt 0.567711 0.186171
vt 0.567711 0.248675
vt 0.630216 0.248675
vt 0.630216 0.186171
vt 0.632822 0.250151
vt 0.695327 0.250151
vt 0.695327 0.312655
vt 0.502279 0.057807
vt 0.564783 0.120312
vt 0.564783 0.057807
vt 0.568696 0.436434
vt 0.568696 0.498939
vt 0.631201 0.498939
vt 0.631201 0.436434
vt 0.570318 0.437665
vt 0.632822 0.437665
vt 0.632822 0.500169
vt 0.570318 0.500169
vt 0.127131 0.310986
vt 0.127131 0.373490
vt 0.064627 0.373490
vt 0.064627 0.310986
vt 0.630116 0.372454
vt 0.692621 0.372454
vt 0.692621 0.434959
vt 0.630116 0.434959
vt 0.441264 0.057310
vt 0.441264 0.119815
vt 0.378760 0.119815
vt 0.378760 0.057310
vt 0.254351 0.055022
vt 0.254351 0.117527
vt 0.316855 0.117527
vt 0.316855 0.055022
vt 0.503386 0.558983
vt 0.565890 0.558983
vt 0.565890 0.621487
vt 0.503386 0.621487
vt 0.252141 0.310986
vt 0.252141 0.373490
vt 0.189636 0.373490
vt 0.189636 0.310986
vt 0.567611 0.372454
vt 0.567611 0.434959
vt 0.127131 0.373490
vt 0.127131 0.310986
vt 0.506191 0.436434
vt 0.506191 0.498939
vt 0.252141 0.248481
vt 0.189636 0.248481
vt 0.568696 0.561443
vt 0.631201 0.561443
vt 0.692621 0.497463
vt 0.630116 0.497463
vt 0.503731 0.556767
vt 0.503731 0.619272
vt 0.566235 0.619272
vt 0.566235 0.556767
vt 0.632822 0.500169
vt 0.695327 0.500169
vt 0.695327 0.562674
vt 0.632822 0.562674
vt 0.189636 0.248481
vt 0.189636 0.310986
vt 0.127131 0.310986
vt 0.127131 0.248481
vt 0.691244 0.248675
vt 0.691244 0.311180
vt 0.753749 0.311180
vt 0.753749 0.248675
vt 0.441324 0.312415
vt 0.503829 0.312415
vt 0.503829 0.249910
vt 0.441324 0.249910
vt 0.439774 0.245321
vt 0.439774 0.307825
vt 0.502279 0.307825
vt 0.502279 0.245321
vt 0.693705 0.119975
vt 0.693705 0.182479
vt 0.756210 0.182479
vt 0.756210 0.119975
vt 0.504616 0.186171
vt 0.567121 0.186171
vt 0.567121 0.123666
vt 0.504616 0.123666
vt 0.189636 0.435995
vt 0.189636 0.498500
vt 0.252141 0.498500
vt 0.252141 0.435995
vt 0.564783 0.370330
vt 0.564783 0.432835
vt 0.627288 0.432835
vt 0.627288 0.370330
vt 0.754734 0.375405
vt 0.754734 0.437910
vt 0.817239 0.437910
vt 0.817239 0.375405
vt 0.566334 0.312415
vt 0.628838 0.312415
vt 0.628838 0.249910
vt 0.566334 0.249910
vt 0.502279 0.245321
vt 0.502279 0.307825
vt 0.564783 0.307825
vt 0.564783 0.245321
vt 0.632822 0.312410
vt 0.695327 0.312410
vt 0.695327 0.249906
vt 0.632822 0.249906
vt 0.127131 0.561004
vt 0.127131 0.623509
vt 0.189636 0.623509
vt 0.189636 0.561004
vt 0.627288 0.307825
vt 0.756210 0.311425
vt 0.756210 0.373930
vt 0.818714 0.373930
vt 0.818714 0.311425
vt 0.693705 0.248921
vt 0.693705 0.311425
vt 0.756210 0.248921
vt 0.754734 0.312901
vt 0.817239 0.312901
vt 0.628838 0.187406
vt 0.566334 0.187406
vt 0.818714 0.248921
vt 0.695327 0.187401
vt 0.632822 0.187401
vt 0.502279 0.370330
vt 0.691244 0.373684
vt 0.691244 0.436189
vt 0.753749 0.436189
vt 0.753749 0.373684
vt 0.441324 0.437424
vt 0.503829 0.437424
vt 0.503829 0.374920
vt 0.441324 0.374920
vt 0.127131 0.435995
vt 0.127131 0.498500
vt 0.064627 0.498500
vt 0.064627 0.435995
vt 0.691244 0.499924
vt 0.691244 0.562429
vt 0.753749 0.562429
vt 0.753749 0.499924
vt 0.252141 0.435995
vt 0.252141 0.498500
vt 0.189636 0.498500
vt 0.189636 0.435995
vt 0.816254 0.374915
vt 0.816254 0.437419
vt 0.878758 0.437419
vt 0.878758 0.374915
vt 0.566334 0.437424
vt 0.628838 0.437424
vt 0.628838 0.374920
vt 0.566334 0.374920
vt 0.566136 0.562429
vt 0.628640 0.562429
vt 0.628640 0.499924
vt 0.566136 0.499924
vt 0.252141 0.561004
vt 0.252141 0.623509
vt 0.189636 0.623509
vt 0.189636 0.561004
vt 0.189636 0.435995
vt 0.189636 0.498500
vt 0.127131 0.498500
vt 0.127131 0.435995
vt 0.503631 0.437419
vt 0.566136 0.437419
vt 0.566136 0.374915
vt 0.503631 0.374915
vt 0.189636 0.561004
vt 0.189636 0.623509
vt 0.127131 0.623509
vt 0.127131 0.561004
vt 0.756210 0.436434
vt 0.756210 0.498939
vt 0.818714 0.498939
vt 0.818714 0.436434
vt 0.816254 0.562429
vt 0.816254 0.499924
vt 0.252141 0.561004
vt 0.189636 0.561004
vt 0.693705 0.498939
vt 0.693705 0.561443
vt 0.756210 0.561443
vt 0.878758 0.499924
vt 0.566334 0.499929
vt 0.628838 0.499929
vt 0.818714 0.561443
vt 0.503631 0.499924
vt 0.127131 0.561004
vt 0.506191 0.311425
vt 0.506191 0.373930
vt 0.443687 0.373930
vt 0.443687 0.311425
vt 0.755125 0.247445
vt 0.817630 0.247445
vt 0.817630 0.309949
vt 0.755125 0.309949
vt 0.689793 -0.004698
vt 0.689793 0.057807
vt 0.752297 0.057807
vt 0.752297 -0.004698
vt 0.692720 0.123666
vt 0.692720 0.186171
vt 0.630216 0.186171
vt 0.630216 0.123666
vt 0.568106 0.183955
vt 0.630610 0.183955
vt 0.630610 0.246460
vt 0.568106 0.246460
vt 0.689793 0.120312
vt 0.689793 0.182816
vt 0.752297 0.182816
vt 0.752297 0.120312
vt 0.628740 0.248675
vt 0.628740 0.311180
vt 0.566235 0.311180
vt 0.566235 0.248675
vt 0.814802 0.121244
vt 0.877306 0.121244
vt 0.877306 0.183749
vt 0.814802 0.183749
vt 0.439654 0.310986
vt 0.439654 0.373490
vt 0.502159 0.373490
vt 0.502159 0.310986
vt 0.880134 0.247445
vt 0.880134 0.309949
vt 0.814802 0.182816
vt 0.814802 0.120312
vt 0.689793 0.057807
vt 0.752297 0.057807
vt 0.503731 0.311180
vt 0.503731 0.248675
vt 0.755125 0.184940
vt 0.817630 0.184940
vt 0.628740 0.186171
vt 0.566235 0.186171
vt 0.814802 0.058739
vt 0.877306 0.058739
vt 0.568696 0.182479
vt 0.568696 0.244984
vt 0.506191 0.244984
vt 0.506191 0.182479
vt 0.630610 0.246460
vt 0.693115 0.246460
vt 0.693115 0.308964
vt 0.630610 0.308964
vt 0.377150 0.248481
vt 0.377150 0.310986
vt 0.439654 0.310986
vt 0.439654 0.248481
vt 0.755125 0.372454
vt 0.817630 0.372454
vt 0.817630 0.434959
vt 0.755125 0.434959
vt 0.566274 0.057310
vt 0.566274 0.119815
vt 0.503769 0.119815
vt 0.503769 0.057310
vt 0.631201 0.499924
vt 0.631201 0.562429
vt 0.568696 0.562429
vt 0.568696 0.499924
vt 0.504125 0.497463
vt 0.566630 0.497463
vt 0.566630 0.559968
vt 0.504125 0.559968
vt 0.377150 0.310986
vt 0.377150 0.373490
vt 0.314645 0.373490
vt 0.314645 0.310986
vt 0.628740 0.373684
vt 0.628740 0.436189
vt 0.566235 0.436189
vt 0.566235 0.373684
vt 0.506095 0.499184
vt 0.568600 0.499184
vt 0.568600 0.561689
vt 0.506095 0.561689
vt 0.691283 0.182319
vt 0.691283 0.244824
vt 0.628778 0.244824
vt 0.628778 0.182319
vt 0.754880 0.374915
vt 0.817385 0.374915
vt 0.817385 0.437419
vt 0.754880 0.437419
vt 0.439654 0.310986
vt 0.439654 0.373490
vt 0.568696 0.436434
vt 0.568696 0.498939
vt 0.506191 0.498939
vt 0.506191 0.436434
vt 0.377150 0.248481
vt 0.377150 0.310986
vt 0.314645 0.310986
vt 0.314645 0.248481
vt 0.692375 0.437419
vt 0.754880 0.499924
vt 0.692375 0.499924
vt 0.628740 0.498693
vt 0.566235 0.498693
vt 0.568696 0.437419
vt 0.506191 0.499924
vt 0.506191 0.437419
vt 0.817385 0.499924
vt 0.628778 0.119815
vt 0.566274 0.182319
vt 0.692229 0.250396
vt 0.692229 0.312901
vt 0.629725 0.312901
vt 0.629725 0.250396
vt 0.629625 0.186171
vt 0.692130 0.186171
vt 0.692130 0.123666
vt 0.629625 0.123666
vt 0.314645 0.435995
vt 0.314645 0.498500
vt 0.377150 0.498500
vt 0.377150 0.435995
vt 0.817239 0.375405
vt 0.817239 0.437910
vt 0.754734 0.437910
vt 0.754734 0.375405
vt 0.691343 0.312415
vt 0.753847 0.312415
vt 0.753847 0.249910
vt 0.691343 0.249910
vt 0.689793 0.370330
vt 0.689793 0.432835
vt 0.752297 0.432835
vt 0.752297 0.370330
vt 0.815269 0.375405
vt 0.815269 0.437910
vt 0.752764 0.437910
vt 0.752764 0.375405
vt 0.754635 0.311180
vt 0.817139 0.311180
vt 0.817139 0.248675
vt 0.754635 0.248675
vt 0.814802 0.245321
vt 0.814802 0.307825
vt 0.877306 0.307825
vt 0.877306 0.245321
vt 0.752297 0.245321
vt 0.752297 0.307825
vt 0.814802 0.307825
vt 0.814802 0.245321
vt 0.692130 0.311180
vt 0.754635 0.311180
vt 0.754635 0.248675
vt 0.692130 0.248675
vt 0.377150 0.561004
vt 0.377150 0.623509
vt 0.439654 0.623509
vt 0.439654 0.561004
vt 0.689793 0.307825
vt 0.689793 0.370330
vt 0.752297 0.370330
vt 0.816254 0.248675
vt 0.816254 0.311180
vt 0.753749 0.311180
vt 0.753749 0.248675
vt 0.566830 0.248314
vt 0.566830 0.310819
vt 0.504325 0.310819
vt 0.504325 0.248314
vt 0.629625 0.248675
vt 0.692130 0.186171
vt 0.629625 0.186171
vt 0.753749 0.186171
vt 0.691244 0.248675
vt 0.691244 0.186171
vt 0.440631 0.310819
vt 0.503136 0.310819
vt 0.503136 0.248314
vt 0.440631 0.248314
vt 0.754734 0.312901
vt 0.692229 0.375405
vt 0.692130 0.248675
vt 0.754635 0.186171
vt 0.752297 0.307825
vt 0.814802 0.370330
vt 0.753749 0.498693
vt 0.753749 0.561198
vt 0.691244 0.561198
vt 0.691244 0.498693
vt 0.691343 0.562433
vt 0.753847 0.562433
vt 0.753847 0.499929
vt 0.691343 0.499929
vt 0.377150 0.435995
vt 0.377150 0.498500
vt 0.314645 0.498500
vt 0.314645 0.435995
vt 0.817239 0.500415
vt 0.817239 0.562919
vt 0.754734 0.562919
vt 0.754734 0.500415
vt 0.691343 0.437424
vt 0.753847 0.437424
vt 0.753847 0.374920
vt 0.691343 0.374920
vt 0.377150 0.561004
vt 0.377150 0.623509
vt 0.314645 0.623509
vt 0.314645 0.561004
vt 0.815269 0.500415
vt 0.815269 0.562919
vt 0.752764 0.562919
vt 0.752764 0.500415
vt 0.754635 0.436189
vt 0.817139 0.436189
vt 0.817139 0.373684
vt 0.754635 0.373684
vt 0.502159 0.435995
vt 0.502159 0.498500
vt 0.439654 0.498500
vt 0.439654 0.435995
vt 0.439654 0.435995
vt 0.439654 0.498500
vt 0.377150 0.498500
vt 0.377150 0.435995
vt 0.753649 0.437419
vt 0.816154 0.437419
vt 0.816154 0.374915
vt 0.753649 0.374915
vt 0.439654 0.561004
vt 0.439654 0.623509
vt 0.377150 0.623509
vt 0.377150 0.561004
vt 0.816254 0.373684
vt 0.816254 0.436189
vt 0.753749 0.436189
vt 0.753749 0.373684
vt 0.753504 0.499924
vt 0.753504 0.562429
vt 0.690999 0.562429
vt 0.690999 0.499924
vt 0.377150 0.561004
vt 0.314645 0.561004
vt 0.314645 0.498500
vt 0.816008 0.437419
vt 0.816008 0.499924
vt 0.753504 0.437419
vt 0.691145 0.499924
vt 0.753649 0.499924
vt 0.691145 0.437419
vt 0.753749 0.498693
vt 0.691244 0.498693
vt 0.691244 0.436189
vt 0.816254 0.498693
vt 0.816154 0.499924
vt 0.439654 0.561004
vt 0.628838 0.249910
vt 0.691343 0.249910
vt 0.691343 0.312415
vt 0.628838 0.312415
vt 0.252141 0.185977
vt 0.252141 0.248481
vt 0.314645 0.248481
vt 0.314645 0.185977
vt 0.505601 0.183955
vt 0.568106 0.183955
vt 0.568106 0.246460
vt 0.505601 0.246460
vt 0.252141 0.310986
vt 0.252141 0.373490
vt 0.314645 0.373490
vt 0.314645 0.310986
vt 0.629871 0.499924
vt 0.692375 0.562429
vt 0.629871 0.562429
vt 0.314645 0.310986
vt 0.314645 0.373490
vt 0.252141 0.373490
vt 0.252141 0.310986
vt 0.755125 0.497463
vt 0.314645 0.248481
vt 0.689793 0.432835
vt 0.691343 0.187406
vt 0.691145 0.562429
vt 0.314645 0.623509
vt 0.691343 0.499929
vt 0.314645 0.561004
vt 0.631201 0.119975
vt 0.631201 0.182479
vt 0.189636 0.373490
vt 0.567220 0.312901
vt 0.567220 0.250396
vt 0.377150 0.373490
vt 0.877306 0.245321
vt 0.877306 0.182816
vt 0.690259 0.437910
vt 0.690259 0.375405
vt 0.752764 0.312901
vt 0.690259 0.312901
vt 0.628740 0.373684
vt 0.628740 0.436189
vt 0.127131 0.373490
vt 0.064627 0.373490
vt 0.628740 0.499924
vt 0.628740 0.562429
vt 0.189636 0.373490
vt 0.690259 0.562919
vt 0.690259 0.500415
vt 0.502159 0.373490
vt 0.439654 0.373490
vt 0.628740 0.561198
vt 0.628740 0.498693
vt 0.377150 0.373490
vt 0.566235 0.373684
vt 0.632822 0.437665
vt 0.570318 0.437665
vt 0.502746 0.437910
vt 0.502746 0.500415
vt 0.565250 0.500415
vt 0.565250 0.437910
vt 0.566334 0.312415
vt 0.628838 0.374920
vt 0.566334 0.374920
vt 0.881219 0.436434
vt 0.881219 0.373930
vt 0.503829 0.374920
vt 0.503829 0.312415
vt 0.506191 0.373930
vt 0.443687 0.436434
vt 0.443687 0.373930
vt 0.753847 0.312415
vt 0.753847 0.374920
vt 0.691343 0.374920
vt 0.627755 0.500415
vt 0.627755 0.437910
vt 0.817385 0.312410
vt 0.879889 0.312410
vt 0.879889 0.374915
vt 0.503731 0.373684
vt 0.880134 0.372454
vt 0.878758 0.311180
vt 0.878758 0.373684
vt 0.816352 0.374920
vt 0.816352 0.312415
vn -1.0000 0.0000 0.0000
vn 0.0000 0.0000 1.0000
vn 0.0000 -1.0000 0.0000
vn 0.0000 1.0000 0.0000
vn 0.0000 0.0000 -1.0000
vn 1.0000 0.0000 0.0000
usemtl Material.001
s off
f 5/1/1 6/2/1 8/3/1 7/4/1
f 5/5/2 9/6/2 10/7/2 6/8/2
f 5/9/3 7/10/3 11/11/3 9/12/3
f 17/13/1 18/14/1 20/15/1 19/16/1
f 15/17/2 19/18/2 20/19/2 16/20/2
f 14/21/3 16/22/3 20/23/3 18/24/3
f 24/25/1 25/26/1 27/27/1 26/28/1
f 22/29/2 26/30/2 27/31/2 23/32/2
f 21/33/3 23/34/3 27/35/3 25/36/3
f 1/37/2 15/17/2 16/20/2 2/38/2
f 3/39/3 4/40/3 23/34/3 21/33/3
f 12/41/3 21/33/3 25/36/3 13/42/3
f 1/43/1 2/44/1 10/45/1 9/46/1
f 3/47/1 9/46/1 11/48/1 4/49/1
f 12/50/2 13/51/2 19/18/2 15/17/2
f 12/52/1 15/53/1 28/54/1 21/55/1
f 3/56/2 21/57/2 28/58/2 9/6/2
f 1/59/3 9/12/3 28/60/3 15/61/3
f 34/62/1 35/63/1 37/64/1 36/65/1
f 32/66/2 36/67/2 37/68/2 33/69/2
f 34/70/4 36/71/4 32/72/4 31/73/4
f 41/74/2 44/75/2 45/76/2 42/77/2
f 43/78/4 44/79/4 41/80/4 40/81/4
f 52/82/1 53/83/1 55/84/1 54/85/1
f 50/86/2 54/87/2 55/88/2 51/89/2
f 52/90/4 54/91/4 50/92/4 49/93/4
f 29/94/2 41/74/2 42/77/2 30/95/2
f 49/93/4 50/92/4 39/96/4 38/97/4
f 29/98/1 30/99/1 35/63/1 34/62/1
f 47/100/4 52/90/4 49/93/4 46/101/4
f 35/63/1 38/102/1 39/103/1 37/64/1
f 42/77/2 45/76/2 47/104/2 46/105/2
f 42/106/1 46/107/1 49/108/1 48/109/1
f 35/110/2 48/111/2 49/112/2 38/113/2
f 42/114/4 48/115/4 35/116/4 30/117/4
f 58/118/1 59/119/1 61/120/1 60/121/1
f 61/122/5 64/123/5 63/124/5 60/125/5
f 58/126/3 60/127/3 63/128/3 62/129/3
f 69/130/1 70/131/1 72/132/1 71/133/1
f 72/134/5 75/135/5 74/136/5 71/137/5
f 69/138/3 71/139/3 74/140/3 73/141/3
f 76/142/3 77/143/3 79/144/3 78/145/3
f 80/146/1 81/147/1 83/148/1 82/149/1
f 83/150/5 85/151/5 84/152/5 82/153/5
f 56/154/3 57/155/3 72/156/3 70/157/3
f 67/158/5 81/159/5 80/160/5 66/161/5
f 67/162/3 68/163/3 83/164/3 81/165/3
f 72/156/3 76/142/3 78/145/3 75/166/3
f 63/167/1 64/168/1 67/169/1 66/170/1
f 56/171/1 62/172/1 63/167/1 57/173/1
f 76/174/1 80/146/1 82/149/1 77/175/1
f 82/153/5 84/152/5 79/176/5 77/177/5
f 57/173/1 63/167/1 66/170/1 65/178/1
f 66/161/5 80/160/5 76/179/5 65/180/5
f 57/155/3 65/181/3 76/142/3 72/156/3
f 86/182/1 87/183/1 89/184/1 88/185/1
f 89/186/5 92/187/5 91/188/5 88/189/5
f 90/190/4 92/191/4 89/192/4 87/193/4
f 99/194/1 100/195/1 102/196/1 101/197/1
f 103/198/4 104/199/4 102/200/4 100/201/4
f 105/202/1 106/203/1 108/204/1 107/205/1
f 108/206/5 110/207/5 109/208/5 107/209/5
f 112/210/5 115/211/5 114/212/5 111/213/5
f 114/214/4 116/215/4 113/216/4 111/217/4
f 99/218/4 101/219/4 94/220/4 93/221/4
f 96/222/5 106/223/5 105/224/5 95/225/5
f 105/226/4 107/227/4 97/228/4 95/229/4
f 91/230/1 92/231/1 96/232/1 95/233/1
f 101/197/1 102/196/1 112/234/1 111/235/1
f 104/199/4 115/236/4 112/237/4 102/200/4
f 90/238/1 93/239/1 94/240/1 92/231/1
f 106/203/1 111/235/1 113/241/1 108/204/1
f 113/242/5 116/243/5 110/207/5 108/206/5
f 92/231/1 94/240/1 98/244/1 96/232/1
f 98/245/5 111/213/5 106/223/5 96/222/5
f 101/219/4 111/217/4 98/246/4 94/220/4
f 121/247/6 122/248/6 120/249/6 119/250/6
f 121/251/2 124/252/2 125/253/2 122/254/2
f 120/255/3 122/256/3 125/257/3 123/258/3
f 128/259/6 129/260/6 127/261/6 126/262/6
f 128/263/2 131/264/2 132/265/2 129/266/2
f 127/267/3 129/268/3 132/269/3 130/270/3
f 141/271/6 142/272/6 140/273/6 139/274/6
f 141/275/2 144/276/2 145/277/2 142/278/2
f 140/279/3 142/280/3 145/281/3 143/282/3
f 124/252/2 134/283/2 135/284/2 125/253/2
f 130/270/3 132/269/3 137/285/3 136/286/3
f 117/287/3 127/267/3 130/270/3 118/288/3
f 139/274/6 140/273/6 135/289/6 134/290/6
f 117/291/2 118/292/2 124/252/2 121/251/2
f 137/293/6 141/271/6 139/274/6 136/294/6
f 137/295/2 138/296/2 144/276/2 141/275/2
f 130/297/6 133/298/6 124/299/6 118/300/6
f 130/301/2 136/302/2 139/303/2 133/304/2
f 124/305/3 133/306/3 139/307/3 134/308/3
f 147/309/2 150/310/2 151/311/2 148/312/2
f 149/313/4 150/314/4 147/315/4 146/316/4
f 158/317/6 159/318/6 157/319/6 156/320/6
f 158/321/2 161/322/2 162/323/2 159/324/2
f 160/325/4 161/326/4 158/327/4 156/328/4
f 166/329/6 167/330/6 165/331/6 164/332/6
f 166/333/2 169/334/2 170/335/2 167/336/2
f 168/337/4 169/338/4 166/339/4 164/340/4
f 154/341/2 164/342/2 165/343/2 155/344/2
f 171/345/4 172/346/4 161/326/4 160/325/4
f 154/347/6 155/348/6 151/349/6 150/350/6
f 151/351/4 155/352/4 153/353/4 148/354/4
f 153/355/2 155/344/2 160/356/2 156/357/2
f 167/330/6 172/358/6 171/359/6 165/331/6
f 153/360/6 156/320/6 152/361/6 148/362/6
f 155/344/2 165/343/2 171/363/2 160/356/2
f 163/364/4 164/340/4 154/365/4 150/314/4
f 178/366/6 179/367/6 177/368/6 176/369/6
f 175/370/5 179/371/5 178/372/5 174/373/5
f 173/374/3 174/375/3 178/376/3 176/377/3
f 189/378/6 190/379/6 188/380/6 187/381/6
f 186/382/5 190/383/5 189/384/5 185/385/5
f 184/386/3 185/387/3 189/388/3 187/389/3
f 199/390/6 200/391/6 198/392/6 197/393/6
f 196/394/5 200/395/5 199/396/5 195/397/5
f 194/398/3 195/399/3 199/400/3 197/401/3
f 177/402/3 179/403/3 192/404/3 191/405/3
f 188/406/5 202/407/5 201/408/5 187/409/5
f 188/410/3 190/411/3 203/412/3 202/413/3
f 175/414/3 181/415/3 183/416/3 179/403/3
f 201/417/6 202/418/6 196/419/6 195/420/6
f 182/421/6 185/422/6 184/423/6 181/424/6
f 184/425/5 187/409/5 183/426/5 181/427/5
f 192/428/6 195/420/6 194/429/6 191/430/6
f 194/431/5 197/432/5 193/433/5 191/434/5
f 183/435/6 187/381/6 180/436/6 179/367/6
f 180/437/5 195/397/5 192/438/5 179/371/5
f 180/439/3 187/389/3 201/440/3 195/399/3
f 209/441/6 210/442/6 208/443/6 207/444/6
f 206/445/5 210/446/5 209/447/5 205/448/5
f 208/449/4 210/450/4 206/451/4 204/452/4
f 216/453/6 217/454/6 215/455/6 214/456/6
f 213/457/5 217/458/5 216/459/5 212/460/5
f 215/461/4 217/462/4 213/463/4 211/464/4
f 227/465/6 228/466/6 226/467/6 225/468/6
f 224/469/5 228/470/5 227/471/5 223/472/5
f 226/473/4 228/474/4 224/475/4 222/476/4
f 229/477/4 230/478/4 209/479/4 207/480/4
f 215/481/5 232/482/5 231/483/5 214/484/5
f 231/485/4 233/486/4 216/487/4 214/488/4
f 231/489/6 232/490/6 224/491/6 223/492/6
f 218/493/6 219/494/6 206/495/6 205/496/6
f 209/479/4 221/497/4 218/498/4 205/499/4
f 213/500/6 220/501/6 218/493/6 211/502/6
f 218/503/5 221/504/5 215/481/5 211/505/5
f 224/491/6 230/506/6 229/507/6 222/508/6
f 232/490/6 234/509/6 230/506/6 224/491/6
f 221/504/5 234/510/5 232/482/5 215/481/5
f 230/478/4 234/511/4 221/497/4 209/479/4
f 17/512/2 119/513/2 120/514/2 18/515/2
f 17/516/3 19/517/3 121/518/3 119/519/3
f 24/520/2 126/521/2 127/522/2 25/523/2
f 24/524/3 26/525/3 128/526/3 126/527/3
f 13/51/2 117/291/2 121/251/2 19/18/2
f 13/42/3 25/36/3 127/267/3 117/287/3
f 44/75/2 147/309/2 148/312/2 45/76/2
f 146/316/4 147/315/4 44/79/4 43/78/4
f 52/528/2 156/357/2 157/529/2 53/530/2
f 157/531/4 159/532/4 55/533/4 53/534/4
f 45/76/2 148/312/2 152/535/2 47/104/2
f 152/536/4 156/328/4 52/90/4 47/100/4
f 75/135/5 175/370/5 174/373/5 74/136/5
f 73/141/3 74/140/3 174/375/3 173/374/3
f 78/145/3 79/144/3 182/537/3 181/415/3
f 85/151/5 186/382/5 185/385/5 84/152/5
f 84/152/5 185/385/5 182/538/5 79/176/5
f 75/166/3 78/145/3 181/415/3 175/414/3
f 204/452/4 206/451/4 104/199/4 103/198/4
f 110/207/5 213/457/5 212/460/5 109/208/5
f 115/211/5 219/539/5 218/503/5 114/212/5
f 218/498/4 220/540/4 116/215/4 114/214/4
f 116/243/5 220/541/5 213/457/5 110/207/5
f 206/451/4 219/542/4 115/236/4 104/199/4
f 22/543/1 23/544/1 70/131/1 69/130/1
f 22/545/3 69/138/3 73/141/3 26/525/3
f 7/4/1 8/3/1 59/119/1 58/118/1
f 7/10/3 58/126/3 62/129/3 11/11/3
f 4/49/1 11/48/1 62/172/1 56/171/1
f 4/40/3 56/154/3 70/157/3 23/34/3
f 176/369/6 177/368/6 132/546/6 131/547/6
f 128/526/3 173/374/3 176/377/3 131/548/3
f 137/285/3 191/405/3 193/549/3 138/550/3
f 197/393/6 198/392/6 145/551/6 144/552/6
f 193/553/6 197/393/6 144/552/6 138/554/6
f 132/269/3 177/402/3 191/405/3 137/285/3
f 32/555/1 33/556/1 87/183/1 86/182/1
f 37/557/4 90/190/4 87/193/4 33/558/4
f 50/559/1 51/560/1 100/195/1 99/194/1
f 55/533/4 103/198/4 100/201/4 51/561/4
f 37/64/1 39/103/1 93/239/1 90/238/1
f 50/92/4 99/218/4 93/221/4 39/96/4
f 225/468/6 226/467/6 170/562/6 169/563/6
f 170/564/4 226/473/4 222/476/4 167/565/4
f 207/444/6 208/443/6 162/566/6 161/567/6
f 162/568/4 208/449/4 204/452/4 159/532/4
f 222/508/6 229/507/6 172/358/6 167/330/6
f 172/346/4 229/477/4 207/480/4 161/326/4
f 6/2/1 31/569/1 32/555/1 8/3/1
f 6/8/2 10/7/2 34/570/2 31/571/2
f 14/572/1 40/573/1 41/574/1 16/575/1
f 14/576/2 18/515/2 43/577/2 40/578/2
f 2/44/1 29/98/1 34/62/1 10/45/1
f 2/38/2 16/20/2 41/74/2 29/94/2
f 59/119/1 86/182/1 88/185/1 61/120/1
f 88/189/5 91/188/5 64/123/5 61/122/5
f 67/169/1 95/233/1 97/579/1 68/580/1
f 107/209/5 109/208/5 85/151/5 83/150/5
f 64/168/1 91/230/1 95/233/1 67/169/1
f 97/581/5 107/209/5 83/150/5 68/582/5
f 125/583/6 150/350/6 149/584/6 123/585/6
f 120/514/2 123/586/2 149/587/2 146/588/2
f 145/551/6 169/563/6 168/589/6 143/590/6
f 140/591/2 143/592/2 168/593/2 164/342/2
f 140/273/6 164/332/6 163/594/6 135/289/6
f 125/253/2 135/284/2 163/595/2 150/310/2
f 212/460/5 216/459/5 190/383/5 186/382/5
f 200/391/6 227/465/6 225/468/6 198/392/6
f 223/472/5 227/471/5 200/395/5 196/394/5
f 203/596/6 233/597/6 231/489/6 202/418/6
f 202/418/6 231/489/6 223/492/6 196/419/6
f 216/459/5 233/598/5 203/599/5 190/383/5
f 8/3/1 32/555/1 86/182/1 59/119/1
f 198/392/6 225/468/6 169/563/6 145/551/6
f 18/515/2 120/514/2 146/588/2 43/577/2
f 109/208/5 212/460/5 186/382/5 85/151/5
f 26/525/3 73/141/3 173/374/3 128/526/3
f 159/532/4 204/452/4 103/198/4 55/533/4
