# Blender v2.91.0 OBJ File: 'snowballs.blend'
# www.blender.org
mtllib snowball_round.mtl
o Icosphere.005
v 0.118015 -0.061267 0.098448
v -0.150687 -0.063391 -0.020480
v 0.154306 -0.004191 -0.050991
v 0.018243 0.007713 0.168355
v 0.145252 0.070760 0.034122
v -0.024610 -0.127752 0.072066
v -0.022456 -0.075942 0.136644
v 0.120835 -0.114482 0.024188
v 0.067909 -0.137733 -0.037585
v -0.116953 -0.072011 0.067601
v -0.028314 -0.147204 -0.014372
v -0.075105 -0.071325 -0.138775
v 0.024824 -0.094959 -0.136165
v 0.090613 0.007675 0.122094
v -0.145692 0.005976 0.042965
v -0.114774 0.029327 0.118342
v -0.107502 0.015137 -0.121894
v 0.091824 0.004853 -0.129692
v -0.017635 0.092825 -0.139846
v -0.124643 0.090712 -0.050067
v 0.108961 0.083109 -0.079859
v -0.004110 0.128506 0.083104
v 0.041421 0.152430 0.003999
v -0.064994 0.136185 0.042813
v -0.029439 0.156474 -0.073790
v 0.131606 0.004612 0.066351
v 0.137536 -0.059449 -0.013325
v -0.089551 -0.105263 -0.017429
v -0.070820 -0.099858 0.069831
v -0.091304 -0.028094 -0.130335
v -0.047216 0.146329 -0.015489
v 0.018656 0.140468 0.043551
vt 0.037837 0.142322
vt 0.321060 0.313082
vt 0.230556 0.339503
vt 0.101944 0.314164
vt 0.915381 0.425291
vt 0.856012 0.523718
vt 0.736769 0.413396
vt 0.769071 0.272784
vt 0.132040 0.595965
vt 0.211871 0.712175
vt 0.407676 0.890916
vt 0.059548 0.753376
vt 0.560695 0.429226
vt 0.621211 0.512988
vt 0.542485 0.713457
vt 0.463019 0.554624
vt 0.883123 0.641492
vt 0.926058 0.753376
vt 0.812302 0.628438
vt 0.739173 0.580170
vt 0.353380 0.365438
vt 0.381213 0.429048
vt 0.326960 0.603171
vt 0.625056 0.315383
vt 0.629139 0.785561
vt 0.218619 0.545998
vt 0.510072 0.287040
vt 0.956203 0.508716
vt 0.998551 0.595965
vt 0.399263 0.715835
vt 0.466791 0.734118
vt 0.579627 0.861984
vt 0.904348 0.142322
vt 0.689678 0.274959
vt 0.526439 0.159993
vt 0.968455 0.314164
vt 0.048871 0.425291
vt 0.089692 0.508716
vn -0.2353 -0.9701 -0.0597
vn -0.3962 -0.4583 -0.7955
vn 0.2164 -0.5633 -0.7974
vn 0.3738 -0.8855 -0.2760
vn 0.6979 -0.7028 0.1381
vn 0.6892 -0.3972 0.6060
vn -0.1318 -0.5514 0.8237
vn -0.1487 -0.8896 0.4319
vn 0.9413 -0.0206 -0.3368
vn 0.6417 0.5834 -0.4979
vn 0.3564 0.9332 0.0455
vn 0.8430 0.4580 0.2818
vn -0.9740 0.1194 0.1923
vn -0.6821 0.2200 0.6973
vn -0.4473 0.8218 0.3527
vn -0.8237 0.5191 -0.2280
vn 0.9177 -0.0096 0.3972
vn 0.5746 0.1611 0.8024
vn 0.0915 0.1156 0.9890
vn -0.5953 -0.0667 -0.8007
vn -0.7031 0.1468 -0.6957
vn -0.0256 0.4945 -0.8688
vn -0.6969 -0.5392 0.4728
vn 0.0678 0.7801 0.6219
vn 0.5260 -0.0272 -0.8500
vn -0.8987 -0.4255 -0.1057
vn 0.9243 -0.3562 -0.1366
vn -0.1549 0.9113 -0.3814
vn -0.3437 0.9357 0.0795
vn 0.1975 0.9131 0.3567
vn -0.5058 -0.7751 0.3786
vn -0.5517 -0.8317 -0.0621
usemtl Material.001
s 1
f 11/1/1 12/2/2 13/3/3 9/4/4
f 8/5/5 1/6/6 7/7/7 6/8/8
f 3/9/9 21/10/10 23/11/11 5/12/12
f 15/13/13 16/14/14 24/15/15 20/16/16
f 1/6/6 26/17/17 5/18/12 14/19/18
f 7/7/7 1/6/6 14/19/18 4/20/19
f 12/2/2 30/21/20 17/22/21 19/23/22
f 10/24/23 7/7/7 4/20/19 16/14/14
f 14/19/18 5/18/12 22/25/24 4/20/19
f 18/26/25 19/23/22 21/10/10 3/9/9
f 17/22/21 2/27/26 15/13/13 20/16/16
f 27/28/27 3/29/9 5/18/12 26/17/17
f 16/14/14 4/20/19 22/25/24 24/15/15
f 25/30/28 20/16/16 24/15/15 31/31/29
f 13/3/3 12/2/2 19/23/22 18/26/25
f 22/25/24 5/18/12 23/11/11 32/32/30
f 24/15/15 22/25/24 32/32/30 31/31/29
f 8/5/5 27/28/27 26/17/17 1/6/6
f 11/33/1 6/8/8 29/34/31 28/35/32
f 11/33/1 9/36/4 8/5/5 6/8/8
f 28/35/32 29/34/31 10/24/23 2/27/26
f 17/22/21 30/21/20 12/2/2 2/27/26
f 10/24/23 16/14/14 15/13/13 2/27/26
f 31/31/29 32/32/30 23/11/11 25/30/28
f 11/33/1 28/35/32 2/27/26 12/2/2
f 21/10/10 19/23/22 25/30/28 23/11/11
f 6/8/8 7/7/7 10/24/23 29/34/31
f 8/37/5 9/4/4 3/9/9 27/38/27
f 9/4/4 13/3/3 18/26/25 3/9/9
f 17/22/21 20/16/16 25/30/28 19/23/22
